{
.appVersion = "1350";
DisplayStrings = (
"wonder/space unit"
);
copyright = "Copyright © 2020 by Charles Forman. All rights reserved.";
customParameters = (
{
name = note;
value = "THICCCBOI\012\012This is a thicccboi font for all you girls and boys.\012\012https://github.com/wonderunit/font-thicccboi";
}
);
date = "2020-12-22 11:29:57 +0000";
designer = "Charles Forman";
designerURL = "https://wonderunit.com";
disablesNiceNames = 1;
familyName = THICCCBOI;
featurePrefixes = (
{
automatic = 1;
code = "languagesystem DFLT dflt;\012\012languagesystem latn dflt;\012languagesystem latn AZE;\012languagesystem latn CRT;\012languagesystem latn KAZ;\012languagesystem latn TAT;\012languagesystem latn TRK;\012languagesystem latn ROM;\012languagesystem latn MOL;\012\012languagesystem cyrl dflt;\012languagesystem cyrl BGR;\012languagesystem cyrl SRB;\012";
name = Languagesystems;
}
);
features = (
{
automatic = 1;
code = "feature locl;\012feature sups;\012feature ordn;\012feature case;\012feature salt;\012feature ss01;\012feature calt;\012";
name = aalt;
},
{
automatic = 1;
code = "lookup ccmp_Other_1 {\012	@CombiningTopAccents = [acutecomb brevecomb caroncomb circumflexcomb commaturnedabovecomb dieresiscomb dotaccentcomb gravecomb hungarumlautcomb macroncomb ringcomb tildecomb];\012	@CombiningNonTopAccents = [cedillacomb commaaccent ogonekcomb slashlongcomb slashshortcomb strokeshortcomb];\012	sub [i]' @CombiningTopAccents by [idotless];\012	sub [i]' @CombiningNonTopAccents @CombiningTopAccents by [idotless];\012} ccmp_Other_1;\012";
name = ccmp;
},
{
automatic = 1;

glyphs = (
{
glyphname = A;
lastChange = "2020-08-30 17:35:15 +0000";
layers = (
{
anchors = (
{
name = ogonek;
position = "{23, 0}";
},
{
name = top;
position = "{307, 700}";
}
);
layerId = "335260E3-B850-4550-8CEC-14CE68ACF16F";
paths = (
{
closed = 1;
nodes = (
"20 0 LINE",
"56 0 LINE",
"325 700 LINE",
"289 700 LINE"
);
},
{
closed = 1;
nodes = (
"291 700 LINE",
"560 0 LINE",
"594 0 LINE",
"325 700 LINE"
);
},
{
closed = 1;
nodes = (
"115 218 LINE",
"115 188 LINE",
"497 188 LINE",
"497 218 LINE"
);
}
);
width = 644;
},
{
anchors = (
{
name = ogonek;
position = "{105, 0}";
},
{
name = top;
position = "{358, 700}";
}
);
layerId = "D5A55CBB-56DB-4AD9-B643-4353D3BE6F68";
paths = (
{
closed = 1;
nodes = (
"0 0 LINE",
"203 0 LINE",
"458 700 LINE",
"255 700 LINE"
);
},
{
closed = 1;
nodes = (
"255 700 LINE",
"510 0 LINE",
"713 0 LINE",
"458 700 LINE"
);
},
{
closed = 1;
nodes = (
"134 293 LINE",
"103 113 LINE",
"603 113 LINE",
"572 293 LINE"
);
}
);
width = 743;
}
);
leftKerningGroup = A;
rightKerningGroup = A;
unicode = 0041;
},
{
glyphname = AE;
lastChange = "2020-08-30 04:47:41 +0000";
layers = (
{
anchors = (
{
name = top;
position = "{1147, 700}";
}
);
components = (
{
name = E;
transform = "{1, 0, 0, 1, 301, 0}";
}
);
layerId = "335260E3-B850-4550-8CEC-14CE68ACF16F";
paths = (
{
closed = 1;
nodes = (
"20 0 LINE",
"56 0 LINE",
"325 700 LINE",
"289 700 LINE"
);
},
{
closed = 1;
nodes = (
"115 218 LINE",
"115 188 LINE",
"407 188 LINE",
"407 218 LINE"
);
},
{
closed = 1;
nodes = (
"304 700 LINE",
"304 670 LINE",
"686 670 LINE",
"686 700 LINE"
);
}
);
width = 840;
},
{
anchors = (
{
name = top;
position = "{1298, 700}";
}
);
components = (
{
alignment = -1;
name = E;
transform = "{1, 0, 0, 1, 406, 0}";
}
);
layerId = "D5A55CBB-56DB-4AD9-B643-4353D3BE6F68";
paths = (
{
closed = 1;
nodes = (
"0 0 LINE",
"203 0 LINE",
"458 700 LINE",
"255 700 LINE"
);
},
{
closed = 1;
nodes = (
"124 293 LINE",
"93 113 LINE",
"593 113 LINE",
"562 293 LINE"
);
},
{
closed = 1;
nodes = (
"289 700 LINE",
"258 520 LINE",
"758 520 LINE",
"727 700 LINE"
);
}
);
width = 940;
}
);
leftKerningGroup = A;
leftMetricsKey = A;
rightKerningGroup = E;
rightMetricsKey = E;
unicode = 00C6;
},
{
glyphname = B;
lastChange = "2020-09-11 23:23:37 +0000";
layers = (
{
components = (
{
name = "ascender-stem";
transform = "{1, 0, 0, 1, -29, 0}";
}
);
layerId = "335260E3-B850-4550-8CEC-14CE68ACF16F";
paths = (
{
closed = 1;
nodes = (
"450 343 OFFCURVE",
"528 429 OFFCURVE",
"528 525 CURVE SMOOTH",
"528 621 OFFCURVE",
"450 700 OFFCURVE",
"354 700 CURVE SMOOTH",
"111 700 LINE",
"111 668 LINE",
"354 668 LINE SMOOTH",
"432 668 OFFCURVE",
"496 603 OFFCURVE",
"496 525 CURVE SMOOTH",
"496 447 OFFCURVE",
"432 375 OFFCURVE",
"354 375 CURVE SMOOTH",
"108 375 LINE",
"108 343 LINE",
"354 343 LINE SMOOTH"
);
},
{
closed = 1;
nodes = (
"470 0 OFFCURVE",
"552 86 OFFCURVE",
"552 187 CURVE SMOOTH",
"552 288 OFFCURVE",
"470 375 OFFCURVE",
"368 375 CURVE SMOOTH",
"108 375 LINE",
"108 343 LINE",
"368 343 LINE SMOOTH",
"452 343 OFFCURVE",
"520 271 OFFCURVE",
"520 187 CURVE SMOOTH",
"520 103 OFFCURVE",
"452 32 OFFCURVE",
"368 32 CURVE SMOOTH",
"100 32 LINE",
"100 0 LINE",
"368 0 LINE SMOOTH"
);
}
);
width = 627;
},
{
components = (
{
alignment = -1;
name = "ascender-stem";
}
);
layerId = "D5A55CBB-56DB-4AD9-B643-4353D3BE6F68";
paths = (
{
closed = 1;
nodes = (
"470 275 OFFCURVE",
"561 378 OFFCURVE",
"561 490 CURVE SMOOTH",
"561 602 OFFCURVE",
"470 700 OFFCURVE",
"358 700 CURVE SMOOTH",
"206 700 LINE",
"206 520 LINE",
"358 520 LINE SMOOTH",
"370 520 OFFCURVE",
"388 508 OFFCURVE",
"388 482 CURVE SMOOTH",
"388 457 OFFCURVE",
"370 447 OFFCURVE",
"358 447 CURVE SMOOTH",
"206 445 LINE",
"206 275 LINE",
"358 275 LINE SMOOTH"
);
},
{
closed = 1;
nodes = (
"492 0 OFFCURVE",
"590 101 OFFCURVE",
"590 226 CURVE SMOOTH",
"590 345 OFFCURVE",
"499 444 OFFCURVE",
"375 444 CURVE SMOOTH",
"206 444 LINE",
"206 274 LINE",
"375 274 LINE SMOOTH",
"394 274 OFFCURVE",
"410 252 OFFCURVE",
"410 227 CURVE SMOOTH",
"410 203 OFFCURVE",
"394 180 OFFCURVE",
"375 180 CURVE SMOOTH",
"191 180 LINE",
"191 0 LINE",
"375 0 LINE SMOOTH"
);
}
);
width = 640;
}
);
leftKerningGroup = H;
rightKerningGroup = B;
unicode = 0042;
},
{
glyphname = C;
lastChange = "2020-09-13 00:47:46 +0000";
layers = (
{
anchors = (
{
name = bottom;
position = "{411, -12}";
},
{
name = top;
position = "{411, 710}";
}
);
layerId = "335260E3-B850-4550-8CEC-14CE68ACF16F";
paths = (
{
closed = 1;
nodes = (
"50 150 OFFCURVE",
"212 -12 OFFCURVE",
"411 -12 CURVE SMOOTH",
"545 -12 OFFCURVE",
"663 62 OFFCURVE",
"725 171 CURVE",
"697 186 LINE",
"640 87 OFFCURVE",
"534 20 OFFCURVE",
"411 20 CURVE SMOOTH",
"229 20 OFFCURVE",
"82 167 OFFCURVE",
"82 349 CURVE SMOOTH",
"82 531 OFFCURVE",
"229 678 OFFCURVE",
"411 678 CURVE SMOOTH",
"534 678 OFFCURVE",
"640 611 OFFCURVE",
"697 512 CURVE",
"725 527 LINE",
"663 636 OFFCURVE",
"545 710 OFFCURVE",
"411 710 CURVE SMOOTH",
"212 710 OFFCURVE",
"50 548 OFFCURVE",
"50 349 CURVE SMOOTH"
);
}
);
width = 795;
},
{
anchors = (
{
name = bottom;
position = "{391, -14}";
},
{
name = top;
position = "{391, 708}";
}
);
layerId = "D5A55CBB-56DB-4AD9-B643-4353D3BE6F68";
paths = (
{
closed = 1;
nodes = (
"30 148 OFFCURVE",
"192 -14 OFFCURVE",
"391 -14 CURVE SMOOTH",
"529 -14 OFFCURVE",
"650 64 OFFCURVE",
"711 179 CURVE",
"543 270 LINE",
"515 214 OFFCURVE",
"457 176 OFFCURVE",
"391 176 CURVE SMOOTH",
"297 176 OFFCURVE",
"220 253 OFFCURVE",
"220 347 CURVE SMOOTH",
"220 441 OFFCURVE",
"297 518 OFFCURVE",
"391 518 CURVE SMOOTH",
"456 518 OFFCURVE",
"513 481 OFFCURVE",
"542 428 CURVE",
"709 518 LINE",
"648 631 OFFCURVE",
"528 708 OFFCURVE",
"391 708 CURVE SMOOTH",
"192 708 OFFCURVE",
"30 546 OFFCURVE",
"30 347 CURVE SMOOTH"
);
}
);
width = 751;
}
);
leftKerningGroup = O;
rightKerningGroup = C;
unicode = 0043;
},
{
glyphname = D;
lastChange = "2020-08-30 15:21:55 +0000";
layers = (
{
anchors = (
{
name = left;
position = "{181, 350}";
},
{
name = top;
position = "{316, 700}";
}
);
components = (
{
name = "ascender-stem";
transform = "{1, 0, 0, 1, -29, 0}";
}
);
layerId = "335260E3-B850-4550-8CEC-14CE68ACF16F";
paths = (
{
closed = 1;
nodes = (
"499 670 OFFCURVE",
"641 531 OFFCURVE",
"641 349 CURVE SMOOTH",
"641 167 OFFCURVE",
"498 30 OFFCURVE",
"316 30 CURVE",
"316 0 LINE",
"515 0 OFFCURVE",
"673 150 OFFCURVE",
"673 349 CURVE SMOOTH",
"673 548 OFFCURVE",
"515 700 OFFCURVE",
"316 700 CURVE",
"316 670 LINE"
);
},
{
closed = 1;
nodes = (
"102 0 LINE",
"316 0 LINE",
"316 30 LINE",
"102 30 LINE"
);
},
{
closed = 1;
nodes = (
"102 670 LINE",
"316 670 LINE",
"316 700 LINE",
"102 700 LINE"
);
}
);
width = 753;
},
{
anchors = (
{
name = left;
position = "{161, 347}";
},
{
name = top;
position = "{343, 700}";
}
);
components = (
{
alignment = -1;
name = "ascender-stem";
}
);
layerId = "D5A55CBB-56DB-4AD9-B643-4353D3BE6F68";
paths = (
{
closed = 1;
nodes = (
"437 520 OFFCURVE",
"514 443 OFFCURVE",
"514 349 CURVE SMOOTH",
"514 255 OFFCURVE",
"437 180 OFFCURVE",
"343 180 CURVE",
"343 0 LINE",
"542 0 OFFCURVE",
"704 148 OFFCURVE",
"704 347 CURVE SMOOTH",
"704 546 OFFCURVE",
"542 700 OFFCURVE",
"343 700 CURVE",
"343 520 LINE"
);
},
{
closed = 1;
nodes = (
"129 0 LINE",
"343 0 LINE",
"343 180 LINE",
"129 180 LINE"
);
},
{
closed = 1;
nodes = (
"129 520 LINE",
"343 520 LINE",
"343 700 LINE",
"129 700 LINE"
);
}
);
width = 764;
}
);
leftKerningGroup = H;
rightKerningGroup = O;
unicode = 0044;
},
{
glyphname = G;
lastChange = "2020-08-30 17:24:42 +0000";
layers = (
{
anchors = (
{
name = bottom;
position = "{411, -12}";
},
{
name = top;
position = "{411, 710}";
}
);
layerId = "335260E3-B850-4550-8CEC-14CE68ACF16F";
paths = (
{
closed = 1;
nodes = (
"50 150 OFFCURVE",
"212 -12 OFFCURVE",
"411 -12 CURVE SMOOTH",
"610 -12 OFFCURVE",
"754 125 OFFCURVE",
"754 287 CURVE",
"722 287 LINE",
"722 133 OFFCURVE",
"593 20 OFFCURVE",
"411 20 CURVE SMOOTH",
"229 20 OFFCURVE",
"82 167 OFFCURVE",
"82 349 CURVE SMOOTH",
"82 531 OFFCURVE",
"229 678 OFFCURVE",
"411 678 CURVE SMOOTH",
"534 678 OFFCURVE",
"641 610 OFFCURVE",
"698 510 CURVE",
"725 526 LINE",
"663 636 OFFCURVE",
"546 710 OFFCURVE",
"411 710 CURVE SMOOTH",
"212 710 OFFCURVE",
"50 548 OFFCURVE",
"50 349 CURVE SMOOTH"
);
},
{
closed = 1;
nodes = (
"402.034 287 LINE",
"754.03 287 LINE",
"754 287 LINE",
"754.03 317 LINE",
"402.034 317 LINE"
);
}
);
width = 830;
},
{
anchors = (
{
name = bottom;
position = "{391, -14}";
},
{
name = top;
position = "{391, 708}";
}
);
layerId = "D5A55CBB-56DB-4AD9-B643-4353D3BE6F68";
paths = (
{
closed = 1;
nodes = (
"30 148 OFFCURVE",
"192 -14 OFFCURVE",
"391 -14 CURVE SMOOTH",
"583 -14 OFFCURVE",
"749 139 OFFCURVE",
"749 327 CURVE",
"556 311 LINE",
"539 234 OFFCURVE",
"473 176 OFFCURVE",
"391 176 CURVE SMOOTH",
"297 176 OFFCURVE",
"220 253 OFFCURVE",
"220 347 CURVE SMOOTH",
"220 441 OFFCURVE",
"297 518 OFFCURVE",
"391 518 CURVE SMOOTH",
"445 518 OFFCURVE",
"494 492 OFFCURVE",
"525 453 CURVE",
"674 571 LINE",
"608 654 OFFCURVE",
"506 708 OFFCURVE",
"391 708 CURVE SMOOTH",
"192 708 OFFCURVE",
"30 546 OFFCURVE",
"30 347 CURVE SMOOTH"
);
},
{
closed = 1;
nodes = (
"357 221 LINE",
"679 221 LINE",
"749 327 LINE",
"749 401 LINE",
"357 401 LINE"
);
}
);
width = 809;
}
);
leftKerningGroup = O;
rightKerningGroup = O;
unicode = 0047;
},
{
glyphname = J;
lastChange = "2020-08-30 17:30:43 +0000";
layers = (
{
layerId = "335260E3-B850-4550-8CEC-14CE68ACF16F";
paths = (
{
closed = 1;
nodes = (
"438 77 OFFCURVE",
"356 20 OFFCURVE",
"254 20 CURVE SMOOTH",
"168 20 OFFCURVE",
"115 49 OFFCURVE",
"70 123 CURVE",
"45 106 LINE",
"86 29 OFFCURVE",
"158 -11 OFFCURVE",
"254 -11 CURVE SMOOTH",
"378 -11 OFFCURVE",
"470 63 OFFCURVE",
"470 197 CURVE",
"438 197 LINE"
);
},
{
closed = 1;
nodes = (
"438 197 LINE",
"470 197 LINE",
"470 699.352 LINE",
"438 699.352 LINE"
);
}
);
width = 580;
},
{
layerId = "D5A55CBB-56DB-4AD9-B643-4353D3BE6F68";
paths = (
{
closed = 1;
nodes = (
"318 181 OFFCURVE",
"301 155 OFFCURVE",
"250 155 CURVE SMOOTH",
"203 155 OFFCURVE",
"183 171 OFFCURVE",
"161 210 CURVE",
"5 122 LINE",
"51 33 OFFCURVE",
"131 -14 OFFCURVE",
"242 -14 CURVE SMOOTH",
"404 -14 OFFCURVE",
"508 99 OFFCURVE",
"508 235 CURVE",
"318 235 LINE"
);
},
{
closed = 1;
nodes = (
"318 235 LINE",
"508 235 LINE",
"508 700 LINE",
"318 700 LINE"
);
}
);
width = 568;
}
);
leftKerningGroup = J;
rightKerningGroup = J;
unicode = 004A;
},
{
glyphname = K;
lastChange = "2020-08-30 14:49:17 +0000";
layers = (
{
anchors = (
{
name = bottom;
position = "{303, 0}";
}
);
layerId = "335260E3-B850-4550-8CEC-14CE68ACF16F";
paths = (
{
closed = 1;
nodes = (
"94 302 LINE",
"116 279 LINE",
"554 700 LINE",
"508 700 LINE"
);
},
{
closed = 1;
nodes = (
"557 2 LINE",
"208 393 LINE",
"186 370 LINE",
"516 0 LINE"
);
},
{
closed = 1;
nodes = (
"90 0 LINE",
"122 0 LINE",
"122 700 LINE",
"90 700 LINE"
);
}
);
width = 597;
},
{
anchors = (
{
name = bottom;
position = "{341, 0}";
}
);
layerId = "D5A55CBB-56DB-4AD9-B643-4353D3BE6F68";
paths = (
{
closed = 1;
nodes = (
"101 299 LINE",
"205 124 LINE",
"655 700 LINE",
"414 700 LINE"
);
},
{
closed = 1;
nodes = (
"692 0 LINE",
"307 518 LINE",
"184 366 LINE",
"455 0 LINE"
);
},
{
closed = 1;
nodes = (
"35 0 LINE",
"225 0 LINE",
"225 700 LINE",
"35 700 LINE"
);
}
);
width = 722;
}
);
leftKerningGroup = H;
rightKerningGroup = K;
unicode = 004B;
},
{
glyphname = M;
lastChange = "2020-08-30 05:09:21 +0000";
layers = (
{
components = (
{
alignment = -1;
name = "ascender-stem";
transform = "{1, 0, 0, 1, 552, 0}";
},
{
alignment = -1;
name = "ascender-stem";
transform = "{1, 0, 0, 1, -29, -1}";
}
);
layerId = "335260E3-B850-4550-8CEC-14CE68ACF16F";
paths = (
{
closed = 1;
nodes = (
"397 246 LINE",
"395 192 LINE",
"402 192 LINE",
"701 700 LINE",
"664 700 LINE"
);
},
{
closed = 1;
nodes = (
"130 700 LINE",
"93 700 LINE",
"392 192 LINE",
"399 192 LINE",
"397 246 LINE"
);
}
);
width = 823;
},
{
components = (
{
alignment = -1;
name = "ascender-stem";
transform = "{1, 0, 0, 1, 532, 0}";
},
{
alignment = -1;
name = "ascender-stem";
}
);
layerId = "D5A55CBB-56DB-4AD9-B643-4353D3BE6F68";
paths = (
{
closed = 1;
nodes = (
"388 401 LINE",
"391 104 LINE",
"419 104 LINE",
"721 607 LINE",
"567 700 LINE"
);
},
{
closed = 1;
nodes = (
"225 700 LINE",
"71 607 LINE",
"373 104 LINE",
"401 104 LINE",
"404 401 LINE"
);
}
);
width = 822;
}
);
leftKerningGroup = H;
rightKerningGroup = H;
unicode = 004D;
},
{
glyphname = N;
lastChange = "2020-08-30 14:52:23 +0000";
layers = (
{
anchors = (
{
name = bottom;
position = "{344, 0}";
},
{
name = top;
position = "{340, 700}";
}
);
components = (
{
name = "ascender-stem";
transform = "{1, 0, 0, 1, -29, 0}";
}
);
layerId = "335260E3-B850-4550-8CEC-14CE68ACF16F";
paths = (
{
closed = 1;
nodes = (
"90 700 LINE",
"547 0 LINE",
"569 0 LINE",
"577 12 LINE",
"123 700 LINE"
);
},
{
closed = 1;
nodes = (
"548 8 LINE",
"548 0 LINE",
"580 0 LINE",
"580 700 LINE",
"548 700 LINE"
);
}
);
width = 700;
},
{
anchors = (
{
name = bottom;
position = "{340, 0}";
},
{
name = top;
position = "{330, 700}";
}
);
components = (
{
alignment = -1;
name = "ascender-stem";
}
);
layerId = "D5A55CBB-56DB-4AD9-B643-4353D3BE6F68";
paths = (
{
closed = 1;
nodes = (
"79 594 LINE",
"457 0 LINE",
"532 0 LINE",
"603 106 LINE",
"225 700 LINE"
);
},
{
closed = 1;
nodes = (
"425 131 LINE",
"498 0 LINE",
"615 0 LINE",
"615 700 LINE",
"425 700 LINE"
);
}
);
width = 680;
}
);
leftKerningGroup = H;
rightKerningGroup = H;
unicode = 004E;
},
{
glyphname = Eng;
lastChange = "2020-08-30 14:55:26 +0000";
layers = (
{
anchors = (
{
name = bottom;
position = "{344, 0}";
},
{
name = top;
position = "{340, 700}";
}
);
components = (
{
name = "ascender-stem";
transform = "{1, 0, 0, 1, -29, 0}";
}
);
layerId = "335260E3-B850-4550-8CEC-14CE68ACF16F";
paths = (
{
closed = 1;
nodes = (
"90 700 LINE",
"547 0 LINE",
"569 0 LINE",
"577 12 LINE",
"123 700 LINE"
);
},
{
closed = 1;
nodes = (
"548 8 LINE",
"548 0 LINE",
"580 0 LINE",
"580 700 LINE",
"548 700 LINE"
);
},
{
closed = 1;
nodes = (
"549 -26 LINE SMOOTH",
"549 -115 OFFCURVE",
"509 -163 OFFCURVE",
"413 -152 CURVE",
"413 -180 LINE",
"521 -190 OFFCURVE",
"579 -132 OFFCURVE",
"579 -26 CURVE SMOOTH",
"579 531 LINE",
"549 531 LINE"
);
}
);
width = 700;
},
{
anchors = (
{
name = bottom;
position = "{340, 0}";
},
{
name = top;
position = "{330, 700}";
}
);
components = (
{
alignment = -1;
name = "ascender-stem";
}
);
layerId = "D5A55CBB-56DB-4AD9-B643-4353D3BE6F68";
paths = (
{
closed = 1;
nodes = (
"79 594 LINE",
"457 0 LINE",
"532 0 LINE",
"603 106 LINE",
"225 700 LINE"
);
},
{
closed = 1;
nodes = (
"425 131 LINE",
"498 0 LINE",
"615 0 LINE",
"615 700 LINE",
"425 700 LINE"
);
},
{
closed = 1;
nodes = (
"435 0 LINE SMOOTH",
"435 -40 OFFCURVE",
"410 -43 OFFCURVE",
"355 -40 CURVE",
"355 -214 LINE",
"503 -224 OFFCURVE",
"615 -141 OFFCURVE",
"615 0 CURVE SMOOTH",
"615 500 LINE",
"435 500 LINE"
);
}
);
width = 680;
}
);
leftKerningGroup = H;
rightKerningGroup = H;
unicode = 014A;
},
{
glyphname = O;
lastChange = "2020-08-30 17:33:53 +0000";
layers = (
{
anchors = (
{
name = middle;
position = "{411, 349}";
},
{
name = top;
position = "{411, 710}";
}
);
layerId = "335260E3-B850-4550-8CEC-14CE68ACF16F";
paths = (
{
closed = 1;
nodes = (
"610 -12 OFFCURVE",
"772 150 OFFCURVE",
"772 349 CURVE SMOOTH",
"772 548 OFFCURVE",
"610 710 OFFCURVE",
"411 710 CURVE SMOOTH",
"212 710 OFFCURVE",
"50 548 OFFCURVE",
"50 349 CURVE SMOOTH",
"50 150 OFFCURVE",
"212 -12 OFFCURVE",
"411 -12 CURVE SMOOTH"
);
},
{
closed = 1;
nodes = (
"229 20 OFFCURVE",
"82 167 OFFCURVE",
"82 349 CURVE SMOOTH",
"82 531 OFFCURVE",
"229 678 OFFCURVE",
"411 678 CURVE SMOOTH",
"593 678 OFFCURVE",
"740 531 OFFCURVE",
"740 349 CURVE SMOOTH",
"740 167 OFFCURVE",
"593 20 OFFCURVE",
"411 20 CURVE SMOOTH"
);
}
);
width = 852;
},
{
anchors = (
{
name = middle;
position = "{391, 347}";
},
{
name = top;
position = "{391, 708}";
}
);
layerId = "D5A55CBB-56DB-4AD9-B643-4353D3BE6F68";
paths = (
{
closed = 1;
nodes = (
"590 -14 OFFCURVE",
"752 148 OFFCURVE",
"752 347 CURVE SMOOTH",
"752 546 OFFCURVE",
"590 708 OFFCURVE",
"391 708 CURVE SMOOTH",
"192 708 OFFCURVE",
"30 546 OFFCURVE",
"30 347 CURVE SMOOTH",
"30 148 OFFCURVE",
"192 -14 OFFCURVE",
"391 -14 CURVE SMOOTH"
);
},
{
closed = 1;
nodes = (
"297 176 OFFCURVE",
"220 253 OFFCURVE",
"220 347 CURVE SMOOTH",
"220 441 OFFCURVE",
"297 518 OFFCURVE",
"391 518 CURVE SMOOTH",
"485 518 OFFCURVE",
"562 441 OFFCURVE",
"562 347 CURVE SMOOTH",
"562 253 OFFCURVE",
"485 176 OFFCURVE",
"391 176 CURVE SMOOTH"
);
}
);
width = 812;
}
);
leftKerningGroup = O;
leftMetricsKey = O;
rightKerningGroup = O;
rightMetricsKey = O;
unicode = 004F;
},
{
glyphname = OE;
lastChange = "2020-08-30 06:17:40 +0000";
layers = (
{
anchors = (
{
name = middle;
position = "{1529, 340}";
},
{
name = top;
position = "{1524, 710}";
}
);
components = (
{
name = E;
transform = "{1, 0, 0, 1, 594, 0}";
}
);
layerId = "335260E3-B850-4550-8CEC-14CE68ACF16F";
paths = (
{
closed = 1;
nodes = (
"580 -12 OFFCURVE",
"712 150 OFFCURVE",
"712 349 CURVE SMOOTH",
"712 548 OFFCURVE",
"580 710 OFFCURVE",
"381 710 CURVE SMOOTH",
"182 710 OFFCURVE",
"50 548 OFFCURVE",
"50 349 CURVE SMOOTH",
"50 150 OFFCURVE",
"182 -12 OFFCURVE",
"381 -12 CURVE SMOOTH"
);
},
{
closed = 1;
nodes = (
"199 20 OFFCURVE",
"82 167 OFFCURVE",
"82 349 CURVE SMOOTH",
"82 531 OFFCURVE",
"199 678 OFFCURVE",
"381 678 CURVE SMOOTH",
"563 678 OFFCURVE",
"680 531 OFFCURVE",
"680 349 CURVE SMOOTH",
"680 167 OFFCURVE",
"563 20 OFFCURVE",
"381 20 CURVE SMOOTH"
);
}
);
width = 1133;
},
{
anchors = (
{
name = middle;
position = "{1374, 343}";
},
{
name = top;
position = "{1377, 708}";
}
);
components = (
{
alignment = -1;
name = E;
transform = "{1, 0, 0, 1, 472, 0}";
}
);
layerId = "D5A55CBB-56DB-4AD9-B643-4353D3BE6F68";
paths = (
{
closed = 1;
nodes = (
"560 -14 OFFCURVE",
"692 148 OFFCURVE",
"692 347 CURVE SMOOTH",
"692 546 OFFCURVE",
"560 708 OFFCURVE",
"361 708 CURVE SMOOTH",
"162 708 OFFCURVE",
"30 546 OFFCURVE",
"30 347 CURVE SMOOTH",
"30 148 OFFCURVE",
"162 -14 OFFCURVE",
"361 -14 CURVE SMOOTH"
);
},
{
closed = 1;
nodes = (
"267 176 OFFCURVE",
"220 253 OFFCURVE",
"220 347 CURVE SMOOTH",
"220 441 OFFCURVE",
"267 518 OFFCURVE",
"361 518 CURVE SMOOTH",
"455 518 OFFCURVE",
"502 441 OFFCURVE",
"502 347 CURVE SMOOTH",
"502 253 OFFCURVE",
"455 176 OFFCURVE",
"361 176 CURVE SMOOTH"
);
}
);
width = 1006;
}
);
leftKerningGroup = O;
leftMetricsKey = O;
rightKerningGroup = E;
rightMetricsKey = E;
unicode = 0152;
},
{
glyphname = P;
lastChange = "2020-08-30 06:28:55 +0000";
layers = (
{
components = (
{
name = "ascender-stem";
transform = "{1, 0, 0, 1, -29, 0}";
}
);
layerId = "335260E3-B850-4550-8CEC-14CE68ACF16F";
paths = (
{
closed = 1;
nodes = (
"425 284 OFFCURVE",
"518 377 OFFCURVE",
"518 492 CURVE SMOOTH",
"518 607 OFFCURVE",
"425 700 OFFCURVE",
"310 700 CURVE SMOOTH",
"114 700 LINE",
"114 668 LINE",
"310 668 LINE SMOOTH",
"407 668 OFFCURVE",
"486 589 OFFCURVE",
"486 492 CURVE SMOOTH",
"486 395 OFFCURVE",
"407 316 OFFCURVE",
"310 316 CURVE SMOOTH",
"110 316 LINE",
"110 284 LINE",
"310 284 LINE SMOOTH"
);
}
);
width = 593;
},
{
components = (
{
alignment = -1;
name = "ascender-stem";
}
);
layerId = "D5A55CBB-56DB-4AD9-B643-4353D3BE6F68";
paths = (
{
closed = 1;
nodes = (
"444 217 OFFCURVE",
"552 325 OFFCURVE",
"552 459 CURVE SMOOTH",
"552 593 OFFCURVE",
"444 700 OFFCURVE",
"310 700 CURVE SMOOTH",
"137 700 LINE",
"137 520 LINE",
"310 520 LINE SMOOTH",
"344 520 OFFCURVE",
"372 493 OFFCURVE",
"372 459 CURVE SMOOTH",
"372 425 OFFCURVE",
"344 397 OFFCURVE",
"310 397 CURVE SMOOTH",
"141 397 LINE",
"141 217 LINE",
"310 217 LINE SMOOTH"
);
}
);
width = 602;
}
);
leftKerningGroup = H;
rightKerningGroup = P;
unicode = 0050;
},
{
glyphname = Thorn;
lastChange = "2020-08-30 04:47:41 +0000";
layers = (
{
components = (
{
name = "ascender-stem";
transform = "{1, 0, 0, 1, -29, 0}";
}
);
layerId = "335260E3-B850-4550-8CEC-14CE68ACF16F";
paths = (
{
closed = 1;
nodes = (
"425 154 OFFCURVE",
"518 247 OFFCURVE",
"518 362 CURVE SMOOTH",
"518 477 OFFCURVE",
"425 570 OFFCURVE",
"310 570 CURVE SMOOTH",
"114 570 LINE",
"114 538 LINE",
"310 538 LINE SMOOTH",
"407 538 OFFCURVE",
"486 459 OFFCURVE",
"486 362 CURVE SMOOTH",
"486 265 OFFCURVE",
"407 186 OFFCURVE",
"310 186 CURVE SMOOTH",
"110 186 LINE",
"110 154 LINE",
"310 154 LINE SMOOTH"
);
}
);
width = 593;
},
{
components = (
{
alignment = -1;
name = "ascender-stem";
}
);
layerId = "D5A55CBB-56DB-4AD9-B643-4353D3BE6F68";
paths = (
{
closed = 1;
nodes = (
"444 117 OFFCURVE",
"552 225 OFFCURVE",
"552 359 CURVE SMOOTH",
"552 493 OFFCURVE",
"444 600 OFFCURVE",
"310 600 CURVE SMOOTH",
"137 600 LINE",
"137 420 LINE",
"310 420 LINE SMOOTH",
"344 420 OFFCURVE",
"372 393 OFFCURVE",
"372 359 CURVE SMOOTH",
"372 325 OFFCURVE",
"344 297 OFFCURVE",
"310 297 CURVE SMOOTH",
"141 297 LINE",
"141 117 LINE",
"310 117 LINE SMOOTH"
);
}
);
width = 602;
}
);
leftKerningGroup = P;
rightKerningGroup = P;
unicode = 00DE;
},
{
glyphname = Q;
lastChange = "2020-08-30 05:10:23 +0000";
layers = (
{
components = (
{
name = "ascender-stem";
transform = "{0.70711, 0.70711, -0.30892, 0.30892, 619, -98}";
}
);
layerId = "335260E3-B850-4550-8CEC-14CE68ACF16F";
paths = (
{
closed = 1;
nodes = (
"610 -12 OFFCURVE",
"772 150 OFFCURVE",
"772 349 CURVE SMOOTH",
"772 548 OFFCURVE",
"610 710 OFFCURVE",
"411 710 CURVE SMOOTH",
"212 710 OFFCURVE",
"50 548 OFFCURVE",
"50 349 CURVE SMOOTH",
"50 150 OFFCURVE",
"212 -12 OFFCURVE",
"411 -12 CURVE SMOOTH"
);
},
{
closed = 1;
nodes = (
"229 20 OFFCURVE",
"82 167 OFFCURVE",
"82 349 CURVE SMOOTH",
"82 531 OFFCURVE",
"229 678 OFFCURVE",
"411 678 CURVE SMOOTH",
"593 678 OFFCURVE",
"740 531 OFFCURVE",
"740 349 CURVE SMOOTH",
"740 167 OFFCURVE",
"593 20 OFFCURVE",
"411 20 CURVE SMOOTH"
);
}
);
width = 856;
},
{
components = (
{
alignment = -1;
name = "ascender-stem";
transform = "{0.70711, 0.70711, -0.40173, 0.40173, 614, -80}";
}
);
layerId = "D5A55CBB-56DB-4AD9-B643-4353D3BE6F68";
paths = (
{
closed = 1;
nodes = (
"590 -14 OFFCURVE",
"752 148 OFFCURVE",
"752 347 CURVE SMOOTH",
"752 546 OFFCURVE",
"590 708 OFFCURVE",
"391 708 CURVE SMOOTH",
"192 708 OFFCURVE",
"30 546 OFFCURVE",
"30 347 CURVE SMOOTH",
"30 148 OFFCURVE",
"192 -14 OFFCURVE",
"391 -14 CURVE SMOOTH"
);
},
{
closed = 1;
nodes = (
"297 176 OFFCURVE",
"220 253 OFFCURVE",
"220 347 CURVE SMOOTH",
"220 441 OFFCURVE",
"297 518 OFFCURVE",
"391 518 CURVE SMOOTH",
"485 518 OFFCURVE",
"562 441 OFFCURVE",
"562 347 CURVE SMOOTH",
"562 253 OFFCURVE",
"485 176 OFFCURVE",
"391 176 CURVE SMOOTH"
);
}
);
width = 838;
}
);
leftKerningGroup = O;
rightKerningGroup = O;
unicode = 0051;
},
{
glyphname = R;
lastChange = "2020-08-30 15:01:35 +0000";
layers = (
{
anchors = (
{
name = bottom;
position = "{317, 0}";
},
{
name = top;
position = "{292, 700}";
}
);
layerId = "335260E3-B850-4550-8CEC-14CE68ACF16F";
paths = (
{
closed = 1;
nodes = (
"458 284 OFFCURVE",
"551 377 OFFCURVE",
"551 492 CURVE SMOOTH",
"551 607 OFFCURVE",
"458 700 OFFCURVE",
"343 700 CURVE SMOOTH",
"107 700 LINE",
"107 668 LINE",
"343 668 LINE SMOOTH",
"440 668 OFFCURVE",
"519 589 OFFCURVE",
"519 492 CURVE SMOOTH",
"519 395 OFFCURVE",
"440 316 OFFCURVE",
"343 316 CURVE SMOOTH",
"103 316 LINE",
"103 284 LINE",
"343 284 LINE SMOOTH"
);
},
{
closed = 1;
nodes = (
"90 0 LINE",
"122 0 LINE",
"122 700 LINE",
"90 700 LINE"
);
},
{
closed = 1;
nodes = (
"536 0 LINE",
"572 0 LINE",
"389 318 LINE",
"361 302 LINE"
);
}
);
width = 627;
},
{
anchors = (
{
name = bottom;
position = "{307, 0}";
},
{
name = top;
position = "{286, 700}";
}
);
layerId = "D5A55CBB-56DB-4AD9-B643-4353D3BE6F68";
paths = (
{
closed = 1;
nodes = (
"466 217 OFFCURVE",
"574 325 OFFCURVE",
"574 459 CURVE SMOOTH",
"574 593 OFFCURVE",
"466 700 OFFCURVE",
"332 700 CURVE SMOOTH",
"159 700 LINE",
"159 520 LINE",
"332 520 LINE SMOOTH",
"366 520 OFFCURVE",
"394 493 OFFCURVE",
"394 459 CURVE SMOOTH",
"394 425 OFFCURVE",
"366 397 OFFCURVE",
"332 397 CURVE SMOOTH",
"163 397 LINE",
"163 217 LINE",
"332 217 LINE SMOOTH"
);
},
{
closed = 1;
nodes = (
"30 0 LINE",
"220 0 LINE",
"220 700 LINE",
"30 700 LINE"
);
},
{
closed = 1;
nodes = (
"398 0 LINE",
"616 0 LINE",
"439 319 LINE",
"273 227 LINE"
);
}
);
width = 661;
}
);
leftKerningGroup = H;
rightKerningGroup = K;
unicode = 0052;
},
{
glyphname = S;
lastChange = "2020-08-30 17:34:08 +0000";
layers = (
{
anchors = (
{
name = bottom;
position = "{301, -11}";
},
{
name = top;
position = "{286, 711}";
}
);
layerId = "335260E3-B850-4550-8CEC-14CE68ACF16F";
paths = (
{
closed = 1;
nodes = (
"440 -11 OFFCURVE",
"531 65 OFFCURVE",
"531 181 CURVE SMOOTH",
"531 302 OFFCURVE",
"423 331 OFFCURVE",
"299 372 CURVE SMOOTH",
"199 405 OFFCURVE",
"106 428 OFFCURVE",
"106 524 CURVE SMOOTH",
"106 602 OFFCURVE",
"165 680 OFFCURVE",
"286 680 CURVE SMOOTH",
"386 680 OFFCURVE",
"454 625 OFFCURVE",
"483 551 CURVE",
"511 564 LINE",
"477 645 OFFCURVE",
"401 711 OFFCURVE",
"286 711 CURVE SMOOTH",
"167 711 OFFCURVE",
"74 638 OFFCURVE",
"74 523 CURVE SMOOTH",
"74 401 OFFCURVE",
"179 378 OFFCURVE",
"296 340 CURVE SMOOTH",
"403 306 OFFCURVE",
"499 265 OFFCURVE",
"499 181 CURVE SMOOTH",
"499 101 OFFCURVE",
"440 20 OFFCURVE",
"301 20 CURVE SMOOTH",
"179 20 OFFCURVE",
"101 87 OFFCURVE",
"74 171 CURVE",
"45 154 LINE",
"77 55 OFFCURVE",
"170 -11 OFFCURVE",
"301 -11 CURVE SMOOTH"
);
}
);
width = 606;
},
{
anchors = (
{
name = bottom;
position = "{333, -14}";
},
{
name = top;
position = "{314, 714}";
}
);
layerId = "D5A55CBB-56DB-4AD9-B643-4353D3BE6F68";
paths = (
{
closed = 1;
nodes = (
"498 -14 OFFCURVE",
"632 72 OFFCURVE",
"632 207 CURVE SMOOTH",
"632 355 OFFCURVE",
"495 406 OFFCURVE",
"373 438 CURVE SMOOTH",
"260 468 OFFCURVE",
"242 469 OFFCURVE",
"242 497 CURVE SMOOTH",
"242 514 OFFCURVE",
"277 526 OFFCURVE",
"314 526 CURVE SMOOTH",
"361 526 OFFCURVE",
"393 511 OFFCURVE",
"421 461 CURVE",
"609 556 LINE",
"550 659 OFFCURVE",
"446 714 OFFCURVE",
"314 714 CURVE SMOOTH",
"175 714 OFFCURVE",
"44 636 OFFCURVE",
"44 501 CURVE SMOOTH",
"44 367 OFFCURVE",
"161 307 OFFCURVE",
"281 278 CURVE SMOOTH",
"402 249 OFFCURVE",
"431 246 OFFCURVE",
"431 213 CURVE SMOOTH",
"431 197 OFFCURVE",
"388 172 OFFCURVE",
"338 172 CURVE SMOOTH",
"265 172 OFFCURVE",
"223 194 OFFCURVE",
"194 252 CURVE",
"10 159 LINE",
"55 56 OFFCURVE",
"163 -14 OFFCURVE",
"333 -14 CURVE SMOOTH"
);
}
);
width = 672;
}
);
leftKerningGroup = S;
rightKerningGroup = S;
unicode = 0053;
},
{
glyphname = Germandbls;
lastChange = "2020-09-11 20:27:00 +0000";
layers = (
{
layerId = "335260E3-B850-4550-8CEC-14CE68ACF16F";
paths = (
{
closed = 1;
nodes = (
"277 347 LINE",
"292 347 LINE",
"516 506 LINE",
"516 639 OFFCURVE",
"439 708 OFFCURVE",
"291 708 CURVE SMOOTH",
"164 709 OFFCURVE",
"96 647 OFFCURVE",
"90 525 CURVE",
"120 525 LINE",
"126 627 OFFCURVE",
"183 679 OFFCURVE",
"290 678 CURVE SMOOTH",
"411 678 OFFCURVE",
"478 624 OFFCURVE",
"487 520 CURVE",
"277 377 LINE",
"277 377 LINE"
);
},
{
closed = 1;
nodes = (
"217 0 LINE",
"312 0 LINE",
"452 1 OFFCURVE",
"535 77 OFFCURVE",
"532 199 CURVE SMOOTH",
"531 311 OFFCURVE",
"434 379 OFFCURVE",
"277 377 CURVE",
"277 347 LINE",
"411 347 OFFCURVE",
"495 291 OFFCURVE",
"497 199 CURVE SMOOTH",
"498 94 OFFCURVE",
"428 30 OFFCURVE",
"312 30 CURVE SMOOTH",
"217 30 LINE"
);
},
{
closed = 1;
nodes = (
"90 0 LINE",
"120 0 LINE",
"120 525 LINE",
"90 525 LINE"
);
}
);
width = 607;
},
{
layerId = "D5A55CBB-56DB-4AD9-B643-4353D3BE6F68";
paths = (
{
closed = 1;
nodes = (
"303 267 LINE",
"303 267 LINE",
"580 514 LINE",
"559 636 OFFCURVE",
"457 711 OFFCURVE",
"313 711 CURVE SMOOTH",
"146 712 OFFCURVE",
"40 623 OFFCURVE",
"35 477 CURVE",
"225 477 LINE",
"225 510 OFFCURVE",
"252 530 OFFCURVE",
"296 530 CURVE SMOOTH",
"330 530 OFFCURVE",
"355 516 OFFCURVE",
"363 493 CURVE",
"304 437 LINE",
"303 437 LINE"
);
},
{
closed = 1;
nodes = (
"267 0 LINE",
"323 0 LINE",
"526 1 OFFCURVE",
"628 77 OFFCURVE",
"621 222 CURVE SMOOTH",
"619 366 OFFCURVE",
"511 439 OFFCURVE",
"303 437 CURVE",
"303 267 LINE",
"388 267 OFFCURVE",
"433 252 OFFCURVE",
"434 222 CURVE SMOOTH",
"434 195 OFFCURVE",
"396 181 OFFCURVE",
"323 180 CURVE",
"267 180 LINE"
);
},
{
closed = 1;
nodes = (
"35 0 LINE",
"225 0 LINE",
"225 477 LINE",
"35 477 LINE"
);
}
);
width = 671;
}
);
leftKerningGroup = H;
rightKerningGroup = B;
unicode = 1E9E;
},
{
glyphname = T;
lastChange = "2020-08-30 17:04:31 +0000";
layers = (
{
anchors = (
{
name = bottom;
position = "{268, 0}";
},
{
name = left;
position = "{271, 329}";
},
{
name = top;
position = "{273, 700}";
}
);
layerId = "335260E3-B850-4550-8CEC-14CE68ACF16F";
paths = (
{
closed = 1;
nodes = (
"255 0 LINE",
"287 0 LINE",
"287 700 LINE",
"255 700 LINE"
);
},
{
closed = 1;
nodes = (
"25 670 LINE",
"517 670 LINE",
"517 700 LINE",
"25 700 LINE"
);
}
);
width = 572;
},
{
anchors = (
{
name = bottom;
position = "{271, 0}";
},
{
name = left;
position = "{269, 308}";
},
{
name = top;
position = "{271, 700}";
}
);
layerId = "D5A55CBB-56DB-4AD9-B643-4353D3BE6F68";
paths = (
{
closed = 1;
nodes = (
"174 0 LINE",
"364 0 LINE",
"364 700 LINE",
"174 700 LINE"
);
},
{
closed = 1;
nodes = (
"5 520 LINE",
"534 520 LINE",
"534 700 LINE",
"5 700 LINE"
);
}
);
width = 569;
}
);
leftKerningGroup = T;
rightKerningGroup = T;
unicode = 0054;
},
{
glyphname = U;
lastChange = "2020-08-30 17:32:58 +0000";
layers = (
{
anchors = (
{
name = bottom;
position = "{325, -11}";
},
{
name = ogonek;
position = "{328, -4}";
},
{
name = top;
position = "{325, 700}";
}
);
components = (
{
name = "ascender-stem";
transform = "{1, 0, 0, 0.66077, -39, 237}";
},
{
name = "ascender-stem";
transform = "{1, 0, 0, 0.66077, 421, 237}";
}
);
layerId = "335260E3-B850-4550-8CEC-14CE68ACF16F";
paths = (
{
closed = 1;
nodes = (
"80 89 OFFCURVE",
"171 -11 OFFCURVE",
"325 -11 CURVE SMOOTH",
"479 -11 OFFCURVE",
"572 89 OFFCURVE",
"572 237 CURVE",
"540 237 LINE",
"540 111 OFFCURVE",
"468 21 OFFCURVE",
"325 21 CURVE SMOOTH",
"184 21 OFFCURVE",
"112 111 OFFCURVE",
"112 237 CURVE",
"80 237 LINE"
);
}
);
width = 682;
},
{
anchors = (
{
name = bottom;
position = "{312, -14}";
},
{
name = ogonek;
position = "{311, -7}";
},
{
name = top;
position = "{312, 700}";
}
);
components = (
{
alignment = -1;
name = "ascender-stem";
transform = "{1, 0, 0, 0.66351, -5, 236}";
},
{
alignment = -1;
name = "ascender-stem";
transform = "{1, 0, 0, 0.66351, 370, 236}";
}
);
layerId = "D5A55CBB-56DB-4AD9-B643-4353D3BE6F68";
paths = (
{
closed = 1;
nodes = (
"30 86 OFFCURVE",
"158 -14 OFFCURVE",
"312 -14 CURVE SMOOTH",
"466 -14 OFFCURVE",
"595 86 OFFCURVE",
"595 236 CURVE",
"405 236 LINE",
"405 192 OFFCURVE",
"359 175 OFFCURVE",
"312 175 CURVE SMOOTH",
"275 175 OFFCURVE",
"220 192 OFFCURVE",
"220 236 CURVE",
"30 236 LINE"
);
}
);
width = 655;
}
);
leftKerningGroup = U;
rightKerningGroup = J;
unicode = 0055;
},
{
glyphname = V;
lastChange = "2020-08-30 17:33:58 +0000";
layers = (
{
layerId = "335260E3-B850-4550-8CEC-14CE68ACF16F";
paths = (
{
closed = 1;
nodes = (
"285 0 LINE",
"318 0 LINE",
"50 700 LINE",
"15 700 LINE"
);
},
{
closed = 1;
nodes = (
"553 700 LINE",
"285 0 LINE",
"318 0 LINE",
"588 700 LINE"
);
}
);
width = 633;
},
{
layerId = "D5A55CBB-56DB-4AD9-B643-4353D3BE6F68";
paths = (
{
closed = 1;
nodes = (
"227 0 LINE",
"427 0 LINE",
"200 700 LINE",
"0 700 LINE"
);
},
{
closed = 1;
nodes = (
"469 700 LINE",
"242 0 LINE",
"442 0 LINE",
"669 700 LINE"
);
}
);
width = 689;
}
);
leftKerningGroup = V;
rightKerningGroup = V;
unicode = 0056;
},
{
glyphname = W;
lastChange = "2020-08-30 15:09:09 +0000";
layers = (
{
anchors = (
{
name = top;
position = "{477, 700}";
}
);
layerId = "335260E3-B850-4550-8CEC-14CE68ACF16F";
paths = (
{
closed = 1;
nodes = (
"236 0 LINE",
"269 0 LINE",
"68 700 LINE",
"35 700 LINE"
);
},
{
closed = 1;
nodes = (
"457 700 LINE",
"244 0 LINE",
"277 0 LINE",
"491 700 LINE"
);
},
{
closed = 1;
nodes = (
"883 700 LINE",
"682 0 LINE",
"715 0 LINE",
"916 700 LINE"
);
},
{
closed = 1;
nodes = (
"674 0 LINE",
"707 0 LINE",
"494 700 LINE",
"460 700 LINE"
);
}
);
width = 981;
},
{
anchors = (
{
name = top;
position = "{501, 700}";
}
);
layerId = "D5A55CBB-56DB-4AD9-B643-4353D3BE6F68";
paths = (
{
closed = 1;
nodes = (
"188 0 LINE",
"373 0 LINE",
"196 700 LINE",
"0 700 LINE"
);
},
{
closed = 1;
nodes = (
"402 700 LINE",
"204 0 LINE",
"389 0 LINE",
"598 700 LINE"
);
},
{
closed = 1;
nodes = (
"804 700 LINE",
"627 0 LINE",
"812 0 LINE",
"1000 700 LINE"
);
},
{
closed = 1;
nodes = (
"611 0 LINE",
"796 0 LINE",
"598 700 LINE",
"402 700 LINE"
);
}
);
width = 1030;
}
);
leftKerningGroup = V;
rightKerningGroup = V;
unicode = 0057;
},
{
glyphname = X;
lastChange = "2020-08-30 16:17:15 +0000";
layers = (
{
layerId = "335260E3-B850-4550-8CEC-14CE68ACF16F";
paths = (
{
closed = 1;
nodes = (
"257 355 LINE",
"283 337 LINE",
"519 700 LINE",
"480 700 LINE"
);
},
{
closed = 1;
nodes = (
"530 0 LINE",
"294 363 LINE",
"268 345 LINE",
"491 0 LINE"
);
},
{
closed = 1;
nodes = (
"36 700 LINE",
"272 337 LINE",
"298 355 LINE",
"75 700 LINE"
);
},
{
closed = 1;
nodes = (
"287 345 LINE",
"261 363 LINE",
"25 0 LINE",
"64 0 LINE"
);
}
);
width = 585;
},
{
layerId = "D5A55CBB-56DB-4AD9-B643-4353D3BE6F68";
paths = (
{
closed = 1;
nodes = (
"275 346 LINE",
"434 242 LINE",
"730 700 LINE",
"503 700 LINE"
);
},
{
closed = 1;
nodes = (
"725 0 LINE",
"429 458 LINE",
"270 354 LINE",
"498 0 LINE"
);
},
{
closed = 1;
nodes = (
"5 700 LINE",
"301 242 LINE",
"460 346 LINE",
"232 700 LINE"
);
},
{
closed = 1;
nodes = (
"465 354 LINE",
"306 458 LINE",
"10 0 LINE",
"237 0 LINE"
);
}
);
width = 765;
}
);
leftKerningGroup = X;
rightKerningGroup = K;
unicode = 0058;
},
{
glyphname = Y;
lastChange = "2020-08-30 17:35:30 +0000";
layers = (
{
anchors = (
{
name = top;
position = "{286, 700}";
}
);
layerId = "335260E3-B850-4550-8CEC-14CE68ACF16F";
paths = (
{
closed = 1;
nodes = (
"268 0 LINE",
"300 0 LINE",
"300 307 LINE",
"268 307 LINE"
);
},
{
closed = 1;
nodes = (
"272 302 LINE",
"299 285 LINE",
"558 700 LINE",
"521 700 LINE"
);
},
{
closed = 1;
nodes = (
"10 700 LINE",
"269 285 LINE",
"296 302 LINE",
"47 700 LINE"
);
}
);
width = 598;
},
{
anchors = (
{
name = top;
position = "{349, 700}";
}
);
layerId = "D5A55CBB-56DB-4AD9-B643-4353D3BE6F68";
paths = (
{
closed = 1;
nodes = (
"249 0 LINE",
"439 0 LINE",
"439 355.086 LINE",
"249 355.086 LINE"
);
},
{
closed = 1;
nodes = (
"271 318 LINE",
"439 229 LINE",
"688 700 LINE",
"473 700 LINE"
);
},
{
closed = 1;
nodes = (
"0 700 LINE",
"249 229 LINE",
"417 318 LINE",
"215 700 LINE"
);
}
);
width = 718;
}
);
leftKerningGroup = Y;
rightKerningGroup = Y;
unicode = 0059;
},
{
glyphname = Z;
lastChange = "2020-08-30 17:36:33 +0000";
layers = (
{
anchors = (
{
name = top;
position = "{270, 700}";
}
);
layerId = "335260E3-B850-4550-8CEC-14CE68ACF16F";
paths = (
{
closed = 1;
nodes = (
"70 13 LINE",
"482 670 LINE",
"457 687 LINE",
"45 30 LINE"
);
},
{
closed = 1;
nodes = (
"45 30 LINE",
"45 0 LINE",
"491 0 LINE",
"491 30 LINE",
"45 30 LINE"
);
},
{
closed = 1;
nodes = (
"53 670 LINE",
"482 670 LINE",
"482 670 LINE",
"482 700 LINE",
"53 700 LINE"
);
}
);
width = 556;
},
{
anchors = (
{
name = top;
position = "{270, 700}";
}
);
layerId = "D5A55CBB-56DB-4AD9-B643-4353D3BE6F68";
paths = (
{
closed = 1;
nodes = (
"224 100 LINE",
"513 563 LINE",
"360 658 LINE",
"35 137 LINE"
);
},
{
closed = 1;
nodes = (
"35 137 LINE",
"35 0 LINE",
"513 0 LINE",
"513 180 LINE",
"79 180 LINE"
);
},
{
closed = 1;
nodes = (
"35 520 LINE",
"456 520 LINE",
"513 563 LINE",
"513 700 LINE",
"35 700 LINE"
);
}
);
width = 568;
}
);
leftKerningGroup = Z;
rightKerningGroup = Z;
unicode = 005A;
},
{
glyphname = ae;
lastChange = "2020-08-30 18:23:02 +0000";
layers = (
{
anchors = (
{
name = top;
position = "{726, 511}";
}
);
layerId = "335260E3-B850-4550-8CEC-14CE68ACF16F";
paths = (
{
closed = 1;
nodes = (
"491 393 OFFCURVE",
"401 509 OFFCURVE",
"261 509 CURVE",
"120 509 OFFCURVE",
"45 393 OFFCURVE",
"45 249 CURVE",
"45 105 OFFCURVE",
"120 -11 OFFCURVE",
"261 -11 CURVE",
"401 -11 OFFCURVE",
"491 105 OFFCURVE",
"491 249 CURVE"
);
},
{
closed = 1;
nodes = (
"136 19 OFFCURVE",
"75 123 OFFCURVE",
"75 249 CURVE",
"75 375 OFFCURVE",
"136 479 OFFCURVE",
"261 479 CURVE SMOOTH",
"386 479 OFFCURVE",
"464 378 OFFCURVE",
"464 249 CURVE SMOOTH",
"464 120 OFFCURVE",
"386 19 OFFCURVE",
"261 19 CURVE SMOOTH"
);
},
{
closed = 1;
nodes = (
"540 511 OFFCURVE",
"464 397 OFFCURVE",
"464 250 CURVE SMOOTH",
"464 99 OFFCURVE",
"543 -11 OFFCURVE",
"697 -11 CURVE SMOOTH",
"796 -11 OFFCURVE",
"844 34 OFFCURVE",
"885 102 CURVE",
"858 118 LINE",
"829 65 OFFCURVE",
"780 19 OFFCURVE",
"698 19 CURVE SMOOTH",
"559 19 OFFCURVE",
"498 120 OFFCURVE",
"496 233 CURVE",
"909 233 LINE",
"909 241 OFFCURVE",
"910 240 OFFCURVE",
"910 248 CURVE SMOOTH",
"910 385 OFFCURVE",
"845 511 OFFCURVE",
"693 511 CURVE SMOOTH"
);
},
{
closed = 1;
nodes = (
"496 374 OFFCURVE",
"556 481 OFFCURVE",
"693 481 CURVE SMOOTH",
"820 481 OFFCURVE",
"866 397 OFFCURVE",
"880 263 CURVE",
"496 263 LINE"
);
}
);
width = 980;
},
{
anchors = (
{
name = top;
position = "{647, 514}";
}
);
layerId = "D5A55CBB-56DB-4AD9-B643-4353D3BE6F68";
paths = (
{
closed = 1;
nodes = (
"511 354 OFFCURVE",
"431 515 OFFCURVE",
"279 515 CURVE",
"117 515 OFFCURVE",
"20 403 OFFCURVE",
"20 249 CURVE",
"20 96 OFFCURVE",
"117 -15 OFFCURVE",
"279 -15 CURVE",
"431 -15 OFFCURVE",
"511 144 OFFCURVE",
"511 249 CURVE"
);
},
{
closed = 1;
nodes = (
"233 151 OFFCURVE",
"196 195 OFFCURVE",
"196 249 CURVE",
"196 302 OFFCURVE",
"233 346 OFFCURVE",
"284 346 CURVE SMOOTH",
"341 346 OFFCURVE",
"377 309 OFFCURVE",
"377 251 CURVE SMOOTH",
"377 192 OFFCURVE",
"341 151 OFFCURVE",
"284 151 CURVE SMOOTH"
);
},
{
closed = 1;
nodes = (
"459 514 OFFCURVE",
"381 399 OFFCURVE",
"381 250 CURVE SMOOTH",
"381 101 OFFCURVE",
"457 -14 OFFCURVE",
"628 -14 CURVE SMOOTH",
"723 -14 OFFCURVE",
"787 21 OFFCURVE",
"836 89 CURVE",
"710 169 LINE",
"690 147 OFFCURVE",
"659 138 OFFCURVE",
"631 138 CURVE SMOOTH",
"591 138 OFFCURVE",
"556 149 OFFCURVE",
"530 188 CURVE",
"845 188 LINE",
"849 207 OFFCURVE",
"851 229 OFFCURVE",
"851 250 CURVE SMOOTH",
"851 401 OFFCURVE",
"763 514 OFFCURVE",
"617 514 CURVE SMOOTH"
);
},
{
closed = 1;
nodes = (
"529 347 OFFCURVE",
"573 360 OFFCURVE",
"614 360 CURVE SMOOTH",
"654 360 OFFCURVE",
"695 349 OFFCURVE",
"702 325 CURVE",
"527 325 LINE"
);
}
);
width = 901;
}
);
leftKerningGroup = o;
leftMetricsKey = a;
rightKerningGroup = a;
rightMetricsKey = e;
unicode = 00E6;
},
{
glyphname = c;
lastChange = "2020-08-30 17:39:38 +0000";
layers = (
{
anchors = (
{
name = bottom;
position = "{305, -10}";
},
{
name = top;
position = "{305, 509}";
}
);
layerId = "335260E3-B850-4550-8CEC-14CE68ACF16F";
paths = (
{
closed = 1;
nodes = (
"447 56 OFFCURVE",
"380 20 OFFCURVE",
"305 20 CURVE SMOOTH",
"178 20 OFFCURVE",
"75 123 OFFCURVE",
"75 250 CURVE SMOOTH",
"75 377 OFFCURVE",
"178 480 OFFCURVE",
"305 480 CURVE SMOOTH",
"380 480 OFFCURVE",
"447 444 OFFCURVE",
"489 388 CURVE",
"513 405 LINE",
"465 468 OFFCURVE",
"390 509 OFFCURVE",
"305 509 CURVE SMOOTH",
"161 509 OFFCURVE",
"45 393 OFFCURVE",
"45 250 CURVE SMOOTH",
"45 106 OFFCURVE",
"161 -10 OFFCURVE",
"305 -10 CURVE SMOOTH",
"391 -10 OFFCURVE",
"467 32 OFFCURVE",
"514 96 CURVE",
"489 112 LINE"
);
}
);
width = 579;
},
{
anchors = (
{
name = bottom;
position = "{285, -16}";
},
{
name = top;
position = "{285, 514}";
}
);
layerId = "D5A55CBB-56DB-4AD9-B643-4353D3BE6F68";
paths = (
{
closed = 1;
nodes = (
"333 177 OFFCURVE",
"312 164 OFFCURVE",
"285 164 CURVE SMOOTH",
"238 164 OFFCURVE",
"200 202 OFFCURVE",
"200 249 CURVE SMOOTH",
"200 296 OFFCURVE",
"238 334 OFFCURVE",
"285 334 CURVE SMOOTH",
"310 334 OFFCURVE",
"330 324 OFFCURVE",
"352 302 CURVE",
"501 401 LINE",
"453 469 OFFCURVE",
"374 514 OFFCURVE",
"285 514 CURVE SMOOTH",
"139 514 OFFCURVE",
"20 395 OFFCURVE",
"20 249 CURVE SMOOTH",
"20 103 OFFCURVE",
"139 -16 OFFCURVE",
"285 -16 CURVE SMOOTH",
"375 -16 OFFCURVE",
"454 29 OFFCURVE",
"502 98 CURVE",
"352 196 LINE"
);
}
);
width = 537;
}
);
leftKerningGroup = o;
rightKerningGroup = c;
unicode = 0063;
},
{
glyphname = eth;
lastChange = "2020-08-30 17:35:52 +0000";
layers = (
{
components = (
{
name = o;
}
);
layerId = "335260E3-B850-4550-8CEC-14CE68ACF16F";
paths = (
{
closed = 1;
nodes = (
"290 700 LINE",
"544 527 OFFCURVE",
"527 317 OFFCURVE",
"541 250 CURVE",
"544 230 LINE",
"556 230 LINE",
"564 247 LINE",
"564 274 OFFCURVE",
"564 563 OFFCURVE",
"329 700 CURVE"
);
},
{
closed = 1;
nodes = (
"329 583 LINE",
"344 561 LINE",
"498 649 LINE",
"486 671 LINE"
);
}
);
width = 659;
},
{
components = (
{
alignment = -1;
name = o;
}
);
layerId = "D5A55CBB-56DB-4AD9-B643-4353D3BE6F68";
paths = (
{
closed = 1;
nodes = (
"186 700 LINE",
"377 509 OFFCURVE",
"374 372 OFFCURVE",
"388 305 CURVE",
"339 0 LINE",
"479 89 LINE",
"550 247 LINE",
"550 422 OFFCURVE",
"468 521 OFFCURVE",
"315 700 CURVE"
);
},
{
closed = 1;
nodes = (
"165 581 LINE",
"205 518 LINE",
"478 633 LINE",
"438 696 LINE"
);
}
);
width = 600;
}
);
leftKerningGroup = o;
leftMetricsKey = d;
rightKerningGroup = d;
rightMetricsKey = d;
unicode = 00F0;
},
{
glyphname = e;
lastChange = "2020-08-30 18:20:39 +0000";
layers = (
{
anchors = (
{
name = bottom;
position = "{308, -11}";
},
{
name = ogonek;
position = "{308, -4}";
},
{
name = top;
position = "{307, 511}";
}
);
layerId = "335260E3-B850-4550-8CEC-14CE68ACF16F";
paths = (
{
closed = 1;
nodes = (
"151 511 OFFCURVE",
"45 397 OFFCURVE",
"45 250 CURVE SMOOTH",
"45 99 OFFCURVE",
"154 -11 OFFCURVE",
"308 -11 CURVE SMOOTH",
"407 -11 OFFCURVE",
"485 34 OFFCURVE",
"526 102 CURVE",
"499 118 LINE",
"470 65 OFFCURVE",
"391 19 OFFCURVE",
"309 19 CURVE SMOOTH",
"170 19 OFFCURVE",
"79 120 OFFCURVE",
"77 233 CURVE",
"550 233 LINE",
"550 241 OFFCURVE",
"551 240 OFFCURVE",
"551 248 CURVE SMOOTH",
"551 385 OFFCURVE",
"456 511 OFFCURVE",
"304 511 CURVE SMOOTH"
);
},
{
closed = 1;
nodes = (
"77 374 OFFCURVE",
"167 481 OFFCURVE",
"304 481 CURVE SMOOTH",
"431 481 OFFCURVE",
"507 397 OFFCURVE",
"521 263 CURVE",
"77 263 LINE"
);
}
);
width = 621;
},
{
anchors = (
{
name = bottom;
position = "{297, -14}";
},
{
name = ogonek;
position = "{294, -9}";
},
{
name = top;
position = "{286, 514}";
}
);
layerId = "D5A55CBB-56DB-4AD9-B643-4353D3BE6F68";
paths = (
{
closed = 1;
nodes = (
"128 514 OFFCURVE",
"20 399 OFFCURVE",
"20 250 CURVE SMOOTH",
"20 101 OFFCURVE",
"126 -14 OFFCURVE",
"297 -14 CURVE SMOOTH",
"392 -14 OFFCURVE",
"466 21 OFFCURVE",
"515 89 CURVE",
"379 169 LINE",
"359 147 OFFCURVE",
"328 138 OFFCURVE",
"300 138 CURVE SMOOTH",
"260 138 OFFCURVE",
"225 149 OFFCURVE",
"199 188 CURVE",
"534 188 LINE",
"538 207 OFFCURVE",
"540 229 OFFCURVE",
"540 250 CURVE SMOOTH",
"540 401 OFFCURVE",
"432 514 OFFCURVE",
"286 514 CURVE SMOOTH"
);
},
{
closed = 1;
nodes = (
"198 347 OFFCURVE",
"242 360 OFFCURVE",
"283 360 CURVE SMOOTH",
"323 360 OFFCURVE",
"364 349 OFFCURVE",
"371 325 CURVE",
"196 325 LINE"
);
}
);
width = 590;
}
);
leftKerningGroup = o;
rightKerningGroup = o;
unicode = 0065;
},
{
glyphname = f;
lastChange = "2020-08-30 17:52:40 +0000";
layers = (
{
components = (
{
name = "lowercase-thook";
transform = "{1, 0, 0, -1, 61, 705}";
}
);
layerId = "335260E3-B850-4550-8CEC-14CE68ACF16F";
paths = (
{
closed = 1;
nodes = (
"135 0 LINE",
"165 0 LINE",
"165 544 LINE",
"135 544 LINE"
);
},
{
closed = 1;
nodes = (
"30 470 LINE",
"306 470 LINE",
"306 500 LINE",
"30 500 LINE"
);
}
);
width = 337;
},
{
components = (
{
alignment = -1;
name = "lowercase-thook";
transform = "{1, 0, 0, -1, 80, 710}";
}
);
layerId = "D5A55CBB-56DB-4AD9-B643-4353D3BE6F68";
paths = (
{
closed = 1;
nodes = (
"80 0 LINE",
"260 0 LINE",
"260 412 LINE",
"80 412 LINE"
);
},
{
closed = 1;
nodes = (
"10 340 LINE",
"354 340 LINE",
"354 500 LINE",
"10 500 LINE"
);
}
);
width = 395;
}
);
leftKerningGroup = f;
rightKerningGroup = f;
unicode = 0066;
},
{
glyphname = h;
lastChange = "2020-08-30 17:42:09 +0000";
layers = (
{
anchors = (
{
name = left;
position = "{88, 584}";
}
);
components = (
{
name = "lowercase-shoulder";
transform = "{1, 0, 0, 1, -32, 0}";
},
{
name = "lowercase-shortstem";
transform = "{1, 0, 0, 1, -32, 0}";
}
);
layerId = "335260E3-B850-4550-8CEC-14CE68ACF16F";
paths = (
{
closed = 1;
nodes = (
"65 0 LINE",
"95 0 LINE",
"95 700 LINE",
"65 700 LINE"
);
}
);
width = 563;
},
{
anchors = (
{
name = left;
position = "{130, 549}";
}
);
components = (
{
alignment = -1;
name = "lowercase-shoulder";
transform = "{1, 0, 0, 1, -2, 0}";
},
{
alignment = -1;
name = "lowercase-shortstem";
transform = "{1, 0, 0, 1, -2, 0}";
}
);
layerId = "D5A55CBB-56DB-4AD9-B643-4353D3BE6F68";
paths = (
{
closed = 1;
nodes = (
"20 0 LINE",
"200 0 LINE",
"200 700 LINE",
"20 700 LINE"
);
}
);
width = 548;
}
);
leftKerningGroup = b;
rightKerningGroup = h;
unicode = 0068;
},
{
glyphname = idotless;
lastChange = "2020-08-30 16:26:05 +0000";
layers = (
{
anchors = (
{
name = top;
position = "{88, 500}";
}
);
layerId = "335260E3-B850-4550-8CEC-14CE68ACF16F";
paths = (
{
closed = 1;
nodes = (
"74 0 LINE",
"104 0 LINE",
"104 500 LINE",
"74 500 LINE"
);
}
);
width = 210;
},
{
anchors = (
{
name = top;
position = "{126, 500}";
}
);
layerId = "D5A55CBB-56DB-4AD9-B643-4353D3BE6F68";
paths = (
{
closed = 1;
nodes = (
"35 0 LINE",
"215 0 LINE",
"215 500 LINE",
"35 500 LINE"
);
}
);
width = 280;
}
);
leftKerningGroup = b;
rightKerningGroup = d;
unicode = 0131;
},
{
glyphname = j;
lastChange = "2020-08-30 18:23:54 +0000";
layers = (
{
components = (
{
name = "i-dot";
transform = "{1, 0, 0, 1, -160, 1}";
}
);
layerId = "335260E3-B850-4550-8CEC-14CE68ACF16F";
paths = (
{
closed = 1;
nodes = (
"116 -57 LINE SMOOTH",
"116 -146 OFFCURVE",
"76 -194 OFFCURVE",
"-20 -183 CURVE",
"-20 -211 LINE",
"88 -221 OFFCURVE",
"146 -163 OFFCURVE",
"146 -57 CURVE SMOOTH",
"146 500 LINE",
"116 500 LINE"
);
}
);
width = 253;
},
{
components = (
{
alignment = -1;
name = "i-dot";
transform = "{1, 0, 0, 1, 23, 22}";
}
);
layerId = "D5A55CBB-56DB-4AD9-B643-4353D3BE6F68";
paths = (
{
closed = 1;
nodes = (
"60 0 LINE SMOOTH",
"60 -40 OFFCURVE",
"35 -43 OFFCURVE",
"-20 -40 CURVE",
"-20 -214 LINE",
"128 -224 OFFCURVE",
"240 -141 OFFCURVE",
"240 0 CURVE SMOOTH",
"240 500 LINE",
"60 500 LINE"
);
}
);
width = 304;
}
);
leftKerningGroup = j;
rightKerningGroup = d;
unicode = 006A;
},
{
glyphname = k;
lastChange = "2020-08-30 17:44:37 +0000";
layers = (
{
components = (
{
name = "lowercase-stem";
transform = "{1, 0, 0, 1.4, -214, 0}";
}
);
layerId = "335260E3-B850-4550-8CEC-14CE68ACF16F";
paths = (
{
closed = 1;
nodes = (
"80 166 LINE",
"92 133 LINE",
"433 500 LINE",
"392 500 LINE"
);
},
{
closed = 1;
nodes = (
"211 282 LINE",
"199 249 LINE",
"402 0 LINE",
"443 0 LINE"
);
}
);
width = 498;
},
{
components = (
{
alignment = -1;
name = "lowercase-stem";
transform = "{1, 0, 0, 1.4, -184, 0}";
}
);
layerId = "D5A55CBB-56DB-4AD9-B643-4353D3BE6F68";
paths = (
{
closed = 1;
nodes = (
"87 225 LINE",
"181 69 LINE",
"574 500 LINE",
"323 500 LINE"
);
},
{
closed = 1;
nodes = (
"273 421 LINE",
"180 247 LINE",
"357 0 LINE",
"580 0 LINE"
);
}
);
width = 610;
}
);
leftKerningGroup = b;
rightKerningGroup = k;
unicode = 006B;
},
{
glyphname = l;
lastChange = "2020-08-30 18:06:36 +0000";
layers = (
{
anchors = (
{
name = bottom;
position = "{114, 0}";
},
{
name = left;
position = "{44, 381}";
},
{
name = top;
position = "{81, 700}";
}
);
components = (
{
alignment = -1;
name = "lowercase-stem";
transform = "{1, 0, 0, 1.078, -214, 161}";
}
);
layerId = "335260E3-B850-4550-8CEC-14CE68ACF16F";
paths = (
{
closed = 1;
nodes = (
"120 23 OFFCURVE",
"95 18 OFFCURVE",
"95 54 CURVE SMOOTH",
"95 161 LINE",
"65 161 LINE",
"65 54 LINE SMOOTH",
"65 -16 OFFCURVE",
"129 -6 OFFCURVE",
"157 0 CURVE",
"157 28 LINE"
);
}
);
width = 217;
},
{
anchors = (
{
name = bottom;
position = "{142, 0}";
},
{
name = left;
position = "{20, 394}";
},
{
name = top;
position = "{114, 700}";
}
);
components = (
{
alignment = -1;
name = "lowercase-stem";
transform = "{1, 0, 0, 0.684, -184, 358}";
}
);
layerId = "D5A55CBB-56DB-4AD9-B643-4353D3BE6F68";
paths = (
{
closed = 1;
nodes = (
"215 159 OFFCURVE",
"200 165 OFFCURVE",
"200 193 CURVE",
"200 358 LINE",
"20 358 LINE",
"20 180 LINE",
"20 -6 OFFCURVE",
"109 -22 OFFCURVE",
"265 0 CURVE",
"265 165 LINE"
);
}
);
width = 315;
}
);
leftKerningGroup = b;
rightKerningGroup = l;
unicode = 006C;
},
{
glyphname = m;
lastChange = "2020-08-30 16:45:13 +0000";
layers = (
{
components = (
{
alignment = -1;
name = "lowercase-shortstem";
transform = "{1, 0, 0, 1, -32, 0}";
},
{
alignment = -1;
name = "lowercase-stem";
transform = "{1, 0, 0, 1, -214, 0}";
},
{
alignment = -1;
name = "lowercase-shortstem";
transform = "{1, 0, 0, 1, 341, 0}";
}
);
layerId = "335260E3-B850-4550-8CEC-14CE68ACF16F";
paths = (
{
closed = 1;
nodes = (
"468 475 OFFCURVE",
"333 510 OFFCURVE",
"261 510 CURVE SMOOTH",
"153 510 OFFCURVE",
"84 427 OFFCURVE",
"84 361 CURVE",
"84 270 OFFCURVE",
"86 276 OFFCURVE",
"86 276 CURVE",
"95 278 LINE",
"95 442 OFFCURVE",
"191 480 OFFCURVE",
"261 480 CURVE",
"334 480 OFFCURVE",
"438 445 OFFCURVE",
"438 299 CURVE",
"468 299 LINE"
);
},
{
closed = 1;
nodes = (
"841 475 OFFCURVE",
"706 510 OFFCURVE",
"634 510 CURVE SMOOTH",
"526 510 OFFCURVE",
"457 427 OFFCURVE",
"457 361 CURVE",
"457 270 OFFCURVE",
"459 276 OFFCURVE",
"461 276 CURVE",
"468 278 LINE",
"468 442 OFFCURVE",
"564 480 OFFCURVE",
"634 480 CURVE",
"707 480 OFFCURVE",
"811 445 OFFCURVE",
"811 299 CURVE",
"841 299 LINE"
);
}
);
width = 936;
},
{
components = (
{
alignment = -1;
name = "lowercase-shortstem";
transform = "{1, 0, 0, 1, -2, 0}";
},
{
alignment = -1;
name = "lowercase-stem";
transform = "{1, 0, 0, 1, -184, 0}";
},
{
alignment = -1;
name = "lowercase-shortstem";
transform = "{1, 0, 0, 1, 296, 0}";
}
);
layerId = "D5A55CBB-56DB-4AD9-B643-4353D3BE6F68";
paths = (
{
closed = 1;
nodes = (
"498 475 OFFCURVE",
"375 515 OFFCURVE",
"303 515 CURVE SMOOTH",
"195 515 OFFCURVE",
"116 401 OFFCURVE",
"116 346 CURVE",
"116 255 OFFCURVE",
"118 281 OFFCURVE",
"118 281 CURVE",
"200 281 LINE",
"200 335 OFFCURVE",
"222 359 OFFCURVE",
"256 359 CURVE",
"287 359 OFFCURVE",
"318 343 OFFCURVE",
"318 299 CURVE",
"498 299 LINE"
);
},
{
closed = 1;
nodes = (
"796 475 OFFCURVE",
"673 515 OFFCURVE",
"601 515 CURVE SMOOTH",
"493 515 OFFCURVE",
"414 401 OFFCURVE",
"414 346 CURVE",
"414 255 OFFCURVE",
"416 281 OFFCURVE",
"416 281 CURVE",
"498 281 LINE",
"498 335 OFFCURVE",
"520 359 OFFCURVE",
"554 359 CURVE",
"585 359 OFFCURVE",
"616 343 OFFCURVE",
"616 299 CURVE",
"796 299 LINE"
);
}
);
width = 846;
}
);
leftKerningGroup = m;
rightKerningGroup = h;
unicode = 006D;
},
{
glyphname = eng;
lastChange = "2020-08-30 16:26:18 +0000";
layers = (
{
anchors = (
{
name = top;
position = "{276, 500}";
}
);
components = (
{
alignment = -1;
name = "lowercase-shoulder";
transform = "{1, 0, 0, 1, -23, 0}";
},
{
alignment = -1;
name = "lowercase-shortstem";
transform = "{1, 0, 0, 1, -23, 0}";
},
{
alignment = -1;
name = "lowercase-stem";
transform = "{1, 0, 0, 1, -214, 0}";
}
);
layerId = "335260E3-B850-4550-8CEC-14CE68ACF16F";
paths = (
{
closed = 1;
nodes = (
"447 -55 LINE SMOOTH",
"447 -144 OFFCURVE",
"407 -192 OFFCURVE",
"311 -181 CURVE",
"311 -209 LINE",
"419 -219 OFFCURVE",
"477 -161 OFFCURVE",
"477 -55 CURVE SMOOTH",
"477 2 LINE",
"447 2 LINE"
);
}
);
width = 572;
},
{
anchors = (
{
name = top;
position = "{268, 500}";
}
);
components = (
{
alignment = -1;
name = "lowercase-shoulder";
transform = "{1, 0, 0, 1, -2, 5}";
},
{
alignment = -1;
name = "lowercase-shortstem";
transform = "{1, 0, 0, 1, -2, 0}";
},
{
alignment = -1;
name = "lowercase-stem";
transform = "{1, 0, 0, 1, -184, 0}";
}
);
layerId = "D5A55CBB-56DB-4AD9-B643-4353D3BE6F68";
paths = (
{
closed = 1;
nodes = (
"318 0 LINE SMOOTH",
"318 -40 OFFCURVE",
"293 -43 OFFCURVE",
"238 -40 CURVE",
"238 -214 LINE",
"386 -224 OFFCURVE",
"498 -141 OFFCURVE",
"498 0 CURVE SMOOTH",
"498 80 LINE",
"318 80 LINE"
);
}
);
width = 548;
}
);
leftKerningGroup = m;
rightKerningGroup = h;
unicode = 014B;
},
{
glyphname = o;
lastChange = "2020-12-22 11:25:09 +0000";
layers = (
{
anchors = (
{
name = middleslash;
position = "{304, 250}";
},
{
name = top;
position = "{305, 509}";
}
);
layerId = "335260E3-B850-4550-8CEC-14CE68ACF16F";
paths = (
{
closed = 1;
nodes = (
"448 -10 OFFCURVE",
"564 106 OFFCURVE",
"564 250 CURVE SMOOTH",
"564 393 OFFCURVE",
"448 509 OFFCURVE",
"305 509 CURVE SMOOTH",
"161 509 OFFCURVE",
"45 393 OFFCURVE",
"45 250 CURVE SMOOTH",
"45 106 OFFCURVE",
"161 -10 OFFCURVE",
"305 -10 CURVE SMOOTH"
);
},
{
closed = 1;
nodes = (
"177 20 OFFCURVE",
"74 123 OFFCURVE",
"74 250 CURVE SMOOTH",
"74 377 OFFCURVE",
"177 480 OFFCURVE",
"304 480 CURVE SMOOTH",
"431 480 OFFCURVE",
"534 377 OFFCURVE",
"534 250 CURVE SMOOTH",
"534 123 OFFCURVE",
"431 20 OFFCURVE",
"304 20 CURVE SMOOTH"
);
}
);
width = 639;
},
{
anchors = (
{
name = middleslash;
position = "{285, 248}";
},
{
name = top;
position = "{285, 514}";
}
);
layerId = "D5A55CBB-56DB-4AD9-B643-4353D3BE6F68";
paths = (
{
closed = 1;
nodes = (
"431 -16 OFFCURVE",
"550 103 OFFCURVE",
"550 249 CURVE SMOOTH",
"550 395 OFFCURVE",
"431 514 OFFCURVE",
"285 514 CURVE SMOOTH",
"139 514 OFFCURVE",
"20 395 OFFCURVE",
"20 249 CURVE SMOOTH",
"20 103 OFFCURVE",
"139 -16 OFFCURVE",
"285 -16 CURVE"
);
},
{
closed = 1;
nodes = (
"238 164 OFFCURVE",
"200 202 OFFCURVE",
"200 249 CURVE SMOOTH",
"200 296 OFFCURVE",
"238 334 OFFCURVE",
"285 334 CURVE SMOOTH",
"332 334 OFFCURVE",
"370 296 OFFCURVE",
"370 249 CURVE SMOOTH",
"370 202 OFFCURVE",
"332 164 OFFCURVE",
"285 164 CURVE SMOOTH"
);
}
);
width = 600;
}
);
leftKerningGroup = o;
rightKerningGroup = o;
unicode = 006F;
},
{
glyphname = oe;
lastChange = "2020-08-30 05:15:41 +0000";
layers = (
{
anchors = (
{
name = top;
position = "{758, 511}";
}
);
layerId = "335260E3-B850-4550-8CEC-14CE68ACF16F";
paths = (
{
closed = 1;
nodes = (
"523 393 OFFCURVE",
"421 509 OFFCURVE",
"281 509 CURVE",
"140 509 OFFCURVE",
"45 393 OFFCURVE",
"45 249 CURVE",
"45 105 OFFCURVE",
"140 -11 OFFCURVE",
"281 -11 CURVE",
"421 -11 OFFCURVE",
"523 105 OFFCURVE",
"523 249 CURVE"
);
},
{
closed = 1;
nodes = (
"156 19 OFFCURVE",
"75 123 OFFCURVE",
"75 249 CURVE",
"75 375 OFFCURVE",
"156 479 OFFCURVE",
"281 479 CURVE SMOOTH",
"406 479 OFFCURVE",
"496 378 OFFCURVE",
"496 249 CURVE SMOOTH",
"496 120 OFFCURVE",
"406 19 OFFCURVE",
"281 19 CURVE SMOOTH"
);
},
{
closed = 1;
nodes = (
"572 511 OFFCURVE",
"496 397 OFFCURVE",
"496 250 CURVE SMOOTH",
"496 99 OFFCURVE",
"575 -11 OFFCURVE",
"729 -11 CURVE SMOOTH",
"828 -11 OFFCURVE",
"876 34 OFFCURVE",
"917 102 CURVE",
"890 118 LINE",
"861 65 OFFCURVE",
"812 19 OFFCURVE",
"730 19 CURVE SMOOTH",
"591 19 OFFCURVE",
"530 120 OFFCURVE",
"528 233 CURVE",
"941 233 LINE",
"941 241 OFFCURVE",
"942 240 OFFCURVE",
"942 248 CURVE SMOOTH",
"942 385 OFFCURVE",
"877 511 OFFCURVE",
"725 511 CURVE SMOOTH"
);
},
{
closed = 1;
nodes = (
"528 374 OFFCURVE",
"588 481 OFFCURVE",
"725 481 CURVE SMOOTH",
"852 481 OFFCURVE",
"898 397 OFFCURVE",
"912 263 CURVE",
"528 263 LINE"
);
}
);
width = 1012;
},
{
anchors = (
{
name = top;
position = "{667, 514}";
}
);
layerId = "D5A55CBB-56DB-4AD9-B643-4353D3BE6F68";
paths = (
{
closed = 1;
nodes = (
"544 354 OFFCURVE",
"447 515 OFFCURVE",
"295 515 CURVE",
"133 515 OFFCURVE",
"20 403 OFFCURVE",
"20 249 CURVE",
"20 96 OFFCURVE",
"133 -15 OFFCURVE",
"295 -15 CURVE",
"447 -15 OFFCURVE",
"544 144 OFFCURVE",
"544 249 CURVE"
);
},
{
closed = 1;
nodes = (
"243 151 OFFCURVE",
"196 195 OFFCURVE",
"196 249 CURVE",
"196 302 OFFCURVE",
"243 346 OFFCURVE",
"294 346 CURVE SMOOTH",
"351 346 OFFCURVE",
"397 309 OFFCURVE",
"397 251 CURVE SMOOTH",
"397 192 OFFCURVE",
"351 151 OFFCURVE",
"294 151 CURVE SMOOTH"
);
},
{
closed = 1;
nodes = (
"479 514 OFFCURVE",
"401 399 OFFCURVE",
"401 250 CURVE SMOOTH",
"401 101 OFFCURVE",
"477 -14 OFFCURVE",
"648 -14 CURVE SMOOTH",
"743 -14 OFFCURVE",
"807 21 OFFCURVE",
"856 89 CURVE",
"730 169 LINE",
"710 147 OFFCURVE",
"679 138 OFFCURVE",
"651 138 CURVE SMOOTH",
"611 138 OFFCURVE",
"576 149 OFFCURVE",
"550 188 CURVE",
"865 188 LINE",
"869 207 OFFCURVE",
"871 229 OFFCURVE",
"871 250 CURVE SMOOTH",
"871 401 OFFCURVE",
"783 514 OFFCURVE",
"637 514 CURVE SMOOTH"
);
},
{
closed = 1;
nodes = (
"549 347 OFFCURVE",
"593 360 OFFCURVE",
"634 360 CURVE SMOOTH",
"674 360 OFFCURVE",
"715 349 OFFCURVE",
"722 325 CURVE",
"547 325 LINE"
);
}
);
width = 921;
}
);
leftKerningGroup = o;
leftMetricsKey = o;
rightKerningGroup = o;
rightMetricsKey = e;
unicode = 0153;
},
{
glyphname = q;
lastChange = "2020-08-30 16:48:54 +0000";
layers = (
{
components = (
{
alignment = -1;
name = "lowercase-aloop";
transform = "{1, 0, 0, -1, 27, 499}";
}
);
layerId = "335260E3-B850-4550-8CEC-14CE68ACF16F";
paths = (
{
closed = 1;
nodes = (
"534 500 LINE",
"504 500 LINE",
"504 -200 LINE",
"534 -190 LINE"
);
}
);
width = 629;
},
{
components = (
{
alignment = -1;
name = "lowercase-aloop";
transform = "{1, 0, 0, -1, -8, 499}";
}
);
layerId = "D5A55CBB-56DB-4AD9-B643-4353D3BE6F68";
paths = (
{
closed = 1;
nodes = (
"557 500 LINE",
"377 500 LINE",
"377 -200 LINE",
"557 -160 LINE"
);
}
);
width = 607;
}
);
leftKerningGroup = o;
rightKerningGroup = q;
unicode = 0071;
},
{
glyphname = r;
lastChange = "2020-08-30 18:14:09 +0000";
layers = (
{
anchors = (
{
name = bottom;
position = "{76, 0}";
},
{
name = top;
position = "{161, 500}";
}
);
components = (
{
alignment = -1;
name = "lowercase-stem";
transform = "{1, 0, 0, 1, -219, 0}";
}
);
layerId = "335260E3-B850-4550-8CEC-14CE68ACF16F";
paths = (
{
closed = 1;
nodes = (
"273 499 LINE",
"266 500 OFFCURVE",
"259 500 OFFCURVE",
"253 500 CURVE SMOOTH",
"145 500 OFFCURVE",
"81 431 OFFCURVE",
"81 361 CURVE",
"81 270 OFFCURVE",
"83 276 OFFCURVE",
"83 276 CURVE",
"90 303 LINE",
"90 437 OFFCURVE",
"178 470 OFFCURVE",
"253 470 CURVE",
"258 470 OFFCURVE",
"263 470 OFFCURVE",
"268 469 CURVE"
);
}
);
width = 328;
},
{
anchors = (
{
name = bottom;
position = "{114, 0}";
},
{
name = top;
position = "{200, 500}";
}
);
components = (
{
alignment = -1;
name = "lowercase-stem";
transform = "{1, 0, 0, 1, -184, 0}";
}
);
layerId = "D5A55CBB-56DB-4AD9-B643-4353D3BE6F68";
paths = (
{
closed = 1;
nodes = (
"367 500 LINE",
"362 500 OFFCURVE",
"357 500 OFFCURVE",
"353 500 CURVE SMOOTH",
"245 500 OFFCURVE",
"189 421 OFFCURVE",
"189 366 CURVE",
"189 275 OFFCURVE",
"168 266 OFFCURVE",
"168 266 CURVE",
"200 226 LINE",
"200 280 OFFCURVE",
"246 334 OFFCURVE",
"330 334 CURVE",
"339 334 OFFCURVE",
"348 333 OFFCURVE",
"356 330 CURVE"
);
}
);
width = 402;
}
);
leftKerningGroup = m;
rightKerningGroup = r;
unicode = 0072;
},
{
glyphname = s;
lastChange = "2020-12-22 11:23:35 +0000";
layers = (
{
anchors = (
{
name = bottom;
position = "{235, -11}";
},
{
name = top;
position = "{231, 511}";
}
);
layerId = "335260E3-B850-4550-8CEC-14CE68ACF16F";
paths = (
{
closed = 1;
nodes = (
"91 436 OFFCURVE",
"144 481 OFFCURVE",
"231 481 CURVE SMOOTH",
"301 481 OFFCURVE",
"354 449 OFFCURVE",
"375 397 CURVE",
"401 411 LINE",
"374 472 OFFCURVE",
"312 511 OFFCURVE",
"231 511 CURVE SMOOTH",
"129 511 OFFCURVE",
"61 448 OFFCURVE",
"61 369 CURVE SMOOTH",
"61 198 OFFCURVE",
"384 281 OFFCURVE",
"384 131 CURVE SMOOTH",
"384 59 OFFCURVE",
"312 19 OFFCURVE",
"235 19 CURVE SMOOTH",
"160 19 OFFCURVE",
"97 49 OFFCURVE",
"72 115 CURVE",
"45 100 LINE",
"69 36 OFFCURVE",
"135 -11 OFFCURVE",
"235 -11 CURVE SMOOTH",
"342 -11 OFFCURVE",
"414 49 OFFCURVE",
"414 131 CURVE SMOOTH",
"414 311 OFFCURVE",
"91 236 OFFCURVE",
"91 369 CURVE SMOOTH"
);
}
);
width = 489;
},
{
anchors = (
{
name = bottom;
position = "{250, -14}";
},
{
name = top;
position = "{254, 514}";
}
);
layerId = "D5A55CBB-56DB-4AD9-B643-4353D3BE6F68";
paths = (
{
closed = 1;
nodes = (
"216 367 OFFCURVE",
"232 373 OFFCURVE",
"254 373 CURVE SMOOTH",
"290 373 OFFCURVE",
"306 361 OFFCURVE",
"321 335 CURVE",
"467 407 LINE",
"422 478 OFFCURVE",
"343 514 OFFCURVE",
"254 514 CURVE SMOOTH",
"141 514 OFFCURVE",
"35 457 OFFCURVE",
"35 348 CURVE SMOOTH",
"35 163 OFFCURVE",
"313 202 OFFCURVE",
"313 153 CURVE SMOOTH",
"313 133 OFFCURVE",
"279 127 OFFCURVE",
"250 127 CURVE SMOOTH",
"206 127 OFFCURVE",
"176 142 OFFCURVE",
"161 180 CURVE",
"15 105 LINE",
"58 24 OFFCURVE",
"141 -14 OFFCURVE",
"250 -14 CURVE SMOOTH",
"368 -14 OFFCURVE",
"487 39 OFFCURVE",
"487 154 CURVE SMOOTH",
"487 361 OFFCURVE",
"216 306 OFFCURVE",
"216 354 CURVE SMOOTH"
);
}
);
width = 537;
}
);
leftKerningGroup = s;
rightKerningGroup = s;
unicode = 0073;
},
{
glyphname = germandbls;
lastChange = "2020-09-11 20:11:56 +0000";
layers = (
{
layerId = "335260E3-B850-4550-8CEC-14CE68ACF16F";
paths = (
{
closed = 1;
nodes = (
"185 347 LINE",
"249 347 LINE",
"355 347 OFFCURVE",
"420 413 OFFCURVE",
"421 525 CURVE SMOOTH",
"421 632 OFFCURVE",
"356 700 OFFCURVE",
"249 700 CURVE SMOOTH",
"139 701 OFFCURVE",
"69 635 OFFCURVE",
"65 525 CURVE",
"95 525 LINE",
"99 616 OFFCURVE",
"157 671 OFFCURVE",
"248 670 CURVE SMOOTH",
"337 670 OFFCURVE",
"391 613 OFFCURVE",
"391 525 CURVE SMOOTH",
"391 433 OFFCURVE",
"337 379 OFFCURVE",
"250 377 CURVE",
"185 377 LINE"
);
},
{
closed = 1;
nodes = (
"185 0 LINE",
"267 0 LINE",
"380 1 OFFCURVE",
"460 79 OFFCURVE",
"457 185 CURVE SMOOTH",
"456 298 OFFCURVE",
"369 379 OFFCURVE",
"249 377 CURVE",
"249 347 LINE",
"350 347 OFFCURVE",
"425 279 OFFCURVE",
"427 185 CURVE SMOOTH",
"428 97 OFFCURVE",
"361 32 OFFCURVE",
"267 30 CURVE",
"185 30 LINE"
);
},
{
closed = 1;
nodes = (
"65 0 LINE",
"95 0 LINE",
"95 525 LINE",
"65 525 LINE"
);
}
);
width = 532;
},
{
layerId = "D5A55CBB-56DB-4AD9-B643-4353D3BE6F68";
paths = (
{
closed = 1;
nodes = (
"248 267 LINE",
"284 267 LINE",
"399 267 OFFCURVE",
"483 357 OFFCURVE",
"484 481 CURVE SMOOTH",
"484 608 OFFCURVE",
"400 700 OFFCURVE",
"284 700 CURVE SMOOTH",
"106 701 OFFCURVE",
"26 634 OFFCURVE",
"20 477 CURVE",
"210 477 LINE",
"210 508 OFFCURVE",
"236 530 OFFCURVE",
"271 530 CURVE SMOOTH",
"302 530 OFFCURVE",
"324 509 OFFCURVE",
"324 481 CURVE SMOOTH",
"324 455 OFFCURVE",
"308 437 OFFCURVE",
"285 437 CURVE",
"248 437 LINE"
);
},
{
closed = 1;
nodes = (
"248 0 LINE",
"292 0 LINE",
"439 1 OFFCURVE",
"527 85 OFFCURVE",
"522 222 CURVE SMOOTH",
"521 349 OFFCURVE",
"421 439 OFFCURVE",
"284 437 CURVE",
"284 267 LINE",
"334 267 OFFCURVE",
"361 252 OFFCURVE",
"362 222 CURVE SMOOTH",
"362 195 OFFCURVE",
"338 181 OFFCURVE",
"292 180 CURVE",
"248 180 LINE"
);
},
{
closed = 1;
nodes = (
"20 0 LINE",
"210 0 LINE",
"210 477 LINE",
"20 477 LINE"
);
}
);
width = 572;
}
);
leftKerningGroup = H;
rightKerningGroup = B;
unicode = 00DF;
},
{
glyphname = t;
lastChange = "2020-08-30 16:26:44 +0000";
layers = (
{
anchors = (
{
name = bottom;
position = "{258, 0}";
},
{
name = left;
position = "{178, 343}";
},
{
name = top;
position = "{172, 648}";
}
);
components = (
{
alignment = -1;
name = "lowercase-thook";
transform = "{1, 0, 0, 1, 85, 0}";
},
{
name = "lowercase-tcross";
transform = "{1, 0, 0, 1, -149, 0}";
}
);
layerId = "335260E3-B850-4550-8CEC-14CE68ACF16F";
paths = (
{
closed = 1;
nodes = (
"159 156 LINE",
"189 156 LINE",
"189 670 LINE",
"159 657 LINE"
);
}
);
width = 406;
},
{
anchors = (
{
name = bottom;
position = "{230, 0}";
},
{
name = left;
position = "{176, 278}";
},
{
name = top;
position = "{173, 633}";
}
);
components = (
{
alignment = -1;
name = "lowercase-thook";
transform = "{1, 0, 0, 1, 76, 0}";
},
{
alignment = -1;
name = "lowercase-tcross";
transform = "{1, 0, 0, 1, -129, 0}";
}
);
layerId = "D5A55CBB-56DB-4AD9-B643-4353D3BE6F68";
paths = (
{
closed = 1;
nodes = (
"76 286 LINE",
"256 286 LINE",
"256 662 LINE",
"76 602 LINE"
);
}
);
width = 401;
}
);
leftKerningGroup = f;
rightKerningGroup = f;
unicode = 0074;
},
{
glyphname = v;
lastChange = "2020-08-30 18:24:21 +0000";
layers = (
{
layerId = "335260E3-B850-4550-8CEC-14CE68ACF16F";
paths = (
{
closed = 1;
nodes = (
"226 0 LINE",
"259 0 LINE",
"48 500 LINE",
"15 500 LINE"
);
},
{
closed = 1;
nodes = (
"444 500 LINE",
"233 0 LINE",
"266 0 LINE",
"477 500 LINE"
);
}
);
width = 522;
},
{
layerId = "D5A55CBB-56DB-4AD9-B643-4353D3BE6F68";
paths = (
{
closed = 1;
nodes = (
"172 0 LINE",
"363 0 LINE",
"190 500 LINE",
"0 500 LINE"
);
},
{
closed = 1;
nodes = (
"372 500 LINE",
"199 0 LINE",
"390 0 LINE",
"562 500 LINE"
);
}
);
width = 592;
}
);
leftKerningGroup = v;
rightKerningGroup = v;
unicode = 0076;
},
{
glyphname = w;
lastChange = "2020-09-13 01:02:12 +0000";
layers = (
{
anchors = (
{
name = top;
position = "{368, 500}";
}
);
layerId = "335260E3-B850-4550-8CEC-14CE68ACF16F";
paths = (
{
closed = 1;
nodes = (
"186 0 LINE",
"215 0 LINE",
"64 500 LINE",
"33 500 LINE"
);
},
{
closed = 1;
nodes = (
"193 0 LINE",
"221 0 LINE",
"382 500 LINE",
"350 500 LINE"
);
},
{
closed = 1;
nodes = (
"684 500 LINE",
"522 0 LINE",
"554 0 LINE",
"716 500 LINE"
);
},
{
closed = 1;
nodes = (
"354 500 LINE",
"517 0 LINE",
"549 0 LINE",
"386 500 LINE"
);
}
);
width = 779;
},
{
anchors = (
{
name = top;
position = "{390, 500}";
}
);
layerId = "D5A55CBB-56DB-4AD9-B643-4353D3BE6F68";
paths = (
{
closed = 1;
nodes = (
"162 0 LINE",
"336 0 LINE",
"189 500 LINE",
"0 500 LINE"
);
},
{
closed = 1;
nodes = (
"161 0 LINE",
"335 0 LINE",
"491 500 LINE",
"302 500 LINE"
);
},
{
closed = 1;
nodes = (
"605 500 LINE",
"458 0 LINE",
"632 0 LINE",
"794 500 LINE"
);
},
{
closed = 1;
nodes = (
"302 500 LINE",
"458 0 LINE",
"632 0 LINE",
"491 500 LINE"
);
}
);
width = 824;
}
);
leftKerningGroup = v;
rightKerningGroup = v;
unicode = 0077;
},
{
glyphname = x;
lastChange = "2020-08-30 17:53:38 +0000";
layers = (
{
layerId = "335260E3-B850-4550-8CEC-14CE68ACF16F";
paths = (
{
closed = 1;
nodes = (
"25 0 LINE",
"62 0 LINE",
"453 500 LINE",
"414 500 LINE"
);
},
{
closed = 1;
nodes = (
"25 500 LINE",
"416 0 LINE",
"453 0 LINE",
"64 500 LINE"
);
}
);
width = 508;
},
{
layerId = "D5A55CBB-56DB-4AD9-B643-4353D3BE6F68";
paths = (
{
closed = 1;
nodes = (
"0 0 LINE",
"221 -1 LINE",
"569 500 LINE",
"350 500 LINE"
);
},
{
closed = 1;
nodes = (
"0 500 LINE",
"348 -1 LINE",
"569 0 LINE",
"219 500 LINE"
);
}
);
width = 599;
}
);
leftKerningGroup = x;
rightKerningGroup = k;
unicode = 0078;
},
{
glyphname = y;
lastChange = "2020-08-30 18:24:33 +0000";
layers = (
{
anchors = (
{
name = top;
position = "{262, 500}";
}
);
layerId = "335260E3-B850-4550-8CEC-14CE68ACF16F";
paths = (
{
closed = 1;
nodes = (
"239 -32 LINE",
"267 -43 LINE",
"478 500 LINE",
"446 500 LINE"
);
},
{
closed = 1;
nodes = (
"15 500 LINE",
"262 -22 LINE",
"284 5 LINE",
"48 500 LINE"
);
},
{
closed = 1;
nodes = (
"209 -105 OFFCURVE",
"153 -177 OFFCURVE",
"73 -171 CURVE",
"73 -200 LINE",
"159 -207 OFFCURVE",
"227 -139 OFFCURVE",
"267 -43 CURVE",
"239 -32 LINE"
);
}
);
width = 523;
},
{
anchors = (
{
name = top;
position = "{288, 500}";
}
);
layerId = "D5A55CBB-56DB-4AD9-B643-4353D3BE6F68";
paths = (
{
closed = 1;
nodes = (
"232 80 LINE",
"403 24 LINE",
"557 500 LINE",
"368 500 LINE"
);
},
{
closed = 1;
nodes = (
"0 500 LINE",
"211 23 LINE",
"378 90 LINE",
"194 500 LINE"
);
},
{
closed = 1;
nodes = (
"210 19 OFFCURVE",
"177 -37 OFFCURVE",
"89 -26 CURVE",
"89 -200 LINE",
"237 -211 OFFCURVE",
"343 -135 OFFCURVE",
"403 24 CURVE",
"232 80 LINE"
);
}
);
width = 586;
}
);
leftKerningGroup = y;
rightKerningGroup = y;
unicode = 0079;
},
{
glyphname = z;
lastChange = "2020-08-30 16:57:22 +0000";
layers = (
{
anchors = (
{
name = top;
position = "{268, 500}";
}
);
layerId = "335260E3-B850-4550-8CEC-14CE68ACF16F";
paths = (
{
closed = 1;
nodes = (
"65 500 LINE",
"65 470 LINE",
"405 470 LINE",
"445 480 LINE",
"445 500 LINE"
);
},
{
closed = 1;
nodes = (
"70 30 LINE",
"55 20 LINE",
"55 0 LINE",
"455 0 LINE",
"455 30 LINE"
);
},
{
closed = 1;
nodes = (
"55 20 LINE",
"80 3 LINE",
"445 479 LINE",
"420 496 LINE"
);
}
);
width = 530;
},
{
anchors = (
{
name = top;
position = "{225, 500}";
}
);
layerId = "D5A55CBB-56DB-4AD9-B643-4353D3BE6F68";
paths = (
{
closed = 1;
nodes = (
"30 500 LINE",
"30 330 LINE",
"340 330 LINE",
"410 384 LINE",
"410 500 LINE"
);
},
{
closed = 1;
nodes = (
"105 170 LINE",
"20 116 LINE",
"20 0 LINE",
"420 0 LINE",
"420 170 LINE"
);
},
{
closed = 1;
nodes = (
"20 116 LINE",
"155 14 LINE",
"410 384 LINE",
"258 452 LINE"
);
}
);
width = 470;
}
);
leftKerningGroup = s;
rightKerningGroup = s;
unicode = 007A;
},
{
glyphname = a.ss01;
lastChange = "2020-09-11 21:47:14 +0000";
layers = (
{
layerId = "335260E3-B850-4550-8CEC-14CE68ACF16F";
paths = (
{
closed = 1;
nodes = (
"447 446 OFFCURVE",
"370 510 OFFCURVE",
"245 510 CURVE SMOOTH",
"177 510 OFFCURVE",
"103 470 OFFCURVE",
"65 404 CURVE",
"87 389 LINE",
"125 445 OFFCURVE",
"187 480 OFFCURVE",
"245 480 CURVE SMOOTH",
"352 480 OFFCURVE",
"417 428 OFFCURVE",
"417 342 CURVE",
"447 342 LINE"
);
},
{
closed = 1;
nodes = (
"440 264 OFFCURVE",
"435 328 OFFCURVE",
"427 316 CURVE SMOOTH",
"416 293 OFFCURVE",
"340 279 OFFCURVE",
"226 279 CURVE",
"111 279 OFFCURVE",
"42 225 OFFCURVE",
"45 138 CURVE",
"45 42 OFFCURVE",
"124 -14 OFFCURVE",
"252 -11 CURVE",
"369 -11 OFFCURVE",
"440 49 OFFCURVE",
"440 148 CURVE"
);
},
{
closed = 1;
nodes = (
"138 19 OFFCURVE",
"75 61 OFFCURVE",
"75 138 CURVE",
"75 210 OFFCURVE",
"127 249 OFFCURVE",
"233 249 CURVE SMOOTH",
"338 249 OFFCURVE",
"412 264 OFFCURVE",
"429 288 CURVE SMOOTH",
"422 271 OFFCURVE",
"417 218 OFFCURVE",
"417 148 CURVE SMOOTH",
"417 68 OFFCURVE",
"354 19 OFFCURVE",
"252 19 CURVE SMOOTH"
);
},
{
closed = 1;
nodes = (
"417 0 LINE",
"447 0 LINE",
"447 342 LINE",
"417 342 LINE"
);
}
);
width = 542;
},
{
layerId = "D5A55CBB-56DB-4AD9-B643-4353D3BE6F68";
paths = (
{
closed = 1;
nodes = (
"547 458 OFFCURVE",
"444 517 OFFCURVE",
"315 517 CURVE SMOOTH",
"183 517 OFFCURVE",
"98 481 OFFCURVE",
"47 460 CURVE",
"117 325 LINE",
"162 343 OFFCURVE",
"221 367 OFFCURVE",
"288 367 CURVE SMOOTH",
"343 367 OFFCURVE",
"368 341 OFFCURVE",
"368 321 CURVE",
"548 341 LINE"
);
},
{
closed = 1;
nodes = (
"461 198 OFFCURVE",
"457 285 OFFCURVE",
"368 297 CURVE SMOOTH",
"331 302 OFFCURVE",
"275 310 OFFCURVE",
"229 310 CURVE",
"67 310 OFFCURVE",
"20 248 OFFCURVE",
"20 151 CURVE",
"20 55 OFFCURVE",
"66 -14 OFFCURVE",
"228 -14 CURVE",
"380 -14 OFFCURVE",
"461 86 OFFCURVE",
"461 151 CURVE"
);
},
{
closed = 1;
nodes = (
"237 121 OFFCURVE",
"199 127 OFFCURVE",
"199 153 CURVE",
"199 193 OFFCURVE",
"227 193 OFFCURVE",
"286 193 CURVE SMOOTH",
"325 193 OFFCURVE",
"358 193 OFFCURVE",
"368 193 CURVE SMOOTH",
"375 193 OFFCURVE",
"368 185 OFFCURVE",
"368 171 CURVE SMOOTH",
"368 141 OFFCURVE",
"326 121 OFFCURVE",
"283 121 CURVE SMOOTH"
);
},
{
closed = 1;
nodes = (
"368 1 LINE",
"548 1 LINE",
"548 341 LINE",
"368 341 LINE"
);
}
);
width = 598;
}
);
leftKerningGroup = o;
rightKerningGroup = a;
},
{
glyphname = b.ss01;
lastChange = "2020-09-11 21:50:10 +0000";
layers = (
{
components = (
{
alignment = -1;
name = "lowercase-aloop";
transform = "{-1, 0, 0, 1, 572, 0}";
}
);
layerId = "335260E3-B850-4550-8CEC-14CE68ACF16F";
paths = (
{
closed = 1;
nodes = (
"65 0 LINE",
"95 0 LINE",
"95 670 LINE",
"65 660 LINE"
);
}
);
width = 647;
},
{
components = (
{
alignment = -1;
name = "lowercase-aloop";
transform = "{-1, 0, 0, 1, 588, 0}";
}
);
layerId = "D5A55CBB-56DB-4AD9-B643-4353D3BE6F68";
paths = (
{
closed = 1;
nodes = (
"20 0 LINE",
"200 0 LINE",
"200 657 LINE",
"20 627 LINE"
);
}
);
width = 610;
}
);
leftKerningGroup = b;
leftMetricsKey = b;
rightKerningGroup = o;
rightMetricsKey = b;
},
{
glyphname = d.ss01;
lastChange = "2020-09-11 21:51:15 +0000";
layers = (
{
components = (
{
alignment = -1;
name = "lowercase-aloop";
transform = "{1, 0, 0, 1, 27, 0}";
}
);
layerId = "335260E3-B850-4550-8CEC-14CE68ACF16F";
paths = (
{
closed = 1;
nodes = (
"504 660 LINE",
"504 0 LINE",
"534 0 LINE",
"534 670 LINE"
);
}
);
width = 629;
},
{
components = (
{
alignment = -1;
name = "lowercase-aloop";
transform = "{1, 0, 0, 1, -8, 0}";
}
);
layerId = "D5A55CBB-56DB-4AD9-B643-4353D3BE6F68";
paths = (
{
closed = 1;
nodes = (
"377 622 LINE",
"377 0 LINE",
"557 0 LINE",
"557 662 LINE"
);
}
);
width = 607;
}
);
leftKerningGroup = o;
leftMetricsKey = d;
rightKerningGroup = d;
rightMetricsKey = d;
},
{
glyphname = h.ss01;
lastChange = "2020-09-11 21:50:36 +0000";
layers = (
{
components = (
{
name = "lowercase-shoulder";
transform = "{1, 0, 0, 1, -32, 0}";
},
{
name = "lowercase-shortstem";
transform = "{1, 0, 0, 1, -32, 0}";
}
);
layerId = "335260E3-B850-4550-8CEC-14CE68ACF16F";
paths = (
{
closed = 1;
nodes = (
"65 0 LINE",
"95 0 LINE",
"95 670 LINE",
"65 660 LINE"
);
}
);
width = 563;
},
{
components = (
{
alignment = -1;
name = "lowercase-shoulder";
transform = "{1, 0, 0, 1, -2, 0}";
},
{
alignment = -1;
name = "lowercase-shortstem";
transform = "{1, 0, 0, 1, -2, 0}";
}
);
layerId = "D5A55CBB-56DB-4AD9-B643-4353D3BE6F68";
paths = (
{
closed = 1;
nodes = (
"20 0 LINE",
"200 0 LINE",
"200 660 LINE",
"20 620 LINE"
);
}
);
width = 548;
}
);
leftKerningGroup = b;
leftMetricsKey = h;
rightKerningGroup = h;
rightMetricsKey = h;
},
{
glyphname = i.ss01;
lastChange = "2020-09-13 13:20:13 +0000";
layers = (
{
layerId = "335260E3-B850-4550-8CEC-14CE68ACF16F";
paths = (
{
closed = 1;
nodes = (
"60 0 LINE",
"90 0 LINE",
"90 500 LINE",
"60 494 LINE"
);
},
{
closed = 1;
nodes = (
"90 700 LINE",
"60 700 LINE",
"60 640 LINE",
"90 646 LINE"
);
}
);
width = 182;
},
{
layerId = "D5A55CBB-56DB-4AD9-B643-4353D3BE6F68";
paths = (
{
closed = 1;
nodes = (
"35 0 LINE",
"215 0 LINE",
"215 505 LINE",
"35 469 LINE"
);
},
{
closed = 1;
nodes = (
"215 700 LINE",
"35 700 LINE",
"35 528 LINE",
"215 564 LINE"
);
}
);
width = 280;
}
);
leftKerningGroup = b;
leftMetricsKey = i;
rightKerningGroup = d;
rightMetricsKey = i;
},
{
glyphname = t.ss01;
lastChange = "2020-09-12 23:02:25 +0000";
layers = (
{
components = (
{
name = "lowercase-tcross";
transform = "{0.55921, 0, 0, 1, -32, 0}";
}
);
layerId = "335260E3-B850-4550-8CEC-14CE68ACF16F";
paths = (
{
closed = 1;
nodes = (
"65 156 LINE",
"95 156 LINE",
"95 670 LINE",
"65 657 LINE"
);
},
{
closed = 1;
nodes = (
"134 15 OFFCURVE",
"95 24 OFFCURVE",
"95 134 CURVE SMOOTH",
"95 161 LINE",
"65 161 LINE",
"65 134 LINE SMOOTH",
"65 34 OFFCURVE",
"98 -1 OFFCURVE",
"166 -5 CURVE SMOOTH",
"186 -6 OFFCURVE",
"210 -4 OFFCURVE",
"237 0 CURVE",
"237 28 LINE"
);
}
);
width = 312;
},
{
components = (
{
alignment = -1;
name = "lowercase-tcross";
transform = "{0.7936, 0, 0, 1, -86, 0}";
}
);
layerId = "D5A55CBB-56DB-4AD9-B643-4353D3BE6F68";
paths = (
{
closed = 1;
nodes = (
"20 286 LINE",
"200 286 LINE",
"200 660 LINE",
"20 624 LINE"
);
},
{
closed = 1;
nodes = (
"265 157 OFFCURVE",
"200 159 OFFCURVE",
"200 196 CURVE",
"200 358 LINE",
"20 358 LINE",
"20 180 LINE",
"21 31 OFFCURVE",
"119 0 OFFCURVE",
"204 0 CURVE SMOOTH",
"230 0 OFFCURVE",
"336 0 OFFCURVE",
"361 0 CURVE",
"321 165 LINE"
);
}
);
width = 411;
}
);
leftMetricsKey = l;
rightKerningGroup = f;
rightMetricsKey = t;
},
{
glyphname = mu;
lastChange = "2020-09-13 01:58:32 +0000";
layers = (
{
layerId = "335260E3-B850-4550-8CEC-14CE68ACF16F";
paths = (
{
closed = 1;
nodes = (
"166 -49 OFFCURVE",
"326 -24 OFFCURVE",
"412 74 CURVE",
"418 6 OFFCURVE",
"453 -18 OFFCURVE",
"517 -10 CURVE",
"514 17 LINE",
"467 8 OFFCURVE",
"442 29 OFFCURVE",
"442 85 CURVE SMOOTH",
"442 483 LINE",
"412 483 LINE",
"412 103 LINE",
"377 54 OFFCURVE",
"306 13 OFFCURVE",
"243 13 CURVE SMOOTH",
"158 13 OFFCURVE",
"116 57 OFFCURVE",
"116 144 CURVE SMOOTH",
"116 483 LINE",
"86 483 LINE",
"86 -184 LINE",
"116 -184 LINE",
"116 53 LINE"
);
}
);
width = 542;
},
{
layerId = "D5A55CBB-56DB-4AD9-B643-4353D3BE6F68";
paths = (
{
closed = 1;
nodes = (
"303 -7 OFFCURVE",
"350 25 OFFCURVE",
"376 54 CURVE",
"376 36 OFFCURVE",
"376 18 OFFCURVE",
"376 0 CURVE",
"556 0 LINE",
"556 27 OFFCURVE",
"556 55 OFFCURVE",
"556 82 CURVE",
"556 483 LINE",
"376 483 LINE",
"376 185 LINE",
"361 168 OFFCURVE",
"340 147 OFFCURVE",
"300 147 CURVE SMOOTH",
"256 147 OFFCURVE",
"230 166 OFFCURVE",
"230 215 CURVE SMOOTH",
"230 483 LINE",
"50 483 LINE",
"50 -184 LINE",
"230 -184 LINE",
"230 -12 LINE"
);
}
);
width = 606;
},
{
associatedMasterId = "335260E3-B850-4550-8CEC-14CE68ACF16F";
layerId = "A3F0DF3F-6E5C-40C3-B5F9-213A49682D58";
name = "Light Italic";
paths = (
{
closed = 1;
nodes = (
"104 -49 OFFCURVE",
"270 -24 OFFCURVE",
"376 74 CURVE",
"368 6 OFFCURVE",
"398 -18 OFFCURVE",
"464 -10 CURVE",
"466 17 LINE",
"417 8 OFFCURVE",
"397 29 OFFCURVE",
"409 85 CURVE SMOOTH",
"493 483 LINE",
"463 483 LINE",
"383 103 LINE",
"337 54 OFFCURVE",
"257 13 OFFCURVE",
"194 13 CURVE SMOOTH",
"109 13 OFFCURVE",
"77 57 OFFCURVE",
"95 144 CURVE SMOOTH",
"167 483 LINE",
"137 483 LINE",
"-4 -184 LINE",
"26 -184 LINE",
"76 53 LINE"
);
}
);
width = 542;
},
{
associatedMasterId = "335260E3-B850-4550-8CEC-14CE68ACF16F";
layerId = "C7F6927E-AE81-4ED8-A250-E7EE5BA9BBA4";
name = "Bold Italic";
paths = (
{
closed = 1;
nodes = (
"250 -7 OFFCURVE",
"304 25 OFFCURVE",
"336 54 CURVE",
"332 36 OFFCURVE",
"328 18 OFFCURVE",
"325 0 CURVE",
"505 0 LINE",
"510 27 OFFCURVE",
"516 55 OFFCURVE",
"522 82 CURVE",
"607 483 LINE",
"427 483 LINE",
"364 185 LINE",
"345 168 OFFCURVE",
"320 147 OFFCURVE",
"280 147 CURVE SMOOTH",
"236 147 OFFCURVE",
"214 166 OFFCURVE",
"224 215 CURVE SMOOTH",
"281 483 LINE",
"101 483 LINE",
"-40 -184 LINE",
"140 -184 LINE",
"176 -12 LINE"
);
}
);
width = 606;
},
{
associatedMasterId = "335260E3-B850-4550-8CEC-14CE68ACF16F";
layerId = "C904C5FD-088D-4660-AED1-28B1A7BC3F9F";
name = "new Layer";
paths = (
{
closed = 1;
nodes = (
"166 -49 OFFCURVE",
"326 -24 OFFCURVE",
"412 74 CURVE",
"418 6 OFFCURVE",
"453 -18 OFFCURVE",
"517 -10 CURVE",
"514 17 LINE",
"467 8 OFFCURVE",
"442 29 OFFCURVE",
"442 85 CURVE SMOOTH",
"442 483 LINE",
"412 483 LINE",
"412 103 LINE",
"377 54 OFFCURVE",
"306 13 OFFCURVE",
"243 13 CURVE SMOOTH",
"158 13 OFFCURVE",
"116 57 OFFCURVE",
"116 144 CURVE SMOOTH",
"116 483 LINE",
"86 483 LINE",
"86 -184 LINE",
"116 -184 LINE",
"116 53 LINE"
);
}
);
width = 542;
}
);
leftKerningGroup = u;
note = mu;
rightKerningGroup = u;
unicode = 03BC;
},
{
glyphname = pi;
lastChange = "2020-08-30 14:21:04 +0000";
layers = (
{
components = (
{
name = "lowercase-thook";
transform = "{1, 0, 0, 1, 397, 0}";
}
);
layerId = "335260E3-B850-4550-8CEC-14CE68ACF16F";
paths = (
{
closed = 1;
nodes = (
"614 500 LINE",
"30 500 LINE",
"30 470 LINE",
"138 470 LINE",
"138 0 LINE",
"168 0 LINE",
"168 470 LINE",
"471 470 LINE",
"471 161 LINE",
"501 161 LINE",
"501 470 LINE",
"614 470 LINE"
);
}
);
width = 673;
},
{
components = (
{
name = "lowercase-thook";
transform = "{1, 0, 0, 1, 397, 3}";
}
);
layerId = "D5A55CBB-56DB-4AD9-B643-4353D3BE6F68";
paths = (
{
closed = 1;
nodes = (
"650 500 LINE",
"20 500 LINE",
"20 340 LINE",
"102 340 LINE",
"102 0 LINE",
"282 0 LINE",
"282 340 LINE",
"397 340 LINE",
"397 300 LINE",
"577 300 LINE",
"577 340 LINE",
"650 340 LINE"
);
}
);
width = 682;
}
);
note = pi;
unicode = 03C0;
},
{
glyphname = zero;
lastChange = "2020-09-13 13:15:43 +0000";
layers = (
{
layerId = "335260E3-B850-4550-8CEC-14CE68ACF16F";
paths = (
{
closed = 1;
nodes = (
"453 -11 OFFCURVE",
"536 134 OFFCURVE",
"536 350 CURVE SMOOTH",
"536 566 OFFCURVE",
"453 711 OFFCURVE",
"285 711 CURVE SMOOTH",
"117 711 OFFCURVE",
"34 566 OFFCURVE",
"34 350 CURVE SMOOTH",
"34 134 OFFCURVE",
"117 -11 OFFCURVE",
"285 -11 CURVE SMOOTH"
);
},
{
closed = 1;
nodes = (
"145 21 OFFCURVE",
"66 144 OFFCURVE",
"66 350 CURVE SMOOTH",
"66 556 OFFCURVE",
"145 679 OFFCURVE",
"285 679 CURVE SMOOTH",
"425 679 OFFCURVE",
"504 556 OFFCURVE",
"504 350 CURVE SMOOTH",
"504 144 OFFCURVE",
"425 21 OFFCURVE",
"285 21 CURVE SMOOTH"
);
}
);
width = 600;
},
{
layerId = "D5A55CBB-56DB-4AD9-B643-4353D3BE6F68";
paths = (
{
closed = 1;
nodes = (
"491 -14 OFFCURVE",
"615 134 OFFCURVE",
"615 350 CURVE SMOOTH",
"615 566 OFFCURVE",
"491 714 OFFCURVE",
"310 714 CURVE SMOOTH",
"129 714 OFFCURVE",
"5 566 OFFCURVE",
"5 350 CURVE SMOOTH",
"5 134 OFFCURVE",
"129 -14 OFFCURVE",
"310 -14 CURVE SMOOTH"
);
},
{
closed = 1;
nodes = (
"249 176 OFFCURVE",
"195 215 OFFCURVE",
"195 350 CURVE SMOOTH",
"195 485 OFFCURVE",
"249 524 OFFCURVE",
"310 524 CURVE SMOOTH",
"371 524 OFFCURVE",
"425 485 OFFCURVE",
"425 350 CURVE SMOOTH",
"425 215 OFFCURVE",
"371 176 OFFCURVE",
"310 176 CURVE SMOOTH"
);
}
);
width = 650;
}
);
unicode = 0030;
},
{
glyphname = one;
lastChange = "2020-09-13 13:13:49 +0000";
layers = (
{
components = (
{
name = "uppercase-horiz";
transform = "{2.33791, 0, 0, 1, -426, -670}";
},
{
name = "ascender-stem";
transform = "{1, 0, 0, 1, 162, 0}";
}
);
layerId = "335260E3-B850-4550-8CEC-14CE68ACF16F";
paths = (
{
closed = 1;
nodes = (
"111 610 LINE",
"291 671 LINE",
"282 700 LINE",
"102 638 LINE"
);
}
);
width = 600;
},
{
components = (
{
name = "uppercase-horiz";
transform = "{2.52179, 0, 0, 1, -456, -520}";
},
{
name = "ascender-stem";
transform = "{1, 0, 0, 1, 184, 0}";
}
);
layerId = "D5A55CBB-56DB-4AD9-B643-4353D3BE6F68";
paths = (
{
closed = 1;
nodes = (
"146 425 LINE",
"269 527 LINE",
"219 700 LINE",
"42 571 LINE"
);
}
);
width = 650;
}
);
unicode = 0031;
},
{
glyphname = two;
lastChange = "2020-09-13 13:11:38 +0000";
layers = (
{
layerId = "335260E3-B850-4550-8CEC-14CE68ACF16F";
paths = (
{
closed = 1;
nodes = (
"96 124 OFFCURVE",
"168 237 OFFCURVE",
"268 285 CURVE SMOOTH",
"383 340 OFFCURVE",
"492 377 OFFCURVE",
"492 516 CURVE",
"492 645 OFFCURVE",
"382 710 OFFCURVE",
"282 710 CURVE SMOOTH",
"172 710 OFFCURVE",
"65 658 OFFCURVE",
"48 549 CURVE",
"80 545 LINE",
"95 637 OFFCURVE",
"189 680 OFFCURVE",
"282 680 CURVE SMOOTH",
"362 680 OFFCURVE",
"460 625 OFFCURVE",
"460 516 CURVE",
"460 396 OFFCURVE",
"361 366 OFFCURVE",
"255 314 CURVE SMOOTH",
"146 262 OFFCURVE",
"67 143 OFFCURVE",
"54 22 CURVE",
"86 19 LINE"
);
},
{
closed = 1;
nodes = (
"54 22 LINE",
"54 0 LINE",
"522 0 LINE",
"522 30 LINE",
"74 30 LINE"
);
}
);
width = 600;
},
{
layerId = "D5A55CBB-56DB-4AD9-B643-4353D3BE6F68";
paths = (
{
closed = 1;
nodes = (
"237 111 OFFCURVE",
"248 206 OFFCURVE",
"329 234 CURVE SMOOTH",
"485 288 OFFCURVE",
"596 347 OFFCURVE",
"596 486 CURVE SMOOTH",
"596 628 OFFCURVE",
"463 715 OFFCURVE",
"329 715 CURVE SMOOTH",
"177 715 OFFCURVE",
"42 630 OFFCURVE",
"22 485 CURVE",
"200 466 LINE",
"210 525 OFFCURVE",
"264 545 OFFCURVE",
"329 545 CURVE SMOOTH",
"363 545 OFFCURVE",
"415 522 OFFCURVE",
"415 476 CURVE SMOOTH",
"415 439 OFFCURVE",
"333 414 OFFCURVE",
"258 385 CURVE SMOOTH",
"76 316 OFFCURVE",
"41 135 OFFCURVE",
"36 36 CURVE",
"228 24 LINE"
);
},
{
closed = 1;
nodes = (
"36 36 LINE",
"36 1 LINE",
"589 1 LINE",
"589 181 LINE",
"99 181 LINE"
);
}
);
width = 650;
}
);
unicode = 0032;
},
{
glyphname = three;
lastChange = "2020-09-13 13:14:20 +0000";
layers = (
{
layerId = "335260E3-B850-4550-8CEC-14CE68ACF16F";
paths = (
{
closed = 1;
nodes = (
"478 636 OFFCURVE",
"393 710 OFFCURVE",
"275 710 CURVE",
"186 710 OFFCURVE",
"105 658 OFFCURVE",
"81 587 CURVE",
"115 582 LINE",
"143 648 OFFCURVE",
"208 680 OFFCURVE",
"275 680 CURVE",
"374 680 OFFCURVE",
"446 617 OFFCURVE",
"446 535 CURVE",
"446 452 OFFCURVE",
"374 389 OFFCURVE",
"275 389 CURVE",
"243 389 LINE",
"243 359 LINE",
"275 359 LINE",
"393 359 OFFCURVE",
"478 433 OFFCURVE",
"478 535 CURVE"
);
},
{
closed = 1;
nodes = (
"500 308 OFFCURVE",
"405 389 OFFCURVE",
"275 389 CURVE",
"243 390 LINE",
"243 359 LINE",
"275 359 LINE",
"387 359 OFFCURVE",
"468 288 OFFCURVE",
"468 191 CURVE SMOOTH",
"468 94 OFFCURVE",
"387 20 OFFCURVE",
"275 20 CURVE SMOOTH",
"197 20 OFFCURVE",
"121 63 OFFCURVE",
"92 135 CURVE",
"59 130 LINE",
"87 49 OFFCURVE",
"177 -10 OFFCURVE",
"275 -10 CURVE SMOOTH",
"405 -10 OFFCURVE",
"500 74 OFFCURVE",
"500 191 CURVE SMOOTH"
);
}
);
width = 600;
},
{
layerId = "D5A55CBB-56DB-4AD9-B643-4353D3BE6F68";
paths = (
{
closed = 1;
nodes = (
"574 622 OFFCURVE",
"462 714 OFFCURVE",
"306 714 CURVE SMOOTH",
"159 714 OFFCURVE",
"47 631 OFFCURVE",
"38 517 CURVE SMOOTH",
"224 507 LINE",
"235 531 OFFCURVE",
"270 548 OFFCURVE",
"306 548 CURVE SMOOTH",
"355 548 OFFCURVE",
"390 525 OFFCURVE",
"390 494 CURVE SMOOTH",
"390 463 OFFCURVE",
"356 441 OFFCURVE",
"309 441 CURVE",
"271 441 LINE",
"270 293 LINE",
"306 293 LINE",
"462 293 OFFCURVE",
"574 377 OFFCURVE",
"574 494 CURVE SMOOTH"
);
},
{
closed = 1;
nodes = (
"591 347 OFFCURVE",
"472 441 OFFCURVE",
"309 441 CURVE",
"270 441 LINE",
"269 292 LINE",
"309 292 LINE",
"363 292 OFFCURVE",
"403 265 OFFCURVE",
"403 227 CURVE SMOOTH",
"403 190 OFFCURVE",
"363 164 OFFCURVE",
"309 164 CURVE SMOOTH",
"261 164 OFFCURVE",
"226 195 OFFCURVE",
"224 237 CURVE",
"28 224 LINE",
"22 87 OFFCURVE",
"147 -12 OFFCURVE",
"309 -12 CURVE SMOOTH",
"466 -12 OFFCURVE",
"591 85 OFFCURVE",
"591 218 CURVE SMOOTH"
);
}
);
width = 650;
}
);
unicode = 0033;
},
{
glyphname = four;
lastChange = "2020-09-13 13:16:56 +0000";
layers = (
{
layerId = "335260E3-B850-4550-8CEC-14CE68ACF16F";
paths = (
{
closed = 1;
nodes = (
"406 0 LINE",
"438 0 LINE",
"438 425 LINE",
"406 425 LINE"
);
},
{
closed = 1;
nodes = (
"20 209 LINE",
"48 194 LINE",
"321 700 LINE",
"285 700 LINE"
);
},
{
closed = 1;
nodes = (
"20 179 LINE",
"539 179 LINE",
"539 209 LINE",
"20 209 LINE"
);
}
);
width = 600;
},
{
layerId = "D5A55CBB-56DB-4AD9-B643-4353D3BE6F68";
paths = (
{
closed = 1;
nodes = (
"343 0 LINE",
"533 0 LINE",
"533 411 LINE",
"343 411 LINE"
);
},
{
closed = 1;
nodes = (
"27 290 LINE",
"199 210 LINE",
"428 700 LINE",
"218 700 LINE"
);
},
{
closed = 1;
nodes = (
"27 110 LINE",
"592 110 LINE",
"592 290 LINE",
"27 290 LINE"
);
}
);
width = 650;
}
);
unicode = 0034;
},
{
glyphname = five;
lastChange = "2020-09-13 13:17:05 +0000";
layers = (
{
layerId = "335260E3-B850-4550-8CEC-14CE68ACF16F";
paths = (
{
closed = 1;
nodes = (
"502 345 OFFCURVE",
"425 407 OFFCURVE",
"277 407 CURVE",
"105 407 LINE",
"93 377 LINE",
"277 377 LINE",
"404 377 OFFCURVE",
"470 324 OFFCURVE",
"470 221 CURVE SMOOTH",
"470 90 OFFCURVE",
"404 20 OFFCURVE",
"277 20 CURVE SMOOTH",
"189 20 OFFCURVE",
"125 53 OFFCURVE",
"93 135 CURVE",
"61 130 LINE",
"93 38 OFFCURVE",
"166 -10 OFFCURVE",
"277 -10 CURVE SMOOTH",
"425 -10 OFFCURVE",
"502 69 OFFCURVE",
"502 221 CURVE SMOOTH"
);
},
{
closed = 1;
nodes = (
"141 670 LINE",
"485 670 LINE",
"485 700 LINE",
"135 700 LINE"
);
},
{
closed = 1;
nodes = (
"124 382 LINE",
"165 697 LINE",
"135 700 LINE",
"93 377 LINE"
);
}
);
width = 600;
},
{
layerId = "D5A55CBB-56DB-4AD9-B643-4353D3BE6F68";
paths = (
{
closed = 1;
nodes = (
"591 366 OFFCURVE",
"488 450 OFFCURVE",
"321 450 CURVE",
"232 450 LINE",
"211 292 LINE",
"321 292 LINE",
"379 292 OFFCURVE",
"415 268 OFFCURVE",
"415 230 CURVE SMOOTH",
"415 189 OFFCURVE",
"379 164 OFFCURVE",
"321 164 CURVE SMOOTH",
"252 164 OFFCURVE",
"208 192 OFFCURVE",
"206 237 CURVE",
"29 217 LINE",
"23 75 OFFCURVE",
"134 -12 OFFCURVE",
"321 -12 CURVE SMOOTH",
"488 -12 OFFCURVE",
"591 80 OFFCURVE",
"591 230 CURVE SMOOTH"
);
},
{
closed = 1;
nodes = (
"145 520 LINE",
"561 520 LINE",
"561 700 LINE",
"145 700 LINE"
);
},
{
closed = 1;
nodes = (
"240 292 LINE",
"290 700 LINE",
"110 700 LINE",
"59 292 LINE"
);
}
);
width = 650;
}
);
unicode = 0035;
},
{
glyphname = six;
lastChange = "2020-09-13 13:16:47 +0000";
layers = (
{
layerId = "335260E3-B850-4550-8CEC-14CE68ACF16F";
paths = (
{
closed = 1;
nodes = (
"405 434 OFFCURVE",
"498 344 OFFCURVE",
"498 226 CURVE",
"498 109 OFFCURVE",
"405 20 OFFCURVE",
"279 20 CURVE",
"153 20 OFFCURVE",
"60 109 OFFCURVE",
"60 226 CURVE",
"60 344 OFFCURVE",
"153 434 OFFCURVE",
"279 434 CURVE"
);
},
{
closed = 1;
nodes = (
"133 464 OFFCURVE",
"28 364 OFFCURVE",
"28 226 CURVE SMOOTH",
"28 89 OFFCURVE",
"133 -10 OFFCURVE",
"279 -10 CURVE SMOOTH",
"425 -10 OFFCURVE",
"530 89 OFFCURVE",
"530 226 CURVE SMOOTH",
"530 362 OFFCURVE",
"425 462 OFFCURVE",
"279 464 CURVE",
"279 464 LINE"
);
},
{
closed = 1;
nodes = (
"86 327 LINE",
"322 700 LINE",
"284 700 LINE",
"57 343 LINE"
);
}
);
width = 600;
},
{
layerId = "D5A55CBB-56DB-4AD9-B643-4353D3BE6F68";
paths = (
{
closed = 1;
nodes = (
"351 313 OFFCURVE",
"387 280 OFFCURVE",
"387 242 CURVE",
"387 204 OFFCURVE",
"353 171 OFFCURVE",
"309 171 CURVE",
"272 171 OFFCURVE",
"232 199 OFFCURVE",
"232 242 CURVE",
"232 282 OFFCURVE",
"269 313 OFFCURVE",
"309 313 CURVE"
);
},
{
closed = 1;
nodes = (
"152 498 OFFCURVE",
"37 390 OFFCURVE",
"37 242 CURVE SMOOTH",
"37 94 OFFCURVE",
"152 -14 OFFCURVE",
"309 -14 CURVE SMOOTH",
"467 -14 OFFCURVE",
"582 94 OFFCURVE",
"582 242 CURVE",
"582 390 OFFCURVE",
"467 498 OFFCURVE",
"309 498 CURVE",
"309 498 LINE"
);
},
{
closed = 1;
nodes = (
"290 376 LINE",
"493 700 LINE",
"275 700 LINE",
"72 373 LINE"
);
}
);
width = 650;
}
);
unicode = 0036;
},
{
glyphname = seven;
lastChange = "2020-09-13 13:15:10 +0000";
layers = (
{
layerId = "335260E3-B850-4550-8CEC-14CE68ACF16F";
paths = (
{
closed = 1;
nodes = (
"196 0 LINE",
"231 0 LINE",
"530 670 LINE",
"495 670 LINE"
);
},
{
closed = 1;
nodes = (
"42 670 LINE",
"519 670 LINE",
"530 670 LINE",
"530 700 LINE",
"42 700 LINE"
);
}
);
width = 600;
},
{
layerId = "D5A55CBB-56DB-4AD9-B643-4353D3BE6F68";
paths = (
{
closed = 1;
nodes = (
"114 0 LINE",
"321 0 LINE",
"575 567 LINE",
"401 644 LINE"
);
},
{
closed = 1;
nodes = (
"45 520 LINE",
"527 520 LINE",
"575 567 LINE",
"575 700 LINE",
"45 700 LINE"
);
}
);
width = 650;
}
);
unicode = 0037;
},
{
glyphname = eight;
lastChange = "2020-09-13 13:15:30 +0000";
layers = (
{
layerId = "335260E3-B850-4550-8CEC-14CE68ACF16F";
paths = (
{
closed = 1;
nodes = (
"159 360 OFFCURVE",
"82 425 OFFCURVE",
"82 534 CURVE",
"82 643 OFFCURVE",
"159 710 OFFCURVE",
"285 710 CURVE",
"411 710 OFFCURVE",
"488 643 OFFCURVE",
"488 534 CURVE",
"488 425 OFFCURVE",
"411 360 OFFCURVE",
"285 360 CURVE"
);
},
{
closed = 1;
nodes = (
"179 680 OFFCURVE",
"114 623 OFFCURVE",
"114 534 CURVE SMOOTH",
"114 445 OFFCURVE",
"179 390 OFFCURVE",
"285 390 CURVE SMOOTH",
"391 390 OFFCURVE",
"456 445 OFFCURVE",
"456 534 CURVE SMOOTH",
"456 623 OFFCURVE",
"391 680 OFFCURVE",
"285 680 CURVE SMOOTH"
);
},
{
closed = 1;
nodes = (
"145 -10 OFFCURVE",
"59 66 OFFCURVE",
"59 191 CURVE",
"59 315 OFFCURVE",
"145 390 OFFCURVE",
"285 390 CURVE",
"424 390 OFFCURVE",
"510 315 OFFCURVE",
"510 191 CURVE",
"510 66 OFFCURVE",
"424 -10 OFFCURVE",
"285 -10 CURVE"
);
},
{
closed = 1;
nodes = (
"165 360 OFFCURVE",
"91 295 OFFCURVE",
"91 191 CURVE SMOOTH",
"91 87 OFFCURVE",
"165 20 OFFCURVE",
"285 20 CURVE SMOOTH",
"405 20 OFFCURVE",
"478 87 OFFCURVE",
"478 191 CURVE SMOOTH",
"478 295 OFFCURVE",
"405 360 OFFCURVE",
"285 360 CURVE SMOOTH"
);
}
);
width = 600;
},
{
layerId = "D5A55CBB-56DB-4AD9-B643-4353D3BE6F68";
paths = (
{
closed = 1;
nodes = (
"143 308 OFFCURVE",
"41 353 OFFCURVE",
"41 491 CURVE",
"41 630 OFFCURVE",
"143 715 OFFCURVE",
"310 715 CURVE",
"477 715 OFFCURVE",
"579 630 OFFCURVE",
"579 491 CURVE",
"579 353 OFFCURVE",
"477 308 OFFCURVE",
"310 308 CURVE"
);
},
{
closed = 1;
nodes = (
"257 547 OFFCURVE",
"225 526 OFFCURVE",
"225 491 CURVE",
"225 457 OFFCURVE",
"257 436 OFFCURVE",
"310 436 CURVE",
"363 436 OFFCURVE",
"395 457 OFFCURVE",
"395 491 CURVE",
"395 526 OFFCURVE",
"363 547 OFFCURVE",
"310 547 CURVE"
);
},
{
closed = 1;
nodes = (
"135 -15 OFFCURVE",
"28 71 OFFCURVE",
"28 211 CURVE",
"28 351 OFFCURVE",
"135 407 OFFCURVE",
"310 407 CURVE",
"485 407 OFFCURVE",
"592 351 OFFCURVE",
"592 211 CURVE",
"592 71 OFFCURVE",
"485 -15 OFFCURVE",
"310 -15 CURVE"
);
},
{
closed = 1;
nodes = (
"252 284 OFFCURVE",
"206 267 OFFCURVE",
"206 224 CURVE SMOOTH",
"206 181 OFFCURVE",
"252 158 OFFCURVE",
"310 158 CURVE SMOOTH",
"368 158 OFFCURVE",
"414 181 OFFCURVE",
"414 224 CURVE SMOOTH",
"414 267 OFFCURVE",
"368 284 OFFCURVE",
"310 284 CURVE SMOOTH"
);
}
);
width = 650;
}
);
unicode = 0038;
},
{
glyphname = nine;
lastChange = "2020-09-13 13:17:38 +0000";
layers = (
{
layerId = "335260E3-B850-4550-8CEC-14CE68ACF16F";
paths = (
{
closed = 1;
nodes = (
"150 266 OFFCURVE",
"57 356 OFFCURVE",
"57 474 CURVE",
"57 591 OFFCURVE",
"150 680 OFFCURVE",
"276 680 CURVE",
"402 680 OFFCURVE",
"495 591 OFFCURVE",
"495 474 CURVE",
"495 356 OFFCURVE",
"402 266 OFFCURVE",
"276 266 CURVE"
);
},
{
closed = 1;
nodes = (
"422 236 OFFCURVE",
"527 336 OFFCURVE",
"527 474 CURVE SMOOTH",
"527 611 OFFCURVE",
"422 710 OFFCURVE",
"276 710 CURVE SMOOTH",
"130 710 OFFCURVE",
"25 611 OFFCURVE",
"25 474 CURVE SMOOTH",
"25 338 OFFCURVE",
"130 238 OFFCURVE",
"276 236 CURVE",
"276 236 LINE"
);
},
{
closed = 1;
nodes = (
"469 373 LINE",
"233 0 LINE",
"271 0 LINE",
"498 357 LINE"
);
}
);
width = 600;
},
{
layerId = "D5A55CBB-56DB-4AD9-B643-4353D3BE6F68";
paths = (
{
closed = 1;
nodes = (
"267 387 OFFCURVE",
"231 420 OFFCURVE",
"231 458 CURVE",
"231 497 OFFCURVE",
"265 530 OFFCURVE",
"309 530 CURVE",
"346 530 OFFCURVE",
"386 502 OFFCURVE",
"386 458 CURVE",
"386 418 OFFCURVE",
"349 387 OFFCURVE",
"309 387 CURVE"
);
},
{
closed = 1;
nodes = (
"466 202 OFFCURVE",
"581 310 OFFCURVE",
"581 458 CURVE SMOOTH",
"581 607 OFFCURVE",
"466 715 OFFCURVE",
"309 715 CURVE SMOOTH",
"151 715 OFFCURVE",
"36 607 OFFCURVE",
"36 458 CURVE",
"36 310 OFFCURVE",
"151 202 OFFCURVE",
"309 202 CURVE",
"309 202 LINE"
);
},
{
closed = 1;
nodes = (
"328 324 LINE",
"125 0 LINE",
"343 0 LINE",
"541 319 LINE"
);
}
);
width = 650;
}
);
unicode = 0039;
},
{
glyphname = fraction;
lastChange = "2020-08-30 14:07:51 +0000";
layers = (
{
layerId = "335260E3-B850-4550-8CEC-14CE68ACF16F";
paths = (
{
closed = 1;
nodes = (
"46 0 LINE",
"453 700 LINE",
"406 700 LINE",
"0 0 LINE"
);
}
);
width = 453;
},
{
layerId = "D5A55CBB-56DB-4AD9-B643-4353D3BE6F68";
paths = (
{
closed = 1;
nodes = (
"100 0 LINE",
"500 700 LINE",
"400 700 LINE",
"0 0 LINE"
);
}
);
width = 500;
}
);
unicode = 2044;
},
{
glyphname = period;
lastChange = "2020-09-11 21:27:41 +0000";
layers = (
{
layerId = "335260E3-B850-4550-8CEC-14CE68ACF16F";
paths = (
{
closed = 1;
nodes = (
"78 0 OFFCURVE",
"88 -10 OFFCURVE",
"103 -10 CURVE SMOOTH",
"118 -10 OFFCURVE",
"128 0 OFFCURVE",
"128 15 CURVE SMOOTH",
"128 30 OFFCURVE",
"118 40 OFFCURVE",
"103 40 CURVE SMOOTH",
"88 40 OFFCURVE",
"78 30 OFFCURVE",
"78 15 CURVE SMOOTH"
);
}
);
width = 168;
},
{
layerId = "D5A55CBB-56DB-4AD9-B643-4353D3BE6F68";
paths = (
{
closed = 1;
nodes = (
"51 20 OFFCURVE",
"84 -13 OFFCURVE",
"143 -13 CURVE SMOOTH",
"202 -13 OFFCURVE",
"234 20 OFFCURVE",
"234 80 CURVE SMOOTH",
"234 140 OFFCURVE",
"202 173 OFFCURVE",
"143 173 CURVE SMOOTH",
"84 173 OFFCURVE",
"51 140 OFFCURVE",
"51 80 CURVE SMOOTH"
);
}
);
width = 264;
},
{
associatedMasterId = "335260E3-B850-4550-8CEC-14CE68ACF16F";
layerId = "A3F0DF3F-6E5C-40C3-B5F9-213A49682D58";
name = "Light Italic";
paths = (
{
closed = 1;
nodes = (
"16 6 OFFCURVE",
"26 -7 OFFCURVE",
"49 -7 CURVE SMOOTH",
"71 -7 OFFCURVE",
"87 6 OFFCURVE",
"92 29 CURVE SMOOTH",
"97 52 OFFCURVE",
"86 65 OFFCURVE",
"64 65 CURVE SMOOTH",
"42 65 OFFCURVE",
"26 52 OFFCURVE",
"21 29 CURVE SMOOTH"
);
}
);
width = 208;
},
{
associatedMasterId = "335260E3-B850-4550-8CEC-14CE68ACF16F";
layerId = "C7F6927E-AE81-4ED8-A250-E7EE5BA9BBA4";
name = "Bold Italic";
paths = (
{
closed = 1;
nodes = (
"4 20 OFFCURVE",
"30 -13 OFFCURVE",
"89 -13 CURVE SMOOTH",
"148 -13 OFFCURVE",
"187 20 OFFCURVE",
"200 80 CURVE SMOOTH",
"212 140 OFFCURVE",
"187 173 OFFCURVE",
"128 173 CURVE SMOOTH",
"69 173 OFFCURVE",
"29 140 OFFCURVE",
"17 80 CURVE SMOOTH"
);
}
);
width = 285;
},
{
associatedMasterId = "335260E3-B850-4550-8CEC-14CE68ACF16F";
layerId = "C904C5FD-088D-4660-AED1-28B1A7BC3F9F";
name = "new Layer";
paths = (
{
closed = 1;
nodes = (
"71 0 LINE",
"132 0 LINE",
"132 62 LINE",
"71 62 LINE"
);
}
);
width = 208;
}
);
leftKerningGroup = comma;
note = period;
rightKerningGroup = comma;
unicode = 002E;
},
{
glyphname = comma;
lastChange = "2020-09-11 20:38:17 +0000";
layers = (
{
layerId = "335260E3-B850-4550-8CEC-14CE68ACF16F";
paths = (
{
closed = 1;
nodes = (
"64 -79 LINE",
"79 -49 LINE SMOOTH",
"94 -21 OFFCURVE",
"101 -7 OFFCURVE",
"101 12 CURVE",
"101 28 OFFCURVE",
"91 38 OFFCURVE",
"76 38 CURVE SMOOTH",
"61 38 OFFCURVE",
"53 29 OFFCURVE",
"53 14 CURVE SMOOTH",
"53 -2 OFFCURVE",
"60 -10 OFFCURVE",
"76 -10 CURVE",
"50 -68 LINE"
);
}
);
width = 173;
},
{
layerId = "D5A55CBB-56DB-4AD9-B643-4353D3BE6F68";
paths = (
{
closed = 1;
nodes = (
"99 -144 LINE",
"166 -63 LINE SMOOTH",
"204 -16 OFFCURVE",
"215 10 OFFCURVE",
"216 78 CURVE SMOOTH",
"216 138 OFFCURVE",
"181 173 OFFCURVE",
"122 173 CURVE SMOOTH",
"63 173 OFFCURVE",
"30 140 OFFCURVE",
"30 80 CURVE SMOOTH",
"30 20 OFFCURVE",
"35 7 OFFCURVE",
"87 -10 CURVE",
"48 -101 LINE"
);
}
);
width = 266;
},
{
associatedMasterId = "335260E3-B850-4550-8CEC-14CE68ACF16F";
layerId = "A3F0DF3F-6E5C-40C3-B5F9-213A49682D58";
name = "Light Italic";
paths = (
{
closed = 1;
nodes = (
"9 -110 LINE",
"42 -64 LINE SMOOTH",
"72 -22 OFFCURVE",
"86 -1 OFFCURVE",
"93 26 CURVE",
"98 49 OFFCURVE",
"86 65 OFFCURVE",
"64 65 CURVE SMOOTH",
"42 65 OFFCURVE",
"26 52 OFFCURVE",
"21 29 CURVE SMOOTH",
"16 6 OFFCURVE",
"26 -7 OFFCURVE",
"49 -7 CURVE",
"-8 -93 LINE"
);
}
);
width = 208;
},
{
associatedMasterId = "335260E3-B850-4550-8CEC-14CE68ACF16F";
layerId = "C7F6927E-AE81-4ED8-A250-E7EE5BA9BBA4";
name = "Bold Italic";
paths = (
{
closed = 1;
nodes = (
"38 -144 LINE",
"122 -63 LINE SMOOTH",
"170 -16 OFFCURVE",
"187 10 OFFCURVE",
"202 78 CURVE SMOOTH",
"215 138 OFFCURVE",
"187 173 OFFCURVE",
"128 173 CURVE SMOOTH",
"69 173 OFFCURVE",
"29 140 OFFCURVE",
"17 80 CURVE SMOOTH",
"4 20 OFFCURVE",
"6 7 OFFCURVE",
"55 -10 CURVE",
"-4 -101 LINE"
);
}
);
width = 281;
},
{
associatedMasterId = "335260E3-B850-4550-8CEC-14CE68ACF16F";
layerId = "C904C5FD-088D-4660-AED1-28B1A7BC3F9F";
name = "new Layer";
paths = (
{
closed = 1;
nodes = (
"74 -7 LINE",
"135 -7 LINE",
"135 55 LINE",
"74 55 LINE"
);
},
{
closed = 1;
nodes = (
"63 -93 LINE",
"84 -110 LINE",
"135 -7 LINE",
"102 -7 LINE"
);
}
);
width = 208;
}
);
leftKerningGroup = comma;
note = comma;
rightKerningGroup = comma;
unicode = 002C;
},
{
glyphname = colon;
lastChange = "2020-09-11 21:10:50 +0000";
layers = (
{
layerId = "335260E3-B850-4550-8CEC-14CE68ACF16F";
paths = (
{
closed = 1;
nodes = (
"60 6 OFFCURVE",
"73 -7 OFFCURVE",
"96 -7 CURVE SMOOTH",
"118 -7 OFFCURVE",
"131 6 OFFCURVE",
"131 29 CURVE SMOOTH",
"131 52 OFFCURVE",
"118 65 OFFCURVE",
"96 65 CURVE SMOOTH",
"74 65 OFFCURVE",
"60 52 OFFCURVE",
"60 29 CURVE SMOOTH"
);
},
{
closed = 1;
nodes = (
"60 429 OFFCURVE",
"73 416 OFFCURVE",
"96 416 CURVE SMOOTH",
"118 416 OFFCURVE",
"131 429 OFFCURVE",
"131 452 CURVE SMOOTH",
"131 475 OFFCURVE",
"118 488 OFFCURVE",
"96 488 CURVE SMOOTH",
"74 488 OFFCURVE",
"60 475 OFFCURVE",
"60 452 CURVE SMOOTH"
);
}
);
width = 201;
},
{
layerId = "D5A55CBB-56DB-4AD9-B643-4353D3BE6F68";
paths = (
{
closed = 1;
nodes = (
"30 20 OFFCURVE",
"63 -13 OFFCURVE",
"122 -13 CURVE SMOOTH",
"181 -13 OFFCURVE",
"213 20 OFFCURVE",
"213 80 CURVE SMOOTH",
"213 140 OFFCURVE",
"181 173 OFFCURVE",
"122 173 CURVE SMOOTH",
"63 173 OFFCURVE",
"30 140 OFFCURVE",
"30 80 CURVE SMOOTH"
);
},
{
closed = 1;
nodes = (
"30 337 OFFCURVE",
"63 304 OFFCURVE",
"122 304 CURVE SMOOTH",
"181 304 OFFCURVE",
"213 337 OFFCURVE",
"213 397 CURVE SMOOTH",
"213 457 OFFCURVE",
"181 490 OFFCURVE",
"122 490 CURVE SMOOTH",
"63 490 OFFCURVE",
"30 457 OFFCURVE",
"30 397 CURVE SMOOTH"
);
}
);
width = 263;
},
{
associatedMasterId = "335260E3-B850-4550-8CEC-14CE68ACF16F";
layerId = "A3F0DF3F-6E5C-40C3-B5F9-213A49682D58";
name = "Light Italic";
paths = (
{
closed = 1;
nodes = (
"16 6 OFFCURVE",
"26 -7 OFFCURVE",
"49 -7 CURVE SMOOTH",
"71 -7 OFFCURVE",
"87 6 OFFCURVE",
"92 29 CURVE SMOOTH",
"97 52 OFFCURVE",
"86 65 OFFCURVE",
"64 65 CURVE SMOOTH",
"42 65 OFFCURVE",
"26 52 OFFCURVE",
"21 29 CURVE SMOOTH"
);
},
{
closed = 1;
nodes = (
"106 429 OFFCURVE",
"116 416 OFFCURVE",
"139 416 CURVE SMOOTH",
"161 416 OFFCURVE",
"177 429 OFFCURVE",
"182 452 CURVE SMOOTH",
"187 475 OFFCURVE",
"176 488 OFFCURVE",
"154 488 CURVE SMOOTH",
"132 488 OFFCURVE",
"116 475 OFFCURVE",
"111 452 CURVE SMOOTH"
);
}
);
width = 208;
},
{
associatedMasterId = "335260E3-B850-4550-8CEC-14CE68ACF16F";
layerId = "C7F6927E-AE81-4ED8-A250-E7EE5BA9BBA4";
name = "Bold Italic";
paths = (
{
closed = 1;
nodes = (
"4 20 OFFCURVE",
"30 -13 OFFCURVE",
"89 -13 CURVE SMOOTH",
"148 -13 OFFCURVE",
"187 20 OFFCURVE",
"200 80 CURVE SMOOTH",
"212 140 OFFCURVE",
"187 173 OFFCURVE",
"128 173 CURVE SMOOTH",
"69 173 OFFCURVE",
"29 140 OFFCURVE",
"17 80 CURVE SMOOTH"
);
},
{
closed = 1;
nodes = (
"71 337 OFFCURVE",
"97 304 OFFCURVE",
"156 304 CURVE SMOOTH",
"215 304 OFFCURVE",
"254 337 OFFCURVE",
"267 397 CURVE SMOOTH",
"280 457 OFFCURVE",
"255 490 OFFCURVE",
"196 490 CURVE SMOOTH",
"137 490 OFFCURVE",
"97 457 OFFCURVE",
"84 397 CURVE SMOOTH"
);
}
);
width = 281;
},
{
associatedMasterId = "335260E3-B850-4550-8CEC-14CE68ACF16F";
layerId = "C904C5FD-088D-4660-AED1-28B1A7BC3F9F";
name = "new Layer";
paths = (
{
closed = 1;
nodes = (
"74 -7 LINE",
"135 -7 LINE",
"135 55 LINE",
"74 55 LINE"
);
},
{
closed = 1;
nodes = (
"74 426 LINE",
"135 426 LINE",
"135 488 LINE",
"74 488 LINE"
);
}
);
width = 208;
}
);
leftKerningGroup = colon;
note = colon;
rightKerningGroup = colon;
unicode = 003A;
},
{
glyphname = semicolon;
lastChange = "2020-04-15 03:30:09 +0000";
layers = (
{
layerId = "335260E3-B850-4550-8CEC-14CE68ACF16F";
paths = (
{
closed = 1;
nodes = (
"84 -110 LINE",
"107 -64 LINE SMOOTH",
"128 -22 OFFCURVE",
"138 -1 OFFCURVE",
"139 26 CURVE",
"139 49 OFFCURVE",
"124 65 OFFCURVE",
"102 65 CURVE SMOOTH",
"80 65 OFFCURVE",
"66 52 OFFCURVE",
"66 29 CURVE SMOOTH",
"66 6 OFFCURVE",
"79 -7 OFFCURVE",
"102 -7 CURVE",
"63 -93 LINE"
);
},
{
closed = 1;
nodes = (
"66 429 OFFCURVE",
"79 416 OFFCURVE",
"102 416 CURVE SMOOTH",
"124 416 OFFCURVE",
"137 429 OFFCURVE",
"137 452 CURVE SMOOTH",
"137 475 OFFCURVE",
"124 488 OFFCURVE",
"102 488 CURVE SMOOTH",
"80 488 OFFCURVE",
"66 475 OFFCURVE",
"66 452 CURVE SMOOTH"
);
}
);
width = 208;
},
{
layerId = "D5A55CBB-56DB-4AD9-B643-4353D3BE6F68";
paths = (
{
closed = 1;
nodes = (
"120 -144 LINE",
"187 -63 LINE SMOOTH",
"225 -16 OFFCURVE",
"236 10 OFFCURVE",
"237 78 CURVE SMOOTH",
"237 138 OFFCURVE",
"202 173 OFFCURVE",
"143 173 CURVE SMOOTH",
"84 173 OFFCURVE",
"51 140 OFFCURVE",
"51 80 CURVE SMOOTH",
"51 20 OFFCURVE",
"56 7 OFFCURVE",
"108 -10 CURVE",
"69 -101 LINE"
);
},
{
closed = 1;
nodes = (
"51 337 OFFCURVE",
"84 304 OFFCURVE",
"143 304 CURVE SMOOTH",
"202 304 OFFCURVE",
"234 337 OFFCURVE",
"234 397 CURVE SMOOTH",
"234 457 OFFCURVE",
"202 490 OFFCURVE",
"143 490 CURVE SMOOTH",
"84 490 OFFCURVE",
"51 457 OFFCURVE",
"51 397 CURVE SMOOTH"
);
}
);
width = 281;
},
{
associatedMasterId = "335260E3-B850-4550-8CEC-14CE68ACF16F";
layerId = "A3F0DF3F-6E5C-40C3-B5F9-213A49682D58";
name = "Light Italic";
paths = (
{
closed = 1;
nodes = (
"9 -110 LINE",
"42 -64 LINE SMOOTH",
"72 -22 OFFCURVE",
"86 -1 OFFCURVE",
"93 26 CURVE",
"98 49 OFFCURVE",
"86 65 OFFCURVE",
"64 65 CURVE SMOOTH",
"42 65 OFFCURVE",
"26 52 OFFCURVE",
"21 29 CURVE SMOOTH",
"16 6 OFFCURVE",
"26 -7 OFFCURVE",
"49 -7 CURVE",
"-8 -93 LINE"
);
},
{
closed = 1;
nodes = (
"106 429 OFFCURVE",
"116 416 OFFCURVE",
"139 416 CURVE SMOOTH",
"161 416 OFFCURVE",
"177 429 OFFCURVE",
"182 452 CURVE SMOOTH",
"187 475 OFFCURVE",
"176 488 OFFCURVE",
"154 488 CURVE SMOOTH",
"132 488 OFFCURVE",
"116 475 OFFCURVE",
"111 452 CURVE SMOOTH"
);
}
);
width = 208;
},
{
associatedMasterId = "335260E3-B850-4550-8CEC-14CE68ACF16F";
layerId = "C7F6927E-AE81-4ED8-A250-E7EE5BA9BBA4";
name = "Bold Italic";
paths = (
{
closed = 1;
nodes = (
"38 -144 LINE",
"122 -63 LINE SMOOTH",
"170 -16 OFFCURVE",
"187 10 OFFCURVE",
"202 78 CURVE SMOOTH",
"215 138 OFFCURVE",
"187 173 OFFCURVE",
"128 173 CURVE SMOOTH",
"69 173 OFFCURVE",
"29 140 OFFCURVE",
"17 80 CURVE SMOOTH",
"4 20 OFFCURVE",
"6 7 OFFCURVE",
"55 -10 CURVE",
"-4 -101 LINE"
);
},
{
closed = 1;
nodes = (
"71 337 OFFCURVE",
"97 304 OFFCURVE",
"156 304 CURVE SMOOTH",
"215 304 OFFCURVE",
"254 337 OFFCURVE",
"267 397 CURVE SMOOTH",
"280 457 OFFCURVE",
"255 490 OFFCURVE",
"196 490 CURVE SMOOTH",
"137 490 OFFCURVE",
"97 457 OFFCURVE",
"84 397 CURVE SMOOTH"
);
}
);
width = 281;
},
{
associatedMasterId = "335260E3-B850-4550-8CEC-14CE68ACF16F";
layerId = "C904C5FD-088D-4660-AED1-28B1A7BC3F9F";
name = "new Layer";
paths = (
{
closed = 1;
nodes = (
"74 -7 LINE",
"135 -7 LINE",
"135 55 LINE",
"74 55 LINE"
);
},
{
closed = 1;
nodes = (
"63 -93 LINE",
"84 -110 LINE",
"135 -7 LINE",
"102 -7 LINE"
);
},
{
closed = 1;
nodes = (
"74 426 LINE",
"135 426 LINE",
"135 488 LINE",
"74 488 LINE"
);
}
);
width = 208;
}
);
leftKerningGroup = colon;
note = semicolon;
rightKerningGroup = colon;
unicode = 003B;
},
{
glyphname = ellipsis;
lastChange = "2020-04-15 03:30:09 +0000";
layers = (
{
layerId = "335260E3-B850-4550-8CEC-14CE68ACF16F";
paths = (
{
closed = 1;
nodes = (
"66 6 OFFCURVE",
"79 -7 OFFCURVE",
"102 -7 CURVE SMOOTH",
"124 -7 OFFCURVE",
"137 6 OFFCURVE",
"137 29 CURVE SMOOTH",
"137 52 OFFCURVE",
"124 65 OFFCURVE",
"102 65 CURVE SMOOTH",
"80 65 OFFCURVE",
"66 52 OFFCURVE",
"66 29 CURVE SMOOTH"
);
},
{
closed = 1;
nodes = (
"276 6 OFFCURVE",
"289 -7 OFFCURVE",
"312 -7 CURVE SMOOTH",
"334 -7 OFFCURVE",
"347 6 OFFCURVE",
"347 29 CURVE SMOOTH",
"347 52 OFFCURVE",
"334 65 OFFCURVE",
"312 65 CURVE SMOOTH",
"290 65 OFFCURVE",
"276 52 OFFCURVE",
"276 29 CURVE SMOOTH"
);
},
{
closed = 1;
nodes = (
"486 6 OFFCURVE",
"499 -7 OFFCURVE",
"522 -7 CURVE SMOOTH",
"544 -7 OFFCURVE",
"557 6 OFFCURVE",
"557 29 CURVE SMOOTH",
"557 52 OFFCURVE",
"544 65 OFFCURVE",
"522 65 CURVE SMOOTH",
"500 65 OFFCURVE",
"486 52 OFFCURVE",
"486 29 CURVE SMOOTH"
);
}
);
width = 624;
},
{
layerId = "D5A55CBB-56DB-4AD9-B643-4353D3BE6F68";
paths = (
{
closed = 1;
nodes = (
"61 20 OFFCURVE",
"94 -13 OFFCURVE",
"153 -13 CURVE SMOOTH",
"212 -13 OFFCURVE",
"244 20 OFFCURVE",
"244 80 CURVE SMOOTH",
"244 140 OFFCURVE",
"212 173 OFFCURVE",
"153 173 CURVE SMOOTH",
"94 173 OFFCURVE",
"61 140 OFFCURVE",
"61 80 CURVE SMOOTH"
);
},
{
closed = 1;
nodes = (
"331 20 OFFCURVE",
"364 -13 OFFCURVE",
"423 -13 CURVE SMOOTH",
"482 -13 OFFCURVE",
"514 20 OFFCURVE",
"514 80 CURVE SMOOTH",
"514 140 OFFCURVE",
"482 173 OFFCURVE",
"423 173 CURVE SMOOTH",
"364 173 OFFCURVE",
"331 140 OFFCURVE",
"331 80 CURVE SMOOTH"
);
},
{
closed = 1;
nodes = (
"601 20 OFFCURVE",
"634 -13 OFFCURVE",
"693 -13 CURVE SMOOTH",
"752 -13 OFFCURVE",
"784 20 OFFCURVE",
"784 80 CURVE SMOOTH",
"784 140 OFFCURVE",
"752 173 OFFCURVE",
"693 173 CURVE SMOOTH",
"634 173 OFFCURVE",
"601 140 OFFCURVE",
"601 80 CURVE SMOOTH"
);
}
);
width = 846;
},
{
associatedMasterId = "335260E3-B850-4550-8CEC-14CE68ACF16F";
layerId = "A3F0DF3F-6E5C-40C3-B5F9-213A49682D58";
name = "Light Italic";
paths = (
{
closed = 1;
nodes = (
"16 6 OFFCURVE",
"26 -7 OFFCURVE",
"49 -7 CURVE SMOOTH",
"71 -7 OFFCURVE",
"87 6 OFFCURVE",
"92 29 CURVE SMOOTH",
"97 52 OFFCURVE",
"86 65 OFFCURVE",
"64 65 CURVE SMOOTH",
"42 65 OFFCURVE",
"26 52 OFFCURVE",
"21 29 CURVE SMOOTH"
);
},
{
closed = 1;
nodes = (
"226 6 OFFCURVE",
"236 -7 OFFCURVE",
"259 -7 CURVE SMOOTH",
"281 -7 OFFCURVE",
"297 6 OFFCURVE",
"302 29 CURVE SMOOTH",
"307 52 OFFCURVE",
"296 65 OFFCURVE",
"274 65 CURVE SMOOTH",
"252 65 OFFCURVE",
"236 52 OFFCURVE",
"231 29 CURVE SMOOTH"
);
},
{
closed = 1;
nodes = (
"436 6 OFFCURVE",
"446 -7 OFFCURVE",
"469 -7 CURVE SMOOTH",
"491 -7 OFFCURVE",
"507 6 OFFCURVE",
"512 29 CURVE SMOOTH",
"517 52 OFFCURVE",
"506 65 OFFCURVE",
"484 65 CURVE SMOOTH",
"462 65 OFFCURVE",
"446 52 OFFCURVE",
"441 29 CURVE SMOOTH"
);
}
);
width = 624;
},
{
associatedMasterId = "335260E3-B850-4550-8CEC-14CE68ACF16F";
layerId = "C7F6927E-AE81-4ED8-A250-E7EE5BA9BBA4";
name = "Bold Italic";
paths = (
{
closed = 1;
nodes = (
"14 20 OFFCURVE",
"40 -13 OFFCURVE",
"99 -13 CURVE SMOOTH",
"158 -13 OFFCURVE",
"197 20 OFFCURVE",
"210 80 CURVE SMOOTH",
"222 140 OFFCURVE",
"197 173 OFFCURVE",
"138 173 CURVE SMOOTH",
"79 173 OFFCURVE",
"39 140 OFFCURVE",
"27 80 CURVE SMOOTH"
);
},
{
closed = 1;
nodes = (
"284 20 OFFCURVE",
"310 -13 OFFCURVE",
"369 -13 CURVE SMOOTH",
"428 -13 OFFCURVE",
"467 20 OFFCURVE",
"480 80 CURVE SMOOTH",
"492 140 OFFCURVE",
"467 173 OFFCURVE",
"408 173 CURVE SMOOTH",
"349 173 OFFCURVE",
"309 140 OFFCURVE",
"297 80 CURVE SMOOTH"
);
},
{
closed = 1;
nodes = (
"554 20 OFFCURVE",
"580 -13 OFFCURVE",
"639 -13 CURVE SMOOTH",
"698 -13 OFFCURVE",
"737 20 OFFCURVE",
"750 80 CURVE SMOOTH",
"762 140 OFFCURVE",
"737 173 OFFCURVE",
"678 173 CURVE SMOOTH",
"619 173 OFFCURVE",
"579 140 OFFCURVE",
"567 80 CURVE SMOOTH"
);
}
);
width = 846;
},
{
associatedMasterId = "335260E3-B850-4550-8CEC-14CE68ACF16F";
layerId = "C904C5FD-088D-4660-AED1-28B1A7BC3F9F";
name = "new Layer";
paths = (
{
closed = 1;
nodes = (
"76 -9 LINE",
"137 -9 LINE",
"137 53 LINE",
"76 53 LINE"
);
},
{
closed = 1;
nodes = (
"279 -9 LINE",
"340 -9 LINE",
"340 53 LINE",
"279 53 LINE"
);
},
{
closed = 1;
nodes = (
"487 -9 LINE",
"548 -9 LINE",
"548 53 LINE",
"487 53 LINE"
);
}
);
width = 624;
}
);
leftKerningGroup = comma;
note = ellipsis;
rightKerningGroup = comma;
unicode = 2026;
},
{
glyphname = exclam;
lastChange = "2020-04-15 03:32:48 +0000";
layers = (
{
layerId = "335260E3-B850-4550-8CEC-14CE68ACF16F";
paths = (
{
closed = 1;
nodes = (
"129 161 LINE",
"140 700 LINE",
"98 700 LINE",
"109 161 LINE"
);
},
{
closed = 1;
nodes = (
"83 6 OFFCURVE",
"96 -7 OFFCURVE",
"119 -7 CURVE SMOOTH",
"141 -7 OFFCURVE",
"154 6 OFFCURVE",
"154 29 CURVE SMOOTH",
"154 52 OFFCURVE",
"141 65 OFFCURVE",
"119 65 CURVE SMOOTH",
"97 65 OFFCURVE",
"83 52 OFFCURVE",
"83 29 CURVE SMOOTH"
);
}
);
width = 233;
},
{
layerId = "D5A55CBB-56DB-4AD9-B643-4353D3BE6F68";
paths = (
{
closed = 1;
nodes = (
"222 248 LINE",
"247 700 LINE",
"33 700 LINE",
"60 248 LINE"
);
},
{
closed = 1;
nodes = (
"48 20 OFFCURVE",
"81 -13 OFFCURVE",
"140 -13 CURVE SMOOTH",
"199 -13 OFFCURVE",
"231 20 OFFCURVE",
"231 80 CURVE SMOOTH",
"231 140 OFFCURVE",
"199 173 OFFCURVE",
"140 173 CURVE SMOOTH",
"81 173 OFFCURVE",
"48 140 OFFCURVE",
"48 80 CURVE SMOOTH"
);
}
);
width = 280;
},
{
associatedMasterId = "335260E3-B850-4550-8CEC-14CE68ACF16F";
layerId = "A3F0DF3F-6E5C-40C3-B5F9-213A49682D58";
name = "Light Italic";
paths = (
{
closed = 1;
nodes = (
"97 161 LINE",
"215 667 LINE",
"173 667 LINE",
"77 161 LINE"
);
},
{
closed = 1;
nodes = (
"16 6 OFFCURVE",
"26 -7 OFFCURVE",
"49 -7 CURVE SMOOTH",
"71 -7 OFFCURVE",
"87 6 OFFCURVE",
"92 29 CURVE SMOOTH",
"97 52 OFFCURVE",
"86 65 OFFCURVE",
"64 65 CURVE SMOOTH",
"42 65 OFFCURVE",
"26 52 OFFCURVE",
"21 29 CURVE SMOOTH"
);
}
);
width = 208;
},
{
associatedMasterId = "335260E3-B850-4550-8CEC-14CE68ACF16F";
layerId = "C7F6927E-AE81-4ED8-A250-E7EE5BA9BBA4";
name = "Bold Italic";
paths = (
{
closed = 1;
nodes = (
"223 248 LINE",
"337 667 LINE",
"123 667 LINE",
"61 248 LINE"
);
},
{
closed = 1;
nodes = (
"1 20 OFFCURVE",
"27 -13 OFFCURVE",
"86 -13 CURVE SMOOTH",
"145 -13 OFFCURVE",
"184 20 OFFCURVE",
"197 80 CURVE SMOOTH",
"209 140 OFFCURVE",
"184 173 OFFCURVE",
"125 173 CURVE SMOOTH",
"66 173 OFFCURVE",
"26 140 OFFCURVE",
"14 80 CURVE SMOOTH"
);
}
);
width = 280;
},
{
associatedMasterId = "335260E3-B850-4550-8CEC-14CE68ACF16F";
layerId = "C904C5FD-088D-4660-AED1-28B1A7BC3F9F";
name = "new Layer";
paths = (
{
closed = 1;
nodes = (
"114 161 LINE",
"125 667 LINE",
"83 667 LINE",
"94 161 LINE"
);
},
{
closed = 1;
nodes = (
"71 0 LINE",
"132 0 LINE",
"132 62 LINE",
"71 62 LINE"
);
}
);
width = 208;
}
);
leftKerningGroup = exclam;
note = exclam;
unicode = 0021;
},
{
glyphname = exclamdown;
lastChange = "2020-04-15 03:30:09 +0000";
layers = (
{
layerId = "335260E3-B850-4550-8CEC-14CE68ACF16F";
paths = (
{
closed = 1;
nodes = (
"83 -178 LINE",
"125 -178 LINE",
"114 328 LINE",
"94 328 LINE"
);
},
{
closed = 1;
nodes = (
"69 435 OFFCURVE",
"82 422 OFFCURVE",
"105 422 CURVE SMOOTH",
"127 422 OFFCURVE",
"140 435 OFFCURVE",
"140 458 CURVE SMOOTH",
"140 481 OFFCURVE",
"127 494 OFFCURVE",
"105 494 CURVE SMOOTH",
"83 494 OFFCURVE",
"69 481 OFFCURVE",
"69 458 CURVE SMOOTH"
);
}
);
width = 208;
},
{
layerId = "D5A55CBB-56DB-4AD9-B643-4353D3BE6F68";
paths = (
{
closed = 1;
nodes = (
"33 -178 LINE",
"247 -178 LINE",
"222 241 LINE",
"60 241 LINE"
);
},
{
closed = 1;
nodes = (
"51 338 OFFCURVE",
"84 305 OFFCURVE",
"143 305 CURVE SMOOTH",
"202 305 OFFCURVE",
"234 338 OFFCURVE",
"234 398 CURVE SMOOTH",
"234 458 OFFCURVE",
"202 491 OFFCURVE",
"143 491 CURVE SMOOTH",
"84 491 OFFCURVE",
"51 458 OFFCURVE",
"51 398 CURVE SMOOTH"
);
}
);
width = 280;
},
{
associatedMasterId = "335260E3-B850-4550-8CEC-14CE68ACF16F";
layerId = "A3F0DF3F-6E5C-40C3-B5F9-213A49682D58";
name = "Light Italic";
paths = (
{
closed = 1;
nodes = (
"-6 -178 LINE",
"36 -178 LINE",
"132 328 LINE",
"112 328 LINE"
);
},
{
closed = 1;
nodes = (
"110 435 OFFCURVE",
"120 422 OFFCURVE",
"143 422 CURVE SMOOTH",
"165 422 OFFCURVE",
"181 435 OFFCURVE",
"186 458 CURVE SMOOTH",
"191 481 OFFCURVE",
"181 494 OFFCURVE",
"159 494 CURVE SMOOTH",
"137 494 OFFCURVE",
"120 481 OFFCURVE",
"115 458 CURVE SMOOTH"
);
}
);
width = 208;
},
{
associatedMasterId = "335260E3-B850-4550-8CEC-14CE68ACF16F";
layerId = "C7F6927E-AE81-4ED8-A250-E7EE5BA9BBA4";
name = "Bold Italic";
paths = (
{
closed = 1;
nodes = (
"-56 -178 LINE",
"158 -178 LINE",
"222 241 LINE",
"60 241 LINE"
);
},
{
closed = 1;
nodes = (
"72 338 OFFCURVE",
"97 305 OFFCURVE",
"156 305 CURVE SMOOTH",
"215 305 OFFCURVE",
"255 338 OFFCURVE",
"267 398 CURVE SMOOTH",
"280 458 OFFCURVE",
"255 491 OFFCURVE",
"196 491 CURVE SMOOTH",
"137 491 OFFCURVE",
"97 458 OFFCURVE",
"84 398 CURVE SMOOTH"
);
}
);
width = 280;
},
{
associatedMasterId = "335260E3-B850-4550-8CEC-14CE68ACF16F";
layerId = "C904C5FD-088D-4660-AED1-28B1A7BC3F9F";
name = "new Layer";
paths = (
{
closed = 1;
nodes = (
"83 -178 LINE",
"125 -178 LINE",
"114 328 LINE",
"94 328 LINE"
);
},
{
closed = 1;
nodes = (
"132 427 LINE",
"132 489 LINE",
"71 489 LINE",
"71 427 LINE"
);
}
);
width = 208;
}
);
leftKerningGroup = exclam;
note = exclam;
unicode = 00A1;
},
{
glyphname = question;
lastChange = "2020-08-30 17:15:35 +0000";
layers = (
{
layerId = "335260E3-B850-4550-8CEC-14CE68ACF16F";
paths = (
{
closed = 1;
nodes = (
"235 161 LINE",
"235 191 OFFCURVE",
"235 257 OFFCURVE",
"235 277 CURVE SMOOTH",
"235 388 OFFCURVE",
"426 407 OFFCURVE",
"426 557 CURVE SMOOTH",
"426 642 OFFCURVE",
"353 710 OFFCURVE",
"240 710 CURVE SMOOTH",
"147 710 OFFCURVE",
"76 674 OFFCURVE",
"26 603 CURVE",
"49 582 LINE",
"94 646 OFFCURVE",
"149 680 OFFCURVE",
"240 680 CURVE SMOOTH",
"335 680 OFFCURVE",
"391 626 OFFCURVE",
"391 557 CURVE SMOOTH",
"391 418 OFFCURVE",
"205 414 OFFCURVE",
"205 277 CURVE SMOOTH",
"205 248 OFFCURVE",
"205 189 OFFCURVE",
"205 161 CURVE"
);
},
{
closed = 1;
nodes = (
"198 2 OFFCURVE",
"207 -7 OFFCURVE",
"223 -7 CURVE SMOOTH",
"238 -7 OFFCURVE",
"247 2 OFFCURVE",
"247 18 CURVE SMOOTH",
"247 34 OFFCURVE",
"238 43 OFFCURVE",
"223 43 CURVE SMOOTH",
"208 43 OFFCURVE",
"198 34 OFFCURVE",
"198 18 CURVE SMOOTH"
);
}
);
width = 467;
},
{
layerId = "D5A55CBB-56DB-4AD9-B643-4353D3BE6F68";
paths = (
{
closed = 1;
nodes = (
"310 242 LINE",
"310 272 OFFCURVE",
"310 318 OFFCURVE",
"310 335 CURVE SMOOTH",
"310 403 OFFCURVE",
"442 413 OFFCURVE",
"442 554 CURVE SMOOTH",
"442 653 OFFCURVE",
"357 715 OFFCURVE",
"222 715 CURVE SMOOTH",
"144 715 OFFCURVE",
"58 686 OFFCURVE",
"0 624 CURVE",
"112 495 LINE",
"137 521 OFFCURVE",
"173 537 OFFCURVE",
"199 537 CURVE SMOOTH",
"230 537 OFFCURVE",
"238 528 OFFCURVE",
"238 516 CURVE SMOOTH",
"238 485 OFFCURVE",
"136 466 OFFCURVE",
"136 357 CURVE SMOOTH",
"136 317 OFFCURVE",
"136 272 OFFCURVE",
"136 242 CURVE"
);
},
{
closed = 1;
nodes = (
"129 20 OFFCURVE",
"162 -13 OFFCURVE",
"221 -13 CURVE SMOOTH",
"280 -13 OFFCURVE",
"312 20 OFFCURVE",
"312 80 CURVE SMOOTH",
"312 140 OFFCURVE",
"280 173 OFFCURVE",
"221 173 CURVE SMOOTH",
"162 173 OFFCURVE",
"129 140 OFFCURVE",
"129 80 CURVE SMOOTH"
);
}
);
width = 450;
},
{
associatedMasterId = "335260E3-B850-4550-8CEC-14CE68ACF16F";
layerId = "A3F0DF3F-6E5C-40C3-B5F9-213A49682D58";
name = "Light Italic";
paths = (
{
closed = 1;
nodes = (
"219 168 LINE",
"226 198 OFFCURVE",
"231 224 OFFCURVE",
"236 244 CURVE SMOOTH",
"259 355 OFFCURVE",
"454 374 OFFCURVE",
"486 524 CURVE SMOOTH",
"504 609 OFFCURVE",
"446 677 OFFCURVE",
"333 677 CURVE SMOOTH",
"240 677 OFFCURVE",
"161 641 OFFCURVE",
"96 570 CURVE",
"114 549 LINE",
"173 613 OFFCURVE",
"235 647 OFFCURVE",
"326 647 CURVE SMOOTH",
"421 647 OFFCURVE",
"466 593 OFFCURVE",
"451 524 CURVE SMOOTH",
"422 385 OFFCURVE",
"235 381 OFFCURVE",
"206 244 CURVE SMOOTH",
"199 215 OFFCURVE",
"195 196 OFFCURVE",
"189 168 CURVE"
);
},
{
closed = 1;
nodes = (
"137 6 OFFCURVE",
"147 -7 OFFCURVE",
"170 -7 CURVE SMOOTH",
"192 -7 OFFCURVE",
"208 6 OFFCURVE",
"213 29 CURVE SMOOTH",
"218 52 OFFCURVE",
"207 65 OFFCURVE",
"185 65 CURVE SMOOTH",
"163 65 OFFCURVE",
"147 52 OFFCURVE",
"142 29 CURVE SMOOTH"
);
}
);
width = 467;
},
{
associatedMasterId = "335260E3-B850-4550-8CEC-14CE68ACF16F";
layerId = "C7F6927E-AE81-4ED8-A250-E7EE5BA9BBA4";
name = "Bold Italic";
paths = (
{
closed = 1;
nodes = (
"309 237 LINE",
"315 267 OFFCURVE",
"318 280 OFFCURVE",
"322 297 CURVE SMOOTH",
"336 365 OFFCURVE",
"470 375 OFFCURVE",
"500 516 CURVE SMOOTH",
"521 615 OFFCURVE",
"450 677 OFFCURVE",
"315 677 CURVE SMOOTH",
"237 677 OFFCURVE",
"144 648 OFFCURVE",
"73 586 CURVE",
"158 457 LINE",
"188 483 OFFCURVE",
"228 499 OFFCURVE",
"254 499 CURVE SMOOTH",
"285 499 OFFCURVE",
"291 490 OFFCURVE",
"288 478 CURVE SMOOTH",
"282 447 OFFCURVE",
"176 428 OFFCURVE",
"152 319 CURVE SMOOTH",
"144 279 OFFCURVE",
"141 267 OFFCURVE",
"135 237 CURVE"
);
},
{
closed = 1;
nodes = (
"82 20 OFFCURVE",
"108 -13 OFFCURVE",
"167 -13 CURVE SMOOTH",
"226 -13 OFFCURVE",
"265 20 OFFCURVE",
"278 80 CURVE SMOOTH",
"290 140 OFFCURVE",
"265 173 OFFCURVE",
"206 173 CURVE SMOOTH",
"147 173 OFFCURVE",
"107 140 OFFCURVE",
"95 80 CURVE SMOOTH"
);
}
);
width = 450;
},
{
associatedMasterId = "335260E3-B850-4550-8CEC-14CE68ACF16F";
layerId = "C904C5FD-088D-4660-AED1-28B1A7BC3F9F";
name = "new Layer";
paths = (
{
closed = 1;
nodes = (
"235 168 LINE",
"235 198 OFFCURVE",
"235 224 OFFCURVE",
"235 244 CURVE SMOOTH",
"235 355 OFFCURVE",
"426 374 OFFCURVE",
"426 524 CURVE SMOOTH",
"426 609 OFFCURVE",
"353 677 OFFCURVE",
"240 677 CURVE SMOOTH",
"147 677 OFFCURVE",
"76 641 OFFCURVE",
"26 570 CURVE",
"49 549 LINE",
"94 613 OFFCURVE",
"149 647 OFFCURVE",
"240 647 CURVE SMOOTH",
"335 647 OFFCURVE",
"391 593 OFFCURVE",
"391 524 CURVE SMOOTH",
"391 385 OFFCURVE",
"205 381 OFFCURVE",
"205 244 CURVE SMOOTH",
"205 215 OFFCURVE",
"205 196 OFFCURVE",
"205 168 CURVE"
);
},
{
closed = 1;
nodes = (
"188 0 LINE",
"249 0 LINE",
"249 62 LINE",
"188 62 LINE"
);
}
);
width = 467;
}
);
leftKerningGroup = question;
note = question;
unicode = 003F;
},
{
glyphname = questiondown;
lastChange = "2020-04-15 03:30:09 +0000";
layers = (
{
layerId = "335260E3-B850-4550-8CEC-14CE68ACF16F";
paths = (
{
closed = 1;
nodes = (
"232 338 LINE",
"232 308 OFFCURVE",
"232 282 OFFCURVE",
"232 262 CURVE SMOOTH",
"232 151 OFFCURVE",
"41 132 OFFCURVE",
"41 -18 CURVE SMOOTH",
"41 -103 OFFCURVE",
"114 -171 OFFCURVE",
"227 -171 CURVE SMOOTH",
"320 -171 OFFCURVE",
"391 -135 OFFCURVE",
"441 -64 CURVE",
"418 -43 LINE",
"373 -107 OFFCURVE",
"318 -141 OFFCURVE",
"227 -141 CURVE SMOOTH",
"132 -141 OFFCURVE",
"76 -87 OFFCURVE",
"76 -18 CURVE SMOOTH",
"76 121 OFFCURVE",
"262 125 OFFCURVE",
"262 262 CURVE SMOOTH",
"262 291 OFFCURVE",
"262 310 OFFCURVE",
"262 338 CURVE"
);
},
{
closed = 1;
nodes = (
"279 506 LINE",
"218 506 LINE",
"218 444 LINE",
"279 444 LINE"
);
}
);
width = 467;
},
{
layerId = "D5A55CBB-56DB-4AD9-B643-4353D3BE6F68";
paths = (
{
closed = 1;
nodes = (
"140 268 LINE",
"140 238 OFFCURVE",
"140 225 OFFCURVE",
"140 208 CURVE SMOOTH",
"140 140 OFFCURVE",
"8 130 OFFCURVE",
"8 -11 CURVE SMOOTH",
"8 -110 OFFCURVE",
"93 -172 OFFCURVE",
"228 -172 CURVE SMOOTH",
"306 -172 OFFCURVE",
"392 -143 OFFCURVE",
"450 -81 CURVE",
"338 48 LINE",
"313 22 OFFCURVE",
"277 6 OFFCURVE",
"251 6 CURVE SMOOTH",
"220 6 OFFCURVE",
"212 15 OFFCURVE",
"212 27 CURVE SMOOTH",
"212 58 OFFCURVE",
"314 77 OFFCURVE",
"314 186 CURVE SMOOTH",
"314 226 OFFCURVE",
"314 238 OFFCURVE",
"314 268 CURVE"
);
},
{
closed = 1;
nodes = (
"319 506 LINE",
"136 506 LINE",
"136 320 LINE",
"319 320 LINE"
);
}
);
width = 450;
},
{
associatedMasterId = "335260E3-B850-4550-8CEC-14CE68ACF16F";
layerId = "A3F0DF3F-6E5C-40C3-B5F9-213A49682D58";
name = "Light Italic";
paths = (
{
closed = 1;
nodes = (
"253 338 LINE",
"246 308 OFFCURVE",
"241 282 OFFCURVE",
"236 262 CURVE SMOOTH",
"213 151 OFFCURVE",
"18 132 OFFCURVE",
"-14 -18 CURVE SMOOTH",
"-32 -103 OFFCURVE",
"26 -171 OFFCURVE",
"139 -171 CURVE SMOOTH",
"232 -171 OFFCURVE",
"311 -135 OFFCURVE",
"376 -64 CURVE",
"358 -43 LINE",
"299 -107 OFFCURVE",
"237 -141 OFFCURVE",
"146 -141 CURVE SMOOTH",
"51 -141 OFFCURVE",
"6 -87 OFFCURVE",
"21 -18 CURVE SMOOTH",
"50 121 OFFCURVE",
"237 125 OFFCURVE",
"266 262 CURVE SMOOTH",
"273 291 OFFCURVE",
"277 310 OFFCURVE",
"283 338 CURVE"
);
},
{
closed = 1;
nodes = (
"335 506 LINE",
"274 506 LINE",
"261 444 LINE",
"322 444 LINE"
);
}
);
width = 467;
},
{
associatedMasterId = "335260E3-B850-4550-8CEC-14CE68ACF16F";
layerId = "C7F6927E-AE81-4ED8-A250-E7EE5BA9BBA4";
name = "Bold Italic";
paths = (
{
closed = 1;
nodes = (
"146 268 LINE",
"139 238 OFFCURVE",
"136 225 OFFCURVE",
"133 208 CURVE SMOOTH",
"118 140 OFFCURVE",
"-16 130 OFFCURVE",
"-46 -11 CURVE SMOOTH",
"-67 -110 OFFCURVE",
"5 -172 OFFCURVE",
"140 -172 CURVE SMOOTH",
"218 -172 OFFCURVE",
"310 -143 OFFCURVE",
"381 -81 CURVE",
"297 48 LINE",
"266 22 OFFCURVE",
"227 6 OFFCURVE",
"201 6 CURVE SMOOTH",
"170 6 OFFCURVE",
"164 15 OFFCURVE",
"166 27 CURVE SMOOTH",
"173 58 OFFCURVE",
"279 77 OFFCURVE",
"302 186 CURVE SMOOTH",
"311 226 OFFCURVE",
"313 238 OFFCURVE",
"320 268 CURVE"
);
},
{
closed = 1;
nodes = (
"375 506 LINE",
"192 506 LINE",
"153 320 LINE",
"336 320 LINE"
);
}
);
width = 450;
},
{
associatedMasterId = "335260E3-B850-4550-8CEC-14CE68ACF16F";
layerId = "C904C5FD-088D-4660-AED1-28B1A7BC3F9F";
name = "new Layer";
paths = (
{
closed = 1;
nodes = (
"232 338 LINE",
"232 308 OFFCURVE",
"232 282 OFFCURVE",
"232 262 CURVE SMOOTH",
"232 151 OFFCURVE",
"41 132 OFFCURVE",
"41 -18 CURVE SMOOTH",
"41 -103 OFFCURVE",
"114 -171 OFFCURVE",
"227 -171 CURVE SMOOTH",
"320 -171 OFFCURVE",
"391 -135 OFFCURVE",
"441 -64 CURVE",
"418 -43 LINE",
"373 -107 OFFCURVE",
"318 -141 OFFCURVE",
"227 -141 CURVE SMOOTH",
"132 -141 OFFCURVE",
"76 -87 OFFCURVE",
"76 -18 CURVE SMOOTH",
"76 121 OFFCURVE",
"262 125 OFFCURVE",
"262 262 CURVE SMOOTH",
"262 291 OFFCURVE",
"262 310 OFFCURVE",
"262 338 CURVE"
);
},
{
closed = 1;
nodes = (
"279 506 LINE",
"218 506 LINE",
"218 444 LINE",
"279 444 LINE"
);
}
);
width = 467;
}
);
leftKerningGroup = question;
note = question;
unicode = 00BF;
},
{
glyphname = periodcentered;
lastChange = "2020-04-15 03:30:09 +0000";
layers = (
{
layerId = "335260E3-B850-4550-8CEC-14CE68ACF16F";
paths = (
{
closed = 1;
nodes = (
"74 209 LINE",
"135 209 LINE",
"135 271 LINE",
"74 271 LINE"
);
}
);
width = 208;
},
{
layerId = "D5A55CBB-56DB-4AD9-B643-4353D3BE6F68";
paths = (
{
closed = 1;
nodes = (
"51 153 LINE",
"234 153 LINE",
"234 339 LINE",
"51 339 LINE"
);
}
);
width = 283;
},
{
associatedMasterId = "335260E3-B850-4550-8CEC-14CE68ACF16F";
layerId = "A3F0DF3F-6E5C-40C3-B5F9-213A49682D58";
name = "Light Italic";
paths = (
{
closed = 1;
nodes = (
"67 209 LINE",
"128 209 LINE",
"141 271 LINE",
"80 271 LINE"
);
}
);
width = 208;
},
{
associatedMasterId = "335260E3-B850-4550-8CEC-14CE68ACF16F";
layerId = "C7F6927E-AE81-4ED8-A250-E7EE5BA9BBA4";
name = "Bold Italic";
paths = (
{
closed = 1;
nodes = (
"32 153 LINE",
"215 153 LINE",
"255 339 LINE",
"72 339 LINE"
);
}
);
width = 283;
},
{
associatedMasterId = "335260E3-B850-4550-8CEC-14CE68ACF16F";
layerId = "C904C5FD-088D-4660-AED1-28B1A7BC3F9F";
name = "new Layer";
paths = (
{
closed = 1;
nodes = (
"74 209 LINE",
"135 209 LINE",
"135 271 LINE",
"74 271 LINE"
);
}
);
width = 208;
}
);
leftKerningGroup = hyphen;
note = periodcentered;
rightKerningGroup = hyphen;
unicode = 00B7;
},
{
glyphname = bullet;
lastChange = "2020-04-15 03:30:09 +0000";
layers = (
{
layerId = "335260E3-B850-4550-8CEC-14CE68ACF16F";
paths = (
{
closed = 1;
nodes = (
"278 296 OFFCURVE",
"234 340 OFFCURVE",
"180 340 CURVE SMOOTH",
"127 340 OFFCURVE",
"82 295 OFFCURVE",
"82 242 CURVE SMOOTH",
"82 189 OFFCURVE",
"127 145 OFFCURVE",
"180 145 CURVE SMOOTH",
"233 145 OFFCURVE",
"278 189 OFFCURVE",
"278 242 CURVE SMOOTH"
);
}
);
width = 358;
},
{
layerId = "D5A55CBB-56DB-4AD9-B643-4353D3BE6F68";
paths = (
{
closed = 1;
nodes = (
"310 314 OFFCURVE",
"252 372 OFFCURVE",
"180 372 CURVE SMOOTH",
"108 372 OFFCURVE",
"50 314 OFFCURVE",
"50 242 CURVE SMOOTH",
"50 171 OFFCURVE",
"108 113 OFFCURVE",
"180 113 CURVE SMOOTH",
"252 113 OFFCURVE",
"310 171 OFFCURVE",
"310 242 CURVE SMOOTH"
);
}
);
width = 358;
},
{
associatedMasterId = "335260E3-B850-4550-8CEC-14CE68ACF16F";
layerId = "A3F0DF3F-6E5C-40C3-B5F9-213A49682D58";
name = "Light Italic";
paths = (
{
closed = 1;
nodes = (
"290 296 OFFCURVE",
"255 340 OFFCURVE",
"201 340 CURVE SMOOTH",
"148 340 OFFCURVE",
"93 295 OFFCURVE",
"82 242 CURVE SMOOTH",
"71 189 OFFCURVE",
"106 145 OFFCURVE",
"159 145 CURVE SMOOTH",
"212 145 OFFCURVE",
"267 189 OFFCURVE",
"278 242 CURVE SMOOTH"
);
}
);
width = 358;
},
{
associatedMasterId = "335260E3-B850-4550-8CEC-14CE68ACF16F";
layerId = "C7F6927E-AE81-4ED8-A250-E7EE5BA9BBA4";
name = "Bold Italic";
paths = (
{
closed = 1;
nodes = (
"325 314 OFFCURVE",
"280 372 OFFCURVE",
"208 372 CURVE SMOOTH",
"136 372 OFFCURVE",
"65 314 OFFCURVE",
"50 242 CURVE SMOOTH",
"35 171 OFFCURVE",
"81 113 OFFCURVE",
"153 113 CURVE SMOOTH",
"225 113 OFFCURVE",
"295 171 OFFCURVE",
"310 242 CURVE SMOOTH"
);
}
);
width = 358;
},
{
associatedMasterId = "335260E3-B850-4550-8CEC-14CE68ACF16F";
layerId = "C904C5FD-088D-4660-AED1-28B1A7BC3F9F";
name = "new Layer";
paths = (
{
closed = 1;
nodes = (
"278 296 OFFCURVE",
"234 340 OFFCURVE",
"180 340 CURVE SMOOTH",
"127 340 OFFCURVE",
"82 295 OFFCURVE",
"82 242 CURVE SMOOTH",
"82 189 OFFCURVE",
"127 145 OFFCURVE",
"180 145 CURVE SMOOTH",
"233 145 OFFCURVE",
"278 189 OFFCURVE",
"278 242 CURVE SMOOTH"
);
}
);
width = 358;
}
);
leftKerningGroup = bullet;
note = bullet;
rightKerningGroup = bullet;
unicode = 2022;
},
{
glyphname = asterisk;
lastChange = "2020-04-15 03:30:09 +0000";
layers = (
{
layerId = "335260E3-B850-4550-8CEC-14CE68ACF16F";
paths = (
{
closed = 1;
nodes = (
"41 489 LINE",
"56 463 LINE",
"156 528 LINE",
"150 409 LINE",
"180 409 LINE",
"174 528 LINE",
"274 463 LINE",
"289 489 LINE",
"183 543 LINE",
"289 597 LINE",
"274 623 LINE",
"174 558 LINE",
"180 677 LINE",
"150 677 LINE",
"156 558 LINE",
"56 623 LINE",
"41 597 LINE",
"147 543 LINE"
);
}
);
width = 330;
},
{
layerId = "D5A55CBB-56DB-4AD9-B643-4353D3BE6F68";
paths = (
{
closed = 1;
nodes = (
"17 462 LINE",
"57 392 LINE",
"145 448 LINE",
"141 343 LINE",
"222 343 LINE",
"217 448 LINE",
"305 392 LINE",
"346 462 LINE",
"253 510 LINE",
"346 558 LINE",
"305 628 LINE",
"217 572 LINE",
"222 677 LINE",
"141 677 LINE",
"145 572 LINE",
"57 628 LINE",
"17 558 LINE",
"109 510 LINE"
);
}
);
width = 363;
},
{
associatedMasterId = "335260E3-B850-4550-8CEC-14CE68ACF16F";
layerId = "A3F0DF3F-6E5C-40C3-B5F9-213A49682D58";
name = "Light Italic";
paths = (
{
closed = 1;
nodes = (
"94 489 LINE",
"103 463 LINE",
"217 528 LINE",
"186 409 LINE",
"216 409 LINE",
"235 528 LINE",
"321 463 LINE",
"342 489 LINE",
"247 543 LINE",
"365 597 LINE",
"355 623 LINE",
"241 558 LINE",
"273 677 LINE",
"243 677 LINE",
"223 558 LINE",
"137 623 LINE",
"117 597 LINE",
"211 543 LINE"
);
}
);
width = 330;
},
{
associatedMasterId = "335260E3-B850-4550-8CEC-14CE68ACF16F";
layerId = "C7F6927E-AE81-4ED8-A250-E7EE5BA9BBA4";
name = "Bold Italic";
paths = (
{
closed = 1;
nodes = (
"64 462 LINE",
"89 392 LINE",
"189 448 LINE",
"163 343 LINE",
"244 343 LINE",
"261 448 LINE",
"337 392 LINE",
"393 462 LINE",
"310 510 LINE",
"413 558 LINE",
"387 628 LINE",
"287 572 LINE",
"315 677 LINE",
"234 677 LINE",
"215 572 LINE",
"139 628 LINE",
"84 558 LINE",
"166 510 LINE"
);
}
);
width = 363;
},
{
associatedMasterId = "335260E3-B850-4550-8CEC-14CE68ACF16F";
layerId = "C904C5FD-088D-4660-AED1-28B1A7BC3F9F";
name = "new Layer";
paths = (
{
closed = 1;
nodes = (
"41 489 LINE",
"56 463 LINE",
"156 528 LINE",
"150 409 LINE",
"180 409 LINE",
"174 528 LINE",
"274 463 LINE",
"289 489 LINE",
"183 543 LINE",
"289 597 LINE",
"274 623 LINE",
"174 558 LINE",
"180 677 LINE",
"150 677 LINE",
"156 558 LINE",
"56 623 LINE",
"41 597 LINE",
"147 543 LINE"
);
}
);
width = 330;
}
);
leftKerningGroup = asterisk;
note = asterisk;
rightKerningGroup = asterisk;
unicode = 002A;
},
{
glyphname = numbersign;
lastChange = "2020-04-15 03:30:09 +0000";
layers = (
{
layerId = "335260E3-B850-4550-8CEC-14CE68ACF16F";
paths = (
{
closed = 1;
nodes = (
"267 0 LINE",
"331 191 LINE",
"451 191 LINE",
"460 220 LINE",
"340 220 LINE",
"417 447 LINE",
"534 447 LINE",
"541 476 LINE",
"426 476 LINE",
"490 667 LINE",
"457 667 LINE",
"394 476 LINE",
"270 476 LINE",
"333 667 LINE",
"300 667 LINE",
"237 476 LINE",
"118 476 LINE",
"110 447 LINE",
"227 447 LINE",
"151 220 LINE",
"35 220 LINE",
"26 191 LINE",
"141 191 LINE",
"77 0 LINE",
"110 0 LINE",
"174 191 LINE",
"299 191 LINE",
"234 0 LINE"
);
},
{
closed = 1;
nodes = (
"307 220 LINE",
"184 220 LINE",
"260 447 LINE",
"384 447 LINE"
);
}
);
width = 567;
},
{
layerId = "D5A55CBB-56DB-4AD9-B643-4353D3BE6F68";
paths = (
{
closed = 1;
nodes = (
"377 0 LINE",
"429 158 LINE",
"523 158 LINE",
"557 267 LINE",
"466 267 LINE",
"510 399 LINE",
"601 399 LINE",
"634 507 LINE",
"546 507 LINE",
"600 667 LINE",
"473 667 LINE",
"420 507 LINE",
"342 507 LINE",
"395 667 LINE",
"268 667 LINE",
"215 507 LINE",
"125 507 LINE",
"91 399 LINE",
"178 399 LINE",
"135 267 LINE",
"47 267 LINE",
"12 158 LINE",
"98 158 LINE",
"45 0 LINE",
"172 0 LINE",
"224 158 LINE",
"303 158 LINE",
"250 0 LINE"
);
},
{
closed = 1;
nodes = (
"339 267 LINE",
"262 267 LINE",
"305 399 LINE",
"383 399 LINE"
);
}
);
width = 646;
},
{
associatedMasterId = "335260E3-B850-4550-8CEC-14CE68ACF16F";
layerId = "A3F0DF3F-6E5C-40C3-B5F9-213A49682D58";
name = "Light Italic";
paths = (
{
closed = 1;
nodes = (
"216 0 LINE",
"320 191 LINE",
"440 191 LINE",
"455 220 LINE",
"335 220 LINE",
"461 447 LINE",
"578 447 LINE",
"591 476 LINE",
"476 476 LINE",
"580 667 LINE",
"547 667 LINE",
"444 476 LINE",
"320 476 LINE",
"423 667 LINE",
"390 667 LINE",
"287 476 LINE",
"168 476 LINE",
"154 447 LINE",
"271 447 LINE",
"146 220 LINE",
"30 220 LINE",
"15 191 LINE",
"130 191 LINE",
"26 0 LINE",
"59 0 LINE",
"163 191 LINE",
"288 191 LINE",
"183 0 LINE"
);
},
{
closed = 1;
nodes = (
"302 220 LINE",
"179 220 LINE",
"304 447 LINE",
"428 447 LINE"
);
}
);
width = 567;
},
{
associatedMasterId = "335260E3-B850-4550-8CEC-14CE68ACF16F";
layerId = "C7F6927E-AE81-4ED8-A250-E7EE5BA9BBA4";
name = "Bold Italic";
paths = (
{
closed = 1;
nodes = (
"326 0 LINE",
"411 158 LINE",
"505 158 LINE",
"562 267 LINE",
"471 267 LINE",
"543 399 LINE",
"634 399 LINE",
"690 507 LINE",
"602 507 LINE",
"690 667 LINE",
"563 667 LINE",
"476 507 LINE",
"398 507 LINE",
"485 667 LINE",
"358 667 LINE",
"271 507 LINE",
"181 507 LINE",
"124 399 LINE",
"211 399 LINE",
"140 267 LINE",
"52 267 LINE",
"-6 158 LINE",
"80 158 LINE",
"-6 0 LINE",
"121 0 LINE",
"206 158 LINE",
"285 158 LINE",
"199 0 LINE"
);
},
{
closed = 1;
nodes = (
"344 267 LINE",
"267 267 LINE",
"338 399 LINE",
"416 399 LINE"
);
}
);
width = 646;
},
{
associatedMasterId = "335260E3-B850-4550-8CEC-14CE68ACF16F";
layerId = "C904C5FD-088D-4660-AED1-28B1A7BC3F9F";
name = "new Layer";
paths = (
{
closed = 1;
nodes = (
"267 0 LINE",
"331 191 LINE",
"451 191 LINE",
"460 220 LINE",
"340 220 LINE",
"417 447 LINE",
"534 447 LINE",
"541 476 LINE",
"426 476 LINE",
"490 667 LINE",
"457 667 LINE",
"394 476 LINE",
"270 476 LINE",
"333 667 LINE",
"300 667 LINE",
"237 476 LINE",
"118 476 LINE",
"110 447 LINE",
"227 447 LINE",
"151 220 LINE",
"35 220 LINE",
"26 191 LINE",
"141 191 LINE",
"77 0 LINE",
"110 0 LINE",
"174 191 LINE",
"299 191 LINE",
"234 0 LINE"
);
},
{
closed = 1;
nodes = (
"307 220 LINE",
"184 220 LINE",
"260 447 LINE",
"384 447 LINE"
);
}
);
width = 567;
}
);
note = numbersign;
unicode = 0023;
},
{
glyphname = slash;
lastChange = "2020-08-30 17:03:38 +0000";
layers = (
{
layerId = "335260E3-B850-4550-8CEC-14CE68ACF16F";
paths = (
{
closed = 1;
nodes = (
"237 687 LINE",
"0 -20 LINE",
"31 -20 LINE",
"268 687 LINE"
);
}
);
width = 268;
},
{
layerId = "D5A55CBB-56DB-4AD9-B643-4353D3BE6F68";
paths = (
{
closed = 1;
nodes = (
"237 687 LINE",
"0 -20 LINE",
"185 -20 LINE",
"422 687 LINE"
);
}
);
width = 422;
},
{
associatedMasterId = "335260E3-B850-4550-8CEC-14CE68ACF16F";
layerId = "A3F0DF3F-6E5C-40C3-B5F9-213A49682D58";
name = "Light Italic";
paths = (
{
closed = 1;
nodes = (
"332 687 LINE",
"-56 -20 LINE",
"-25 -20 LINE",
"363 687 LINE"
);
}
);
width = 268;
},
{
associatedMasterId = "335260E3-B850-4550-8CEC-14CE68ACF16F";
layerId = "C7F6927E-AE81-4ED8-A250-E7EE5BA9BBA4";
name = "Bold Italic";
paths = (
{
closed = 1;
nodes = (
"332 687 LINE",
"-56 -20 LINE",
"69 -20 LINE",
"457 687 LINE"
);
}
);
width = 362;
},
{
associatedMasterId = "335260E3-B850-4550-8CEC-14CE68ACF16F";
layerId = "C904C5FD-088D-4660-AED1-28B1A7BC3F9F";
name = "new Layer";
paths = (
{
closed = 1;
nodes = (
"237 687 LINE",
"0 -20 LINE",
"31 -20 LINE",
"268 687 LINE"
);
}
);
width = 268;
}
);
note = slash;
unicode = 002F;
},
{
glyphname = backslash;
lastChange = "2020-09-13 02:03:22 +0000";
layers = (
{
layerId = "335260E3-B850-4550-8CEC-14CE68ACF16F";
paths = (
{
closed = 1;
nodes = (
"237 -20 LINE",
"268 -20 LINE",
"31 687 LINE",
"0 687 LINE"
);
}
);
width = 268;
},
{
layerId = "D5A55CBB-56DB-4AD9-B643-4353D3BE6F68";
paths = (
{
closed = 1;
nodes = (
"237 -20 LINE",
"422 -20 LINE",
"185 687 LINE",
"0 687 LINE"
);
}
);
width = 422;
},
{
associatedMasterId = "335260E3-B850-4550-8CEC-14CE68ACF16F";
layerId = "A3F0DF3F-6E5C-40C3-B5F9-213A49682D58";
name = "Light Italic";
paths = (
{
closed = 1;
nodes = (
"181 -20 LINE",
"212 -20 LINE",
"126 687 LINE",
"95 687 LINE"
);
}
);
width = 268;
},
{
associatedMasterId = "335260E3-B850-4550-8CEC-14CE68ACF16F";
layerId = "C7F6927E-AE81-4ED8-A250-E7EE5BA9BBA4";
name = "Bold Italic";
paths = (
{
closed = 1;
nodes = (
"181 -20 LINE",
"306 -20 LINE",
"220 687 LINE",
"95 687 LINE"
);
}
);
width = 362;
},
{
associatedMasterId = "335260E3-B850-4550-8CEC-14CE68ACF16F";
layerId = "C904C5FD-088D-4660-AED1-28B1A7BC3F9F";
name = "new Layer";
paths = (
{
closed = 1;
nodes = (
"237 -20 LINE",
"268 -20 LINE",
"31 687 LINE",
"0 687 LINE"
);
}
);
width = 268;
}
);
note = backslash;
unicode = 005C;
},
{
glyphname = colon.alt;
lastChange = "2020-04-15 03:30:09 +0000";
layers = (
{
layerId = "335260E3-B850-4550-8CEC-14CE68ACF16F";
paths = (
{
closed = 1;
nodes = (
"66 69 OFFCURVE",
"79 56 OFFCURVE",
"102 56 CURVE SMOOTH",
"124 56 OFFCURVE",
"137 69 OFFCURVE",
"137 92 CURVE SMOOTH",
"137 115 OFFCURVE",
"124 128 OFFCURVE",
"102 128 CURVE SMOOTH",
"80 128 OFFCURVE",
"66 115 OFFCURVE",
"66 92 CURVE SMOOTH"
);
},
{
closed = 1;
nodes = (
"66 492 OFFCURVE",
"79 479 OFFCURVE",
"102 479 CURVE SMOOTH",
"124 479 OFFCURVE",
"137 492 OFFCURVE",
"137 515 CURVE SMOOTH",
"137 538 OFFCURVE",
"124 551 OFFCURVE",
"102 551 CURVE SMOOTH",
"80 551 OFFCURVE",
"66 538 OFFCURVE",
"66 515 CURVE SMOOTH"
);
}
);
width = 208;
},
{
layerId = "D5A55CBB-56DB-4AD9-B643-4353D3BE6F68";
paths = (
{
closed = 1;
nodes = (
"51 100 OFFCURVE",
"84 67 OFFCURVE",
"143 67 CURVE SMOOTH",
"202 67 OFFCURVE",
"234 100 OFFCURVE",
"234 160 CURVE SMOOTH",
"234 220 OFFCURVE",
"202 253 OFFCURVE",
"143 253 CURVE SMOOTH",
"84 253 OFFCURVE",
"51 220 OFFCURVE",
"51 160 CURVE SMOOTH"
);
},
{
closed = 1;
nodes = (
"51 417 OFFCURVE",
"84 384 OFFCURVE",
"143 384 CURVE SMOOTH",
"202 384 OFFCURVE",
"234 417 OFFCURVE",
"234 477 CURVE SMOOTH",
"234 537 OFFCURVE",
"202 570 OFFCURVE",
"143 570 CURVE SMOOTH",
"84 570 OFFCURVE",
"51 537 OFFCURVE",
"51 477 CURVE SMOOTH"
);
}
);
width = 281;
},
{
associatedMasterId = "335260E3-B850-4550-8CEC-14CE68ACF16F";
layerId = "A3F0DF3F-6E5C-40C3-B5F9-213A49682D58";
name = "Light Italic";
paths = (
{
closed = 1;
nodes = (
"16 6 OFFCURVE",
"26 -7 OFFCURVE",
"49 -7 CURVE SMOOTH",
"71 -7 OFFCURVE",
"87 6 OFFCURVE",
"92 29 CURVE SMOOTH",
"97 52 OFFCURVE",
"86 65 OFFCURVE",
"64 65 CURVE SMOOTH",
"42 65 OFFCURVE",
"26 52 OFFCURVE",
"21 29 CURVE SMOOTH"
);
},
{
closed = 1;
nodes = (
"106 429 OFFCURVE",
"116 416 OFFCURVE",
"139 416 CURVE SMOOTH",
"161 416 OFFCURVE",
"177 429 OFFCURVE",
"182 452 CURVE SMOOTH",
"187 475 OFFCURVE",
"176 488 OFFCURVE",
"154 488 CURVE SMOOTH",
"132 488 OFFCURVE",
"116 475 OFFCURVE",
"111 452 CURVE SMOOTH"
);
}
);
width = 208;
},
{
associatedMasterId = "335260E3-B850-4550-8CEC-14CE68ACF16F";
layerId = "C7F6927E-AE81-4ED8-A250-E7EE5BA9BBA4";
name = "Bold Italic";
paths = (
{
closed = 1;
nodes = (
"4 20 OFFCURVE",
"30 -13 OFFCURVE",
"89 -13 CURVE SMOOTH",
"148 -13 OFFCURVE",
"187 20 OFFCURVE",
"200 80 CURVE SMOOTH",
"212 140 OFFCURVE",
"187 173 OFFCURVE",
"128 173 CURVE SMOOTH",
"69 173 OFFCURVE",
"29 140 OFFCURVE",
"17 80 CURVE SMOOTH"
);
},
{
closed = 1;
nodes = (
"71 337 OFFCURVE",
"97 304 OFFCURVE",
"156 304 CURVE SMOOTH",
"215 304 OFFCURVE",
"254 337 OFFCURVE",
"267 397 CURVE SMOOTH",
"280 457 OFFCURVE",
"255 490 OFFCURVE",
"196 490 CURVE SMOOTH",
"137 490 OFFCURVE",
"97 457 OFFCURVE",
"84 397 CURVE SMOOTH"
);
}
);
width = 281;
},
{
associatedMasterId = "335260E3-B850-4550-8CEC-14CE68ACF16F";
layerId = "C904C5FD-088D-4660-AED1-28B1A7BC3F9F";
name = "new Layer";
paths = (
{
closed = 1;
nodes = (
"74 -7 LINE",
"135 -7 LINE",
"135 55 LINE",
"74 55 LINE"
);
},
{
closed = 1;
nodes = (
"74 426 LINE",
"135 426 LINE",
"135 488 LINE",
"74 488 LINE"
);
}
);
width = 208;
}
);
leftKerningGroup = colon;
note = colon;
rightKerningGroup = colon;
},
{
glyphname = colon.centered;
lastChange = "2020-09-11 21:10:29 +0000";
layers = (
{
layerId = "335260E3-B850-4550-8CEC-14CE68ACF16F";
paths = (
{
closed = 1;
nodes = (
"60 143 OFFCURVE",
"73 130 OFFCURVE",
"96 130 CURVE SMOOTH",
"118 130 OFFCURVE",
"131 143 OFFCURVE",
"131 166 CURVE SMOOTH",
"131 189 OFFCURVE",
"118 202 OFFCURVE",
"96 202 CURVE SMOOTH",
"74 202 OFFCURVE",
"60 189 OFFCURVE",
"60 166 CURVE SMOOTH"
);
},
{
closed = 1;
nodes = (
"60 448 OFFCURVE",
"73 435 OFFCURVE",
"96 435 CURVE SMOOTH",
"118 435 OFFCURVE",
"131 448 OFFCURVE",
"131 471 CURVE SMOOTH",
"131 494 OFFCURVE",
"118 507 OFFCURVE",
"96 507 CURVE SMOOTH",
"74 507 OFFCURVE",
"60 494 OFFCURVE",
"60 471 CURVE SMOOTH"
);
}
);
width = 201;
},
{
layerId = "D5A55CBB-56DB-4AD9-B643-4353D3BE6F68";
paths = (
{
closed = 1;
nodes = (
"30 133 OFFCURVE",
"63 100 OFFCURVE",
"122 100 CURVE SMOOTH",
"181 100 OFFCURVE",
"213 133 OFFCURVE",
"213 193 CURVE SMOOTH",
"213 253 OFFCURVE",
"181 286 OFFCURVE",
"122 286 CURVE SMOOTH",
"63 286 OFFCURVE",
"30 253 OFFCURVE",
"30 193 CURVE SMOOTH"
);
},
{
closed = 1;
nodes = (
"30 370 OFFCURVE",
"63 337 OFFCURVE",
"122 337 CURVE SMOOTH",
"181 337 OFFCURVE",
"213 370 OFFCURVE",
"213 430 CURVE SMOOTH",
"213 490 OFFCURVE",
"181 523 OFFCURVE",
"122 523 CURVE SMOOTH",
"63 523 OFFCURVE",
"30 490 OFFCURVE",
"30 430 CURVE SMOOTH"
);
}
);
width = 263;
},
{
associatedMasterId = "335260E3-B850-4550-8CEC-14CE68ACF16F";
layerId = "A3F0DF3F-6E5C-40C3-B5F9-213A49682D58";
name = "Light Italic";
paths = (
{
closed = 1;
nodes = (
"16 6 OFFCURVE",
"26 -7 OFFCURVE",
"49 -7 CURVE SMOOTH",
"71 -7 OFFCURVE",
"87 6 OFFCURVE",
"92 29 CURVE SMOOTH",
"97 52 OFFCURVE",
"86 65 OFFCURVE",
"64 65 CURVE SMOOTH",
"42 65 OFFCURVE",
"26 52 OFFCURVE",
"21 29 CURVE SMOOTH"
);
},
{
closed = 1;
nodes = (
"106 429 OFFCURVE",
"116 416 OFFCURVE",
"139 416 CURVE SMOOTH",
"161 416 OFFCURVE",
"177 429 OFFCURVE",
"182 452 CURVE SMOOTH",
"187 475 OFFCURVE",
"176 488 OFFCURVE",
"154 488 CURVE SMOOTH",
"132 488 OFFCURVE",
"116 475 OFFCURVE",
"111 452 CURVE SMOOTH"
);
}
);
width = 208;
},
{
associatedMasterId = "335260E3-B850-4550-8CEC-14CE68ACF16F";
layerId = "C7F6927E-AE81-4ED8-A250-E7EE5BA9BBA4";
name = "Bold Italic";
paths = (
{
closed = 1;
nodes = (
"4 20 OFFCURVE",
"30 -13 OFFCURVE",
"89 -13 CURVE SMOOTH",
"148 -13 OFFCURVE",
"187 20 OFFCURVE",
"200 80 CURVE SMOOTH",
"212 140 OFFCURVE",
"187 173 OFFCURVE",
"128 173 CURVE SMOOTH",
"69 173 OFFCURVE",
"29 140 OFFCURVE",
"17 80 CURVE SMOOTH"
);
},
{
closed = 1;
nodes = (
"71 337 OFFCURVE",
"97 304 OFFCURVE",
"156 304 CURVE SMOOTH",
"215 304 OFFCURVE",
"254 337 OFFCURVE",
"267 397 CURVE SMOOTH",
"280 457 OFFCURVE",
"255 490 OFFCURVE",
"196 490 CURVE SMOOTH",
"137 490 OFFCURVE",
"97 457 OFFCURVE",
"84 397 CURVE SMOOTH"
);
}
);
width = 281;
},
{
associatedMasterId = "335260E3-B850-4550-8CEC-14CE68ACF16F";
layerId = "C904C5FD-088D-4660-AED1-28B1A7BC3F9F";
name = "new Layer";
paths = (
{
closed = 1;
nodes = (
"74 -7 LINE",
"135 -7 LINE",
"135 55 LINE",
"74 55 LINE"
);
},
{
closed = 1;
nodes = (
"74 426 LINE",
"135 426 LINE",
"135 488 LINE",
"74 488 LINE"
);
}
);
width = 208;
}
);
leftKerningGroup = colon;
note = colon;
rightKerningGroup = colon;
},
{
glyphname = parenleft;
lastChange = "2020-04-15 03:30:09 +0000";
layers = (
{
layerId = "335260E3-B850-4550-8CEC-14CE68ACF16F";
paths = (
{
closed = 1;
nodes = (
"189 -82 LINE",
"117 67 OFFCURVE",
"82 183 OFFCURVE",
"82 348 CURVE SMOOTH",
"82 515 OFFCURVE",
"117 627 OFFCURVE",
"189 779 CURVE",
"173 790 LINE",
"89 653 OFFCURVE",
"47 505 OFFCURVE",
"47 348 CURVE SMOOTH",
"47 191 OFFCURVE",
"89 43 OFFCURVE",
"173 -94 CURVE"
);
}
);
width = 206;
},
{
layerId = "D5A55CBB-56DB-4AD9-B643-4353D3BE6F68";
paths = (
{
closed = 1;
nodes = (
"328 -5 LINE",
"257 110 OFFCURVE",
"230 215 OFFCURVE",
"230 348 CURVE SMOOTH",
"230 482 OFFCURVE",
"257 586 OFFCURVE",
"328 703 CURVE",
"214 790 LINE",
"108 695 OFFCURVE",
"37 509 OFFCURVE",
"37 348 CURVE SMOOTH",
"37 187 OFFCURVE",
"108 1 OFFCURVE",
"214 -94 CURVE"
);
}
);
width = 346;
},
{
associatedMasterId = "335260E3-B850-4550-8CEC-14CE68ACF16F";
layerId = "A3F0DF3F-6E5C-40C3-B5F9-213A49682D58";
name = "Light Italic";
paths = (
{
closed = 1;
nodes = (
"120 -82 LINE",
"80 67 OFFCURVE",
"70 183 OFFCURVE",
"105 348 CURVE SMOOTH",
"140 515 OFFCURVE",
"199 627 OFFCURVE",
"303 779 CURVE",
"290 790 LINE",
"176 653 OFFCURVE",
"103 505 OFFCURVE",
"70 348 CURVE SMOOTH",
"36 191 OFFCURVE",
"47 43 OFFCURVE",
"102 -94 CURVE"
);
}
);
width = 206;
},
{
associatedMasterId = "335260E3-B850-4550-8CEC-14CE68ACF16F";
layerId = "C7F6927E-AE81-4ED8-A250-E7EE5BA9BBA4";
name = "Bold Italic";
paths = (
{
closed = 1;
nodes = (
"276 -5 LINE",
"229 110 OFFCURVE",
"224 215 OFFCURVE",
"253 348 CURVE SMOOTH",
"281 482 OFFCURVE",
"330 586 OFFCURVE",
"426 703 CURVE",
"331 790 LINE",
"204 695 OFFCURVE",
"94 509 OFFCURVE",
"60 348 CURVE SMOOTH",
"25 187 OFFCURVE",
"57 1 OFFCURVE",
"143 -94 CURVE"
);
}
);
width = 346;
},
{
associatedMasterId = "335260E3-B850-4550-8CEC-14CE68ACF16F";
layerId = "C904C5FD-088D-4660-AED1-28B1A7BC3F9F";
name = "new Layer";
paths = (
{
closed = 1;
nodes = (
"189 -82 LINE",
"117 67 OFFCURVE",
"82 183 OFFCURVE",
"82 348 CURVE SMOOTH",
"82 515 OFFCURVE",
"117 627 OFFCURVE",
"189 779 CURVE",
"173 790 LINE",
"89 653 OFFCURVE",
"47 505 OFFCURVE",
"47 348 CURVE SMOOTH",
"47 191 OFFCURVE",
"89 43 OFFCURVE",
"173 -94 CURVE"
);
}
);
width = 206;
}
);
note = parenleft;
rightKerningGroup = parenleft;
unicode = 0028;
},
{
glyphname = parenright;
lastChange = "2020-04-15 03:30:09 +0000";
layers = (
{
layerId = "335260E3-B850-4550-8CEC-14CE68ACF16F";
paths = (
{
closed = 1;
nodes = (
"17 779 LINE",
"89 627 OFFCURVE",
"124 515 OFFCURVE",
"124 348 CURVE SMOOTH",
"124 183 OFFCURVE",
"89 67 OFFCURVE",
"17 -82 CURVE",
"33 -94 LINE",
"117 43 OFFCURVE",
"159 191 OFFCURVE",
"159 348 CURVE SMOOTH",
"159 505 OFFCURVE",
"117 653 OFFCURVE",
"33 790 CURVE"
);
}
);
width = 206;
},
{
layerId = "D5A55CBB-56DB-4AD9-B643-4353D3BE6F68";
paths = (
{
closed = 1;
nodes = (
"19 703 LINE",
"90 586 OFFCURVE",
"117 482 OFFCURVE",
"117 348 CURVE SMOOTH",
"117 215 OFFCURVE",
"90 110 OFFCURVE",
"19 -5 CURVE",
"133 -94 LINE",
"239 1 OFFCURVE",
"310 187 OFFCURVE",
"310 348 CURVE SMOOTH",
"310 509 OFFCURVE",
"239 695 OFFCURVE",
"133 790 CURVE"
);
}
);
width = 347;
},
{
associatedMasterId = "335260E3-B850-4550-8CEC-14CE68ACF16F";
layerId = "A3F0DF3F-6E5C-40C3-B5F9-213A49682D58";
name = "Light Italic";
paths = (
{
closed = 1;
nodes = (
"131 779 LINE",
"171 627 OFFCURVE",
"182 515 OFFCURVE",
"147 348 CURVE SMOOTH",
"112 183 OFFCURVE",
"52 67 OFFCURVE",
"-52 -82 CURVE",
"-38 -94 LINE",
"75 43 OFFCURVE",
"148 191 OFFCURVE",
"182 348 CURVE SMOOTH",
"215 505 OFFCURVE",
"204 653 OFFCURVE",
"150 790 CURVE"
);
}
);
width = 206;
},
{
associatedMasterId = "335260E3-B850-4550-8CEC-14CE68ACF16F";
layerId = "C7F6927E-AE81-4ED8-A250-E7EE5BA9BBA4";
name = "Bold Italic";
paths = (
{
closed = 1;
nodes = (
"117 703 LINE",
"163 586 OFFCURVE",
"168 482 OFFCURVE",
"140 348 CURVE SMOOTH",
"111 215 OFFCURVE",
"62 110 OFFCURVE",
"-33 -5 CURVE",
"62 -94 LINE",
"188 1 OFFCURVE",
"298 187 OFFCURVE",
"333 348 CURVE SMOOTH",
"367 509 OFFCURVE",
"335 695 OFFCURVE",
"250 790 CURVE"
);
}
);
width = 347;
},
{
associatedMasterId = "335260E3-B850-4550-8CEC-14CE68ACF16F";
layerId = "C904C5FD-088D-4660-AED1-28B1A7BC3F9F";
name = "new Layer";
paths = (
{
closed = 1;
nodes = (
"17 779 LINE",
"89 627 OFFCURVE",
"124 515 OFFCURVE",
"124 348 CURVE SMOOTH",
"124 183 OFFCURVE",
"89 67 OFFCURVE",
"17 -82 CURVE",
"33 -94 LINE",
"117 43 OFFCURVE",
"159 191 OFFCURVE",
"159 348 CURVE SMOOTH",
"159 505 OFFCURVE",
"117 653 OFFCURVE",
"33 790 CURVE"
);
}
);
width = 206;
}
);
leftKerningGroup = parenright;
note = parenright;
unicode = 0029;
},
{
glyphname = braceleft;
lastChange = "2020-04-15 03:30:09 +0000";
layers = (
{
layerId = "335260E3-B850-4550-8CEC-14CE68ACF16F";
paths = (
{
closed = 1;
nodes = (
"7 339 LINE",
"40 339 OFFCURVE",
"59 307 OFFCURVE",
"59 267 CURVE SMOOTH",
"59 33 LINE SMOOTH",
"59 -32 OFFCURVE",
"106 -80 OFFCURVE",
"158 -80 CURVE SMOOTH",
"220 -80 LINE",
"220 -50 LINE",
"158 -50 LINE SMOOTH",
"121 -50 OFFCURVE",
"89 -14 OFFCURVE",
"89 33 CURVE SMOOTH",
"89 267 LINE SMOOTH",
"89 312 OFFCURVE",
"74 341 OFFCURVE",
"44 354 CURVE",
"74 367 OFFCURVE",
"89 396 OFFCURVE",
"89 441 CURVE SMOOTH",
"89 675 LINE SMOOTH",
"89 722 OFFCURVE",
"121 758 OFFCURVE",
"158 758 CURVE SMOOTH",
"220 758 LINE",
"220 788 LINE",
"158 788 LINE SMOOTH",
"106 788 OFFCURVE",
"59 740 OFFCURVE",
"59 675 CURVE SMOOTH",
"59 441 LINE SMOOTH",
"59 401 OFFCURVE",
"40 369 OFFCURVE",
"7 369 CURVE"
);
}
);
width = 237;
},
{
layerId = "D5A55CBB-56DB-4AD9-B643-4353D3BE6F68";
paths = (
{
closed = 1;
nodes = (
"2 309 LINE",
"37 309 OFFCURVE",
"54 282 OFFCURVE",
"54 245 CURVE SMOOTH",
"54 106 LINE SMOOTH",
"54 -10 OFFCURVE",
"142 -78 OFFCURVE",
"239 -78 CURVE SMOOTH",
"299 -78 LINE",
"299 36 LINE",
"239 36 LINE SMOOTH",
"206 36 OFFCURVE",
"179 64 OFFCURVE",
"179 107 CURVE SMOOTH",
"179 265 LINE SMOOTH",
"179 307 OFFCURVE",
"166 342 OFFCURVE",
"133 356 CURVE",
"166 370 OFFCURVE",
"179 405 OFFCURVE",
"179 447 CURVE SMOOTH",
"179 606 LINE SMOOTH",
"179 650 OFFCURVE",
"206 676 OFFCURVE",
"239 676 CURVE SMOOTH",
"299 676 LINE",
"299 790 LINE",
"239 790 LINE SMOOTH",
"142 790 OFFCURVE",
"54 721 OFFCURVE",
"54 605 CURVE SMOOTH",
"54 467 LINE SMOOTH",
"54 430 OFFCURVE",
"37 403 OFFCURVE",
"2 403 CURVE"
);
}
);
width = 317;
},
{
associatedMasterId = "335260E3-B850-4550-8CEC-14CE68ACF16F";
layerId = "A3F0DF3F-6E5C-40C3-B5F9-213A49682D58";
name = "Light Italic";
paths = (
{
closed = 1;
nodes = (
"28 339 LINE",
"61 339 OFFCURVE",
"73 307 OFFCURVE",
"64 267 CURVE SMOOTH",
"15 33 LINE SMOOTH",
"1 -32 OFFCURVE",
"38 -80 OFFCURVE",
"90 -80 CURVE SMOOTH",
"152 -80 LINE",
"158 -50 LINE",
"96 -50 LINE SMOOTH",
"59 -50 OFFCURVE",
"35 -14 OFFCURVE",
"45 33 CURVE SMOOTH",
"94 267 LINE SMOOTH",
"104 312 OFFCURVE",
"95 341 OFFCURVE",
"68 354 CURVE",
"101 367 OFFCURVE",
"122 396 OFFCURVE",
"131 441 CURVE SMOOTH",
"181 675 LINE SMOOTH",
"191 722 OFFCURVE",
"231 758 OFFCURVE",
"268 758 CURVE SMOOTH",
"330 758 LINE",
"336 788 LINE",
"274 788 LINE SMOOTH",
"222 788 OFFCURVE",
"165 740 OFFCURVE",
"151 675 CURVE SMOOTH",
"101 441 LINE SMOOTH",
"93 401 OFFCURVE",
"67 369 OFFCURVE",
"34 369 CURVE"
);
}
);
width = 237;
},
{
associatedMasterId = "335260E3-B850-4550-8CEC-14CE68ACF16F";
layerId = "C7F6927E-AE81-4ED8-A250-E7EE5BA9BBA4";
name = "Bold Italic";
paths = (
{
closed = 1;
nodes = (
"16 309 LINE",
"51 309 OFFCURVE",
"63 282 OFFCURVE",
"55 245 CURVE SMOOTH",
"25 106 LINE SMOOTH",
"1 -10 OFFCURVE",
"74 -78 OFFCURVE",
"171 -78 CURVE SMOOTH",
"231 -78 LINE",
"255 36 LINE",
"195 36 LINE SMOOTH",
"162 36 OFFCURVE",
"141 64 OFFCURVE",
"150 107 CURVE SMOOTH",
"184 265 LINE SMOOTH",
"193 307 OFFCURVE",
"187 342 OFFCURVE",
"157 356 CURVE",
"193 370 OFFCURVE",
"214 405 OFFCURVE",
"223 447 CURVE SMOOTH",
"256 606 LINE SMOOTH",
"266 650 OFFCURVE",
"298 676 OFFCURVE",
"331 676 CURVE SMOOTH",
"391 676 LINE",
"416 790 LINE",
"356 790 LINE SMOOTH",
"259 790 OFFCURVE",
"156 721 OFFCURVE",
"131 605 CURVE SMOOTH",
"102 467 LINE SMOOTH",
"94 430 OFFCURVE",
"71 403 OFFCURVE",
"36 403 CURVE"
);
}
);
width = 317;
},
{
associatedMasterId = "335260E3-B850-4550-8CEC-14CE68ACF16F";
layerId = "C904C5FD-088D-4660-AED1-28B1A7BC3F9F";
name = "new Layer";
paths = (
{
closed = 1;
nodes = (
"7 339 LINE",
"40 339 OFFCURVE",
"59 307 OFFCURVE",
"59 267 CURVE SMOOTH",
"59 33 LINE SMOOTH",
"59 -32 OFFCURVE",
"106 -80 OFFCURVE",
"158 -80 CURVE SMOOTH",
"220 -80 LINE",
"220 -50 LINE",
"158 -50 LINE SMOOTH",
"121 -50 OFFCURVE",
"89 -14 OFFCURVE",
"89 33 CURVE SMOOTH",
"89 267 LINE SMOOTH",
"89 312 OFFCURVE",
"74 341 OFFCURVE",
"44 354 CURVE",
"74 367 OFFCURVE",
"89 396 OFFCURVE",
"89 441 CURVE SMOOTH",
"89 675 LINE SMOOTH",
"89 722 OFFCURVE",
"121 758 OFFCURVE",
"158 758 CURVE SMOOTH",
"220 758 LINE",
"220 788 LINE",
"158 788 LINE SMOOTH",
"106 788 OFFCURVE",
"59 740 OFFCURVE",
"59 675 CURVE SMOOTH",
"59 441 LINE SMOOTH",
"59 401 OFFCURVE",
"40 369 OFFCURVE",
"7 369 CURVE"
);
}
);
width = 237;
}
);
note = braceleft;
rightKerningGroup = parenleft;
unicode = 007B;
},
{
glyphname = braceright;
lastChange = "2020-04-15 03:30:09 +0000";
layers = (
{
layerId = "335260E3-B850-4550-8CEC-14CE68ACF16F";
paths = (
{
closed = 1;
nodes = (
"197 369 OFFCURVE",
"178 401 OFFCURVE",
"178 441 CURVE SMOOTH",
"178 675 LINE SMOOTH",
"178 740 OFFCURVE",
"131 788 OFFCURVE",
"79 788 CURVE SMOOTH",
"17 788 LINE",
"17 758 LINE",
"79 758 LINE SMOOTH",
"116 758 OFFCURVE",
"148 722 OFFCURVE",
"148 675 CURVE SMOOTH",
"148 441 LINE SMOOTH",
"148 396 OFFCURVE",
"163 367 OFFCURVE",
"193 354 CURVE",
"163 341 OFFCURVE",
"148 312 OFFCURVE",
"148 267 CURVE SMOOTH",
"148 33 LINE SMOOTH",
"148 -14 OFFCURVE",
"116 -50 OFFCURVE",
"79 -50 CURVE SMOOTH",
"17 -50 LINE",
"17 -80 LINE",
"79 -80 LINE SMOOTH",
"131 -80 OFFCURVE",
"178 -32 OFFCURVE",
"178 33 CURVE SMOOTH",
"178 267 LINE SMOOTH",
"178 307 OFFCURVE",
"197 339 OFFCURVE",
"230 339 CURVE",
"230 369 LINE"
);
}
);
width = 237;
},
{
layerId = "D5A55CBB-56DB-4AD9-B643-4353D3BE6F68";
paths = (
{
closed = 1;
nodes = (
"279 403 OFFCURVE",
"262 430 OFFCURVE",
"262 467 CURVE SMOOTH",
"262 605 LINE SMOOTH",
"262 721 OFFCURVE",
"174 790 OFFCURVE",
"77 790 CURVE SMOOTH",
"17 790 LINE",
"17 676 LINE",
"77 676 LINE SMOOTH",
"110 676 OFFCURVE",
"137 650 OFFCURVE",
"137 606 CURVE SMOOTH",
"137 447 LINE SMOOTH",
"137 405 OFFCURVE",
"150 370 OFFCURVE",
"183 356 CURVE",
"150 342 OFFCURVE",
"137 307 OFFCURVE",
"137 265 CURVE SMOOTH",
"137 107 LINE SMOOTH",
"137 64 OFFCURVE",
"110 36 OFFCURVE",
"77 36 CURVE SMOOTH",
"17 36 LINE",
"17 -78 LINE",
"77 -78 LINE SMOOTH",
"174 -78 OFFCURVE",
"262 -10 OFFCURVE",
"262 106 CURVE SMOOTH",
"262 245 LINE SMOOTH",
"262 282 OFFCURVE",
"279 309 OFFCURVE",
"314 309 CURVE",
"314 403 LINE"
);
}
);
width = 316;
},
{
associatedMasterId = "335260E3-B850-4550-8CEC-14CE68ACF16F";
layerId = "A3F0DF3F-6E5C-40C3-B5F9-213A49682D58";
name = "Light Italic";
paths = (
{
closed = 1;
nodes = (
"224 369 OFFCURVE",
"212 401 OFFCURVE",
"220 441 CURVE SMOOTH",
"270 675 LINE SMOOTH",
"284 740 OFFCURVE",
"247 788 OFFCURVE",
"195 788 CURVE SMOOTH",
"133 788 LINE",
"127 758 LINE",
"189 758 LINE SMOOTH",
"226 758 OFFCURVE",
"250 722 OFFCURVE",
"240 675 CURVE SMOOTH",
"190 441 LINE SMOOTH",
"181 396 OFFCURVE",
"190 367 OFFCURVE",
"217 354 CURVE",
"184 341 OFFCURVE",
"163 312 OFFCURVE",
"153 267 CURVE SMOOTH",
"104 33 LINE SMOOTH",
"94 -14 OFFCURVE",
"54 -50 OFFCURVE",
"17 -50 CURVE SMOOTH",
"-45 -50 LINE",
"-51 -80 LINE",
"11 -80 LINE SMOOTH",
"63 -80 OFFCURVE",
"120 -32 OFFCURVE",
"134 33 CURVE SMOOTH",
"183 267 LINE SMOOTH",
"192 307 OFFCURVE",
"218 339 OFFCURVE",
"251 339 CURVE",
"257 369 LINE"
);
}
);
width = 237;
},
{
associatedMasterId = "335260E3-B850-4550-8CEC-14CE68ACF16F";
layerId = "C7F6927E-AE81-4ED8-A250-E7EE5BA9BBA4";
name = "Bold Italic";
paths = (
{
closed = 1;
nodes = (
"313 403 OFFCURVE",
"302 430 OFFCURVE",
"310 467 CURVE SMOOTH",
"339 605 LINE SMOOTH",
"364 721 OFFCURVE",
"291 790 OFFCURVE",
"194 790 CURVE SMOOTH",
"134 790 LINE",
"109 676 LINE",
"169 676 LINE SMOOTH",
"202 676 OFFCURVE",
"224 650 OFFCURVE",
"214 606 CURVE SMOOTH",
"181 447 LINE SMOOTH",
"172 405 OFFCURVE",
"177 370 OFFCURVE",
"207 356 CURVE",
"171 342 OFFCURVE",
"151 307 OFFCURVE",
"142 265 CURVE SMOOTH",
"108 107 LINE SMOOTH",
"99 64 OFFCURVE",
"66 36 OFFCURVE",
"33 36 CURVE SMOOTH",
"-27 36 LINE",
"-51 -78 LINE",
"9 -78 LINE SMOOTH",
"106 -78 OFFCURVE",
"209 -10 OFFCURVE",
"233 106 CURVE SMOOTH",
"263 245 LINE SMOOTH",
"271 282 OFFCURVE",
"293 309 OFFCURVE",
"328 309 CURVE",
"348 403 LINE"
);
}
);
width = 316;
},
{
associatedMasterId = "335260E3-B850-4550-8CEC-14CE68ACF16F";
layerId = "C904C5FD-088D-4660-AED1-28B1A7BC3F9F";
name = "new Layer";
paths = (
{
closed = 1;
nodes = (
"197 369 OFFCURVE",
"178 401 OFFCURVE",
"178 441 CURVE SMOOTH",
"178 675 LINE SMOOTH",
"178 740 OFFCURVE",
"131 788 OFFCURVE",
"79 788 CURVE SMOOTH",
"17 788 LINE",
"17 758 LINE",
"79 758 LINE SMOOTH",
"116 758 OFFCURVE",
"148 722 OFFCURVE",
"148 675 CURVE SMOOTH",
"148 441 LINE SMOOTH",
"148 396 OFFCURVE",
"163 367 OFFCURVE",
"193 354 CURVE",
"163 341 OFFCURVE",
"148 312 OFFCURVE",
"148 267 CURVE SMOOTH",
"148 33 LINE SMOOTH",
"148 -14 OFFCURVE",
"116 -50 OFFCURVE",
"79 -50 CURVE SMOOTH",
"17 -50 LINE",
"17 -80 LINE",
"79 -80 LINE SMOOTH",
"131 -80 OFFCURVE",
"178 -32 OFFCURVE",
"178 33 CURVE SMOOTH",
"178 267 LINE SMOOTH",
"178 307 OFFCURVE",
"197 339 OFFCURVE",
"230 339 CURVE",
"230 369 LINE"
);
}
);
width = 237;
}
);
note = braceleft;
rightKerningGroup = parenleft;
unicode = 007D;
},
{
glyphname = bracketleft;
lastChange = "2020-04-15 03:30:09 +0000";
layers = (
{
layerId = "335260E3-B850-4550-8CEC-14CE68ACF16F";
paths = (
{
closed = 1;
nodes = (
"64 -48 LINE",
"64 760 LINE",
"195 760 LINE",
"195 790 LINE",
"34 790 LINE",
"34 -78 LINE",
"195 -78 LINE",
"195 -48 LINE"
);
}
);
width = 212;
},
{
layerId = "D5A55CBB-56DB-4AD9-B643-4353D3BE6F68";
paths = (
{
closed = 1;
nodes = (
"179 36 LINE",
"179 676 LINE",
"299 676 LINE",
"299 790 LINE",
"54 790 LINE",
"54 -78 LINE",
"299 -78 LINE",
"299 36 LINE"
);
}
);
width = 317;
},
{
associatedMasterId = "335260E3-B850-4550-8CEC-14CE68ACF16F";
layerId = "A3F0DF3F-6E5C-40C3-B5F9-213A49682D58";
name = "Light Italic";
paths = (
{
closed = 1;
nodes = (
"2 -48 LINE",
"174 760 LINE",
"305 760 LINE",
"312 790 LINE",
"151 790 LINE",
"-34 -78 LINE",
"127 -78 LINE",
"133 -48 LINE"
);
}
);
width = 212;
},
{
associatedMasterId = "335260E3-B850-4550-8CEC-14CE68ACF16F";
layerId = "C7F6927E-AE81-4ED8-A250-E7EE5BA9BBA4";
name = "Bold Italic";
paths = (
{
closed = 1;
nodes = (
"135 36 LINE",
"271 676 LINE",
"391 676 LINE",
"416 790 LINE",
"171 790 LINE",
"-14 -78 LINE",
"231 -78 LINE",
"255 36 LINE"
);
}
);
width = 317;
},
{
associatedMasterId = "335260E3-B850-4550-8CEC-14CE68ACF16F";
layerId = "C904C5FD-088D-4660-AED1-28B1A7BC3F9F";
name = "new Layer";
paths = (
{
closed = 1;
nodes = (
"64 -48 LINE",
"64 760 LINE",
"195 760 LINE",
"195 790 LINE",
"34 790 LINE",
"34 -78 LINE",
"195 -78 LINE",
"195 -48 LINE"
);
}
);
width = 212;
}
);
note = bracketleft;
rightKerningGroup = parenleft;
unicode = 005B;
},
{
glyphname = bracketright;
lastChange = "2020-04-15 03:30:09 +0000";
layers = (
{
layerId = "335260E3-B850-4550-8CEC-14CE68ACF16F";
paths = (
{
closed = 1;
nodes = (
"17 790 LINE",
"17 760 LINE",
"148 760 LINE",
"148 -48 LINE",
"17 -48 LINE",
"17 -78 LINE",
"178 -78 LINE",
"178 790 LINE"
);
}
);
width = 212;
},
{
layerId = "D5A55CBB-56DB-4AD9-B643-4353D3BE6F68";
paths = (
{
closed = 1;
nodes = (
"18 790 LINE",
"18 676 LINE",
"138 676 LINE",
"138 36 LINE",
"18 36 LINE",
"18 -78 LINE",
"263 -78 LINE",
"263 790 LINE"
);
}
);
width = 317;
},
{
associatedMasterId = "335260E3-B850-4550-8CEC-14CE68ACF16F";
layerId = "A3F0DF3F-6E5C-40C3-B5F9-213A49682D58";
name = "Light Italic";
paths = (
{
closed = 1;
nodes = (
"134 790 LINE",
"127 760 LINE",
"258 760 LINE",
"86 -48 LINE",
"-45 -48 LINE",
"-51 -78 LINE",
"110 -78 LINE",
"295 790 LINE"
);
}
);
width = 212;
},
{
associatedMasterId = "335260E3-B850-4550-8CEC-14CE68ACF16F";
layerId = "C7F6927E-AE81-4ED8-A250-E7EE5BA9BBA4";
name = "Bold Italic";
paths = (
{
closed = 1;
nodes = (
"135 790 LINE",
"110 676 LINE",
"230 676 LINE",
"94 36 LINE",
"-26 36 LINE",
"-50 -78 LINE",
"195 -78 LINE",
"380 790 LINE"
);
}
);
width = 317;
},
{
associatedMasterId = "335260E3-B850-4550-8CEC-14CE68ACF16F";
layerId = "C904C5FD-088D-4660-AED1-28B1A7BC3F9F";
name = "new Layer";
paths = (
{
closed = 1;
nodes = (
"17 790 LINE",
"17 760 LINE",
"148 760 LINE",
"148 -48 LINE",
"17 -48 LINE",
"17 -78 LINE",
"178 -78 LINE",
"178 790 LINE"
);
}
);
width = 212;
}
);
leftKerningGroup = parenright;
note = bracketright;
unicode = 005D;
},
{
glyphname = hyphen;
lastChange = "2020-09-13 01:51:24 +0000";
layers = (
{
layerId = "335260E3-B850-4550-8CEC-14CE68ACF16F";
paths = (
{
closed = 1;
nodes = (
"290 227 LINE",
"290 257 LINE",
"50 257 LINE",
"50 227 LINE"
);
}
);
width = 360;
},
{
layerId = "D5A55CBB-56DB-4AD9-B643-4353D3BE6F68";
paths = (
{
closed = 1;
nodes = (
"280 167 LINE",
"280 317 LINE",
"40 317 LINE",
"40 167 LINE"
);
}
);
width = 360;
},
{
associatedMasterId = "335260E3-B850-4550-8CEC-14CE68ACF16F";
layerId = "A3F0DF3F-6E5C-40C3-B5F9-213A49682D58";
name = "Light Italic";
paths = (
{
closed = 1;
nodes = (
"267 227 LINE",
"273 257 LINE",
"33 257 LINE",
"27 227 LINE"
);
}
);
width = 300;
},
{
associatedMasterId = "335260E3-B850-4550-8CEC-14CE68ACF16F";
layerId = "C7F6927E-AE81-4ED8-A250-E7EE5BA9BBA4";
name = "Bold Italic";
paths = (
{
closed = 1;
nodes = (
"254 167 LINE",
"286 317 LINE",
"46 317 LINE",
"14 167 LINE"
);
}
);
width = 300;
},
{
associatedMasterId = "335260E3-B850-4550-8CEC-14CE68ACF16F";
layerId = "C904C5FD-088D-4660-AED1-28B1A7BC3F9F";
name = "new Layer";
paths = (
{
closed = 1;
nodes = (
"270 227 LINE",
"270 257 LINE",
"30 257 LINE",
"30 227 LINE"
);
}
);
width = 300;
}
);
leftKerningGroup = hyphen;
note = hyphen;
rightKerningGroup = hyphen;
unicode = 002D;
},
{
glyphname = endash;
lastChange = "2020-04-15 03:30:09 +0000";
layers = (
{
layerId = "335260E3-B850-4550-8CEC-14CE68ACF16F";
paths = (
{
closed = 1;
nodes = (
"563 227 LINE",
"563 257 LINE",
"30 257 LINE",
"30 227 LINE"
);
}
);
width = 593;
},
{
layerId = "D5A55CBB-56DB-4AD9-B643-4353D3BE6F68";
paths = (
{
closed = 1;
nodes = (
"563 167 LINE",
"563 317 LINE",
"30 317 LINE",
"30 167 LINE"
);
}
);
width = 593;
},
{
associatedMasterId = "335260E3-B850-4550-8CEC-14CE68ACF16F";
layerId = "A3F0DF3F-6E5C-40C3-B5F9-213A49682D58";
name = "Light Italic";
paths = (
{
closed = 1;
nodes = (
"560 227 LINE",
"566 257 LINE",
"33 257 LINE",
"27 227 LINE"
);
}
);
width = 593;
},
{
associatedMasterId = "335260E3-B850-4550-8CEC-14CE68ACF16F";
layerId = "C7F6927E-AE81-4ED8-A250-E7EE5BA9BBA4";
name = "Bold Italic";
paths = (
{
closed = 1;
nodes = (
"547 167 LINE",
"579 317 LINE",
"46 317 LINE",
"14 167 LINE"
);
}
);
width = 593;
},
{
associatedMasterId = "335260E3-B850-4550-8CEC-14CE68ACF16F";
layerId = "C904C5FD-088D-4660-AED1-28B1A7BC3F9F";
name = "new Layer";
paths = (
{
closed = 1;
nodes = (
"563 227 LINE",
"563 257 LINE",
"30 257 LINE",
"30 227 LINE"
);
}
);
width = 593;
}
);
leftKerningGroup = hyphen;
note = endash;
rightKerningGroup = hyphen;
unicode = 2013;
},
{
glyphname = emdash;
lastChange = "2020-04-15 03:30:09 +0000";
layers = (
{
layerId = "335260E3-B850-4550-8CEC-14CE68ACF16F";
paths = (
{
closed = 1;
nodes = (
"803 227 LINE",
"803 257 LINE",
"30 257 LINE",
"30 227 LINE"
);
}
);
width = 833;
},
{
layerId = "D5A55CBB-56DB-4AD9-B643-4353D3BE6F68";
paths = (
{
closed = 1;
nodes = (
"803 167 LINE",
"803 317 LINE",
"30 317 LINE",
"30 167 LINE"
);
}
);
width = 833;
},
{
associatedMasterId = "335260E3-B850-4550-8CEC-14CE68ACF16F";
layerId = "A3F0DF3F-6E5C-40C3-B5F9-213A49682D58";
name = "Light Italic";
paths = (
{
closed = 1;
nodes = (
"800 227 LINE",
"806 257 LINE",
"33 257 LINE",
"27 227 LINE"
);
}
);
width = 833;
},
{
associatedMasterId = "335260E3-B850-4550-8CEC-14CE68ACF16F";
layerId = "C7F6927E-AE81-4ED8-A250-E7EE5BA9BBA4";
name = "Bold Italic";
paths = (
{
closed = 1;
nodes = (
"787 167 LINE",
"819 317 LINE",
"46 317 LINE",
"14 167 LINE"
);
}
);
width = 833;
},
{
associatedMasterId = "335260E3-B850-4550-8CEC-14CE68ACF16F";
layerId = "C904C5FD-088D-4660-AED1-28B1A7BC3F9F";
name = "new Layer";
paths = (
{
closed = 1;
nodes = (
"803 227 LINE",
"803 257 LINE",
"30 257 LINE",
"30 227 LINE"
);
}
);
width = 833;
}
);
leftKerningGroup = hyphen;
note = emdash;
rightKerningGroup = hyphen;
unicode = 2014;
},
{
glyphname = underscore;
lastChange = "2020-04-15 03:30:09 +0000";
layers = (
{
layerId = "335260E3-B850-4550-8CEC-14CE68ACF16F";
paths = (
{
closed = 1;
nodes = (
"-3 -40 LINE",
"-3 -70 LINE",
"567 -70 LINE",
"567 -40 LINE"
);
}
);
width = 564;
},
{
layerId = "D5A55CBB-56DB-4AD9-B643-4353D3BE6F68";
paths = (
{
closed = 1;
nodes = (
"-3 -40 LINE",
"-3 -154 LINE",
"567 -154 LINE",
"567 -40 LINE"
);
}
);
width = 564;
},
{
associatedMasterId = "335260E3-B850-4550-8CEC-14CE68ACF16F";
layerId = "A3F0DF3F-6E5C-40C3-B5F9-213A49682D58";
name = "Light Italic";
paths = (
{
closed = 1;
nodes = (
"-63 -40 LINE",
"-69 -70 LINE",
"501 -70 LINE",
"507 -40 LINE"
);
}
);
width = 564;
},
{
associatedMasterId = "335260E3-B850-4550-8CEC-14CE68ACF16F";
layerId = "C7F6927E-AE81-4ED8-A250-E7EE5BA9BBA4";
name = "Bold Italic";
paths = (
{
closed = 1;
nodes = (
"-63 -40 LINE",
"-87 -154 LINE",
"483 -154 LINE",
"507 -40 LINE"
);
}
);
width = 564;
},
{
associatedMasterId = "335260E3-B850-4550-8CEC-14CE68ACF16F";
layerId = "C904C5FD-088D-4660-AED1-28B1A7BC3F9F";
name = "new Layer";
paths = (
{
closed = 1;
nodes = (
"-3 -40 LINE",
"-3 -70 LINE",
"567 -70 LINE",
"567 -40 LINE"
);
}
);
width = 564;
}
);
note = underscore;
unicode = 005F;
},
{
glyphname = hyphen.case;
lastChange = "2020-09-13 12:52:10 +0000";
layers = (
{
layerId = "335260E3-B850-4550-8CEC-14CE68ACF16F";
paths = (
{
closed = 1;
nodes = (
"290 326 LINE",
"290 356 LINE",
"50 356 LINE",
"50 326 LINE"
);
}
);
width = 370;
},
{
layerId = "D5A55CBB-56DB-4AD9-B643-4353D3BE6F68";
paths = (
{
closed = 1;
nodes = (
"280 266 LINE",
"280 416 LINE",
"40 416 LINE",
"40 266 LINE"
);
}
);
width = 350;
},
{
associatedMasterId = "335260E3-B850-4550-8CEC-14CE68ACF16F";
layerId = "A3F0DF3F-6E5C-40C3-B5F9-213A49682D58";
name = "Light Italic";
paths = (
{
closed = 1;
nodes = (
"288 326 LINE",
"294 356 LINE",
"54 356 LINE",
"48 326 LINE"
);
}
);
width = 300;
},
{
associatedMasterId = "335260E3-B850-4550-8CEC-14CE68ACF16F";
layerId = "C7F6927E-AE81-4ED8-A250-E7EE5BA9BBA4";
name = "Bold Italic";
paths = (
{
closed = 1;
nodes = (
"275 266 LINE",
"307 416 LINE",
"67 416 LINE",
"35 266 LINE"
);
}
);
width = 300;
},
{
associatedMasterId = "335260E3-B850-4550-8CEC-14CE68ACF16F";
layerId = "C904C5FD-088D-4660-AED1-28B1A7BC3F9F";
name = "new Layer";
paths = (
{
closed = 1;
nodes = (
"270 326 LINE",
"270 356 LINE",
"30 356 LINE",
"30 326 LINE"
);
}
);
width = 300;
}
);
leftKerningGroup = hyphen.case;
note = hyphen.case;
rightKerningGroup = hyphen.case;
unicode = F6BA;
},
{
glyphname = endash.case;
lastChange = "2020-04-15 03:30:09 +0000";
layers = (
{
layerId = "335260E3-B850-4550-8CEC-14CE68ACF16F";
paths = (
{
closed = 1;
nodes = (
"563 326 LINE",
"563 356 LINE",
"30 356 LINE",
"30 326 LINE"
);
}
);
width = 593;
},
{
layerId = "D5A55CBB-56DB-4AD9-B643-4353D3BE6F68";
paths = (
{
closed = 1;
nodes = (
"563 266 LINE",
"563 416 LINE",
"30 416 LINE",
"30 266 LINE"
);
}
);
width = 593;
},
{
associatedMasterId = "335260E3-B850-4550-8CEC-14CE68ACF16F";
layerId = "A3F0DF3F-6E5C-40C3-B5F9-213A49682D58";
name = "Light Italic";
paths = (
{
closed = 1;
nodes = (
"581 326 LINE",
"587 356 LINE",
"54 356 LINE",
"48 326 LINE"
);
}
);
width = 593;
},
{
associatedMasterId = "335260E3-B850-4550-8CEC-14CE68ACF16F";
layerId = "C7F6927E-AE81-4ED8-A250-E7EE5BA9BBA4";
name = "Bold Italic";
paths = (
{
closed = 1;
nodes = (
"568 266 LINE",
"600 416 LINE",
"67 416 LINE",
"35 266 LINE"
);
}
);
width = 593;
},
{
associatedMasterId = "335260E3-B850-4550-8CEC-14CE68ACF16F";
layerId = "C904C5FD-088D-4660-AED1-28B1A7BC3F9F";
name = "new Layer";
paths = (
{
closed = 1;
nodes = (
"563 326 LINE",
"563 356 LINE",
"30 356 LINE",
"30 326 LINE"
);
}
);
width = 593;
}
);
leftKerningGroup = hyphen.case;
note = endash.case;
rightKerningGroup = hyphen.case;
unicode = F6BB;
},
{
glyphname = emdash.case;
lastChange = "2020-04-15 03:30:09 +0000";
layers = (
{
layerId = "335260E3-B850-4550-8CEC-14CE68ACF16F";
paths = (
{
closed = 1;
nodes = (
"803 326 LINE",
"803 356 LINE",
"30 356 LINE",
"30 326 LINE"
);
}
);
width = 833;
},
{
layerId = "D5A55CBB-56DB-4AD9-B643-4353D3BE6F68";
paths = (
{
closed = 1;
nodes = (
"803 266 LINE",
"803 416 LINE",
"30 416 LINE",
"30 266 LINE"
);
}
);
width = 833;
},
{
associatedMasterId = "335260E3-B850-4550-8CEC-14CE68ACF16F";
layerId = "A3F0DF3F-6E5C-40C3-B5F9-213A49682D58";
name = "Light Italic";
paths = (
{
closed = 1;
nodes = (
"821 326 LINE",
"827 356 LINE",
"54 356 LINE",
"48 326 LINE"
);
}
);
width = 833;
},
{
associatedMasterId = "335260E3-B850-4550-8CEC-14CE68ACF16F";
layerId = "C7F6927E-AE81-4ED8-A250-E7EE5BA9BBA4";
name = "Bold Italic";
paths = (
{
closed = 1;
nodes = (
"808 266 LINE",
"840 416 LINE",
"67 416 LINE",
"35 266 LINE"
);
}
);
width = 833;
},
{
associatedMasterId = "335260E3-B850-4550-8CEC-14CE68ACF16F";
layerId = "C904C5FD-088D-4660-AED1-28B1A7BC3F9F";
name = "new Layer";
paths = (
{
closed = 1;
nodes = (
"803 326 LINE",
"803 356 LINE",
"30 356 LINE",
"30 326 LINE"
);
}
);
width = 833;
}
);
leftKerningGroup = hyphen.case;
note = emdash.case;
rightKerningGroup = hyphen.case;
unicode = F6BC;
},
{
glyphname = quotesinglbase;
lastChange = "2020-04-15 03:30:09 +0000";
layers = (
{
layerId = "335260E3-B850-4550-8CEC-14CE68ACF16F";
paths = (
{
closed = 1;
nodes = (
"81 -110 LINE",
"104 -64 LINE SMOOTH",
"125 -22 OFFCURVE",
"135 -1 OFFCURVE",
"136 26 CURVE",
"136 49 OFFCURVE",
"121 65 OFFCURVE",
"99 65 CURVE SMOOTH",
"77 65 OFFCURVE",
"63 52 OFFCURVE",
"63 29 CURVE SMOOTH",
"63 6 OFFCURVE",
"76 -7 OFFCURVE",
"99 -7 CURVE",
"60 -93 LINE"
);
}
);
width = 196;
},
{
layerId = "D5A55CBB-56DB-4AD9-B643-4353D3BE6F68";
paths = (
{
closed = 1;
nodes = (
"120 -144 LINE",
"187 -63 LINE SMOOTH",
"225 -16 OFFCURVE",
"236 10 OFFCURVE",
"237 78 CURVE SMOOTH",
"237 138 OFFCURVE",
"202 173 OFFCURVE",
"143 173 CURVE SMOOTH",
"84 173 OFFCURVE",
"51 140 OFFCURVE",
"51 80 CURVE SMOOTH",
"51 20 OFFCURVE",
"56 7 OFFCURVE",
"108 -10 CURVE",
"69 -101 LINE"
);
}
);
width = 281;
},
{
associatedMasterId = "335260E3-B850-4550-8CEC-14CE68ACF16F";
layerId = "A3F0DF3F-6E5C-40C3-B5F9-213A49682D58";
name = "Light Italic";
paths = (
{
closed = 1;
nodes = (
"9 -110 LINE",
"42 -64 LINE SMOOTH",
"72 -22 OFFCURVE",
"86 -1 OFFCURVE",
"93 26 CURVE",
"98 49 OFFCURVE",
"86 65 OFFCURVE",
"64 65 CURVE SMOOTH",
"42 65 OFFCURVE",
"26 52 OFFCURVE",
"21 29 CURVE SMOOTH",
"16 6 OFFCURVE",
"26 -7 OFFCURVE",
"49 -7 CURVE",
"-8 -93 LINE"
);
}
);
width = 208;
},
{
associatedMasterId = "335260E3-B850-4550-8CEC-14CE68ACF16F";
layerId = "C7F6927E-AE81-4ED8-A250-E7EE5BA9BBA4";
name = "Bold Italic";
paths = (
{
closed = 1;
nodes = (
"38 -144 LINE",
"122 -63 LINE SMOOTH",
"170 -16 OFFCURVE",
"187 10 OFFCURVE",
"202 78 CURVE SMOOTH",
"215 138 OFFCURVE",
"187 173 OFFCURVE",
"128 173 CURVE SMOOTH",
"69 173 OFFCURVE",
"29 140 OFFCURVE",
"17 80 CURVE SMOOTH",
"4 20 OFFCURVE",
"6 7 OFFCURVE",
"55 -10 CURVE",
"-4 -101 LINE"
);
}
);
width = 281;
},
{
associatedMasterId = "335260E3-B850-4550-8CEC-14CE68ACF16F";
layerId = "C904C5FD-088D-4660-AED1-28B1A7BC3F9F";
name = "new Layer";
paths = (
{
closed = 1;
nodes = (
"74 -7 LINE",
"135 -7 LINE",
"135 55 LINE",
"74 55 LINE"
);
},
{
closed = 1;
nodes = (
"63 -93 LINE",
"84 -110 LINE",
"135 -7 LINE",
"102 -7 LINE"
);
}
);
width = 208;
}
);
leftKerningGroup = comma;
note = comma;
rightKerningGroup = comma;
unicode = 201A;
},
{
glyphname = quotedblbase;
lastChange = "2020-04-15 03:30:09 +0000";
layers = (
{
layerId = "335260E3-B850-4550-8CEC-14CE68ACF16F";
paths = (
{
closed = 1;
nodes = (
"207 -105 LINE",
"230 -59 LINE SMOOTH",
"251 -17 OFFCURVE",
"261 4 OFFCURVE",
"262 31 CURVE",
"262 54 OFFCURVE",
"247 70 OFFCURVE",
"225 70 CURVE SMOOTH",
"203 70 OFFCURVE",
"189 57 OFFCURVE",
"189 34 CURVE SMOOTH",
"189 11 OFFCURVE",
"202 -2 OFFCURVE",
"225 -2 CURVE",
"186 -88 LINE"
);
},
{
closed = 1;
nodes = (
"100 -105 LINE",
"123 -59 LINE SMOOTH",
"144 -17 OFFCURVE",
"154 4 OFFCURVE",
"155 31 CURVE",
"155 54 OFFCURVE",
"140 70 OFFCURVE",
"118 70 CURVE SMOOTH",
"96 70 OFFCURVE",
"82 57 OFFCURVE",
"82 34 CURVE SMOOTH",
"82 11 OFFCURVE",
"95 -2 OFFCURVE",
"118 -2 CURVE",
"79 -88 LINE"
);
}
);
width = 331;
},
{
layerId = "D5A55CBB-56DB-4AD9-B643-4353D3BE6F68";
paths = (
{
closed = 1;
nodes = (
"351 -141 LINE",
"418 -60 LINE SMOOTH",
"457 -13 OFFCURVE",
"467 13 OFFCURVE",
"468 81 CURVE SMOOTH",
"469 141 OFFCURVE",
"433 176 OFFCURVE",
"374 176 CURVE SMOOTH",
"315 176 OFFCURVE",
"282 143 OFFCURVE",
"282 83 CURVE SMOOTH",
"282 23 OFFCURVE",
"287 10 OFFCURVE",
"339 -7 CURVE",
"300 -98 LINE"
);
},
{
closed = 1;
nodes = (
"130 -141 LINE",
"197 -60 LINE SMOOTH",
"236 -13 OFFCURVE",
"246 13 OFFCURVE",
"247 81 CURVE SMOOTH",
"248 141 OFFCURVE",
"212 176 OFFCURVE",
"153 176 CURVE SMOOTH",
"94 176 OFFCURVE",
"61 143 OFFCURVE",
"61 83 CURVE SMOOTH",
"61 23 OFFCURVE",
"66 10 OFFCURVE",
"118 -7 CURVE",
"79 -98 LINE"
);
}
);
width = 528;
},
{
associatedMasterId = "335260E3-B850-4550-8CEC-14CE68ACF16F";
layerId = "A3F0DF3F-6E5C-40C3-B5F9-213A49682D58";
name = "Light Italic";
paths = (
{
closed = 1;
nodes = (
"133 -105 LINE",
"166 -59 LINE SMOOTH",
"196 -17 OFFCURVE",
"211 4 OFFCURVE",
"217 31 CURVE",
"222 54 OFFCURVE",
"211 70 OFFCURVE",
"189 70 CURVE SMOOTH",
"167 70 OFFCURVE",
"150 57 OFFCURVE",
"145 34 CURVE SMOOTH",
"140 11 OFFCURVE",
"150 -2 OFFCURVE",
"173 -2 CURVE",
"116 -88 LINE"
);
},
{
closed = 1;
nodes = (
"26 -105 LINE",
"59 -59 LINE SMOOTH",
"89 -17 OFFCURVE",
"104 4 OFFCURVE",
"110 31 CURVE",
"115 54 OFFCURVE",
"104 70 OFFCURVE",
"82 70 CURVE SMOOTH",
"60 70 OFFCURVE",
"43 57 OFFCURVE",
"38 34 CURVE SMOOTH",
"33 11 OFFCURVE",
"43 -2 OFFCURVE",
"66 -2 CURVE",
"9 -88 LINE"
);
}
);
width = 331;
},
{
associatedMasterId = "335260E3-B850-4550-8CEC-14CE68ACF16F";
layerId = "C7F6927E-AE81-4ED8-A250-E7EE5BA9BBA4";
name = "Bold Italic";
paths = (
{
closed = 1;
nodes = (
"270 -141 LINE",
"354 -60 LINE SMOOTH",
"403 -13 OFFCURVE",
"418 13 OFFCURVE",
"434 81 CURVE SMOOTH",
"448 141 OFFCURVE",
"419 176 OFFCURVE",
"360 176 CURVE SMOOTH",
"301 176 OFFCURVE",
"261 143 OFFCURVE",
"248 83 CURVE SMOOTH",
"236 23 OFFCURVE",
"238 10 OFFCURVE",
"286 -7 CURVE",
"228 -98 LINE"
);
},
{
closed = 1;
nodes = (
"49 -141 LINE",
"133 -60 LINE SMOOTH",
"182 -13 OFFCURVE",
"197 13 OFFCURVE",
"213 81 CURVE SMOOTH",
"227 141 OFFCURVE",
"198 176 OFFCURVE",
"139 176 CURVE SMOOTH",
"80 176 OFFCURVE",
"40 143 OFFCURVE",
"27 83 CURVE SMOOTH",
"15 23 OFFCURVE",
"17 10 OFFCURVE",
"65 -7 CURVE",
"7 -98 LINE"
);
}
);
width = 528;
},
{
associatedMasterId = "335260E3-B850-4550-8CEC-14CE68ACF16F";
layerId = "C904C5FD-088D-4660-AED1-28B1A7BC3F9F";
name = "new Layer";
paths = (
{
closed = 1;
nodes = (
"90 609 LINE",
"151 609 LINE",
"151 671 LINE",
"90 671 LINE"
);
},
{
closed = 1;
nodes = (
"79 523 LINE",
"100 506 LINE",
"151 609 LINE",
"118 609 LINE"
);
},
{
closed = 1;
nodes = (
"198 609 LINE",
"259 609 LINE",
"259 671 LINE",
"198 671 LINE"
);
},
{
closed = 1;
nodes = (
"187 523 LINE",
"208 506 LINE",
"259 609 LINE",
"226 609 LINE"
);
}
);
width = 331;
}
);
leftKerningGroup = quotedbl;
note = quotedblleft;
rightKerningGroup = quotedbl;
unicode = 201E;
},
{
glyphname = quotedblleft;
lastChange = "2020-04-15 03:30:09 +0000";
layers = (
{
layerId = "335260E3-B850-4550-8CEC-14CE68ACF16F";
paths = (
{
closed = 1;
nodes = (
"217 672 LINE",
"194 626 LINE SMOOTH",
"173 584 OFFCURVE",
"163 563 OFFCURVE",
"162 536 CURVE",
"162 513 OFFCURVE",
"177 497 OFFCURVE",
"199 497 CURVE SMOOTH",
"221 497 OFFCURVE",
"235 510 OFFCURVE",
"235 533 CURVE SMOOTH",
"235 556 OFFCURVE",
"222 569 OFFCURVE",
"199 569 CURVE",
"238 655 LINE"
);
},
{
closed = 1;
nodes = (
"115 672 LINE",
"92 626 LINE SMOOTH",
"71 584 OFFCURVE",
"61 563 OFFCURVE",
"60 536 CURVE",
"60 513 OFFCURVE",
"75 497 OFFCURVE",
"97 497 CURVE SMOOTH",
"119 497 OFFCURVE",
"133 510 OFFCURVE",
"133 533 CURVE SMOOTH",
"133 556 OFFCURVE",
"120 569 OFFCURVE",
"97 569 CURVE",
"136 655 LINE"
);
}
);
width = 288;
},
{
layerId = "D5A55CBB-56DB-4AD9-B643-4353D3BE6F68";
paths = (
{
closed = 1;
nodes = (
"392 668 LINE",
"325 587 LINE SMOOTH",
"286 540 OFFCURVE",
"276 514 OFFCURVE",
"275 446 CURVE SMOOTH",
"274 386 OFFCURVE",
"310 351 OFFCURVE",
"369 351 CURVE SMOOTH",
"428 351 OFFCURVE",
"461 384 OFFCURVE",
"461 444 CURVE SMOOTH",
"461 504 OFFCURVE",
"456 517 OFFCURVE",
"404 534 CURVE",
"443 625 LINE"
);
},
{
closed = 1;
nodes = (
"171 668 LINE",
"104 587 LINE SMOOTH",
"65 540 OFFCURVE",
"55 514 OFFCURVE",
"54 446 CURVE SMOOTH",
"53 386 OFFCURVE",
"89 351 OFFCURVE",
"148 351 CURVE SMOOTH",
"207 351 OFFCURVE",
"240 384 OFFCURVE",
"240 444 CURVE SMOOTH",
"240 504 OFFCURVE",
"235 517 OFFCURVE",
"183 534 CURVE",
"222 625 LINE"
);
}
);
width = 528;
},
{
associatedMasterId = "335260E3-B850-4550-8CEC-14CE68ACF16F";
layerId = "A3F0DF3F-6E5C-40C3-B5F9-213A49682D58";
name = "Light Italic";
paths = (
{
closed = 1;
nodes = (
"314 672 LINE",
"281 626 LINE SMOOTH",
"251 584 OFFCURVE",
"236 563 OFFCURVE",
"230 536 CURVE",
"225 513 OFFCURVE",
"236 497 OFFCURVE",
"258 497 CURVE SMOOTH",
"280 497 OFFCURVE",
"297 510 OFFCURVE",
"302 533 CURVE SMOOTH",
"307 556 OFFCURVE",
"297 569 OFFCURVE",
"274 569 CURVE",
"331 655 LINE"
);
},
{
closed = 1;
nodes = (
"212 672 LINE",
"179 626 LINE SMOOTH",
"149 584 OFFCURVE",
"134 563 OFFCURVE",
"128 536 CURVE",
"123 513 OFFCURVE",
"134 497 OFFCURVE",
"156 497 CURVE SMOOTH",
"178 497 OFFCURVE",
"195 510 OFFCURVE",
"200 533 CURVE SMOOTH",
"205 556 OFFCURVE",
"195 569 OFFCURVE",
"172 569 CURVE",
"229 655 LINE"
);
}
);
width = 331;
},
{
associatedMasterId = "335260E3-B850-4550-8CEC-14CE68ACF16F";
layerId = "C7F6927E-AE81-4ED8-A250-E7EE5BA9BBA4";
name = "Bold Italic";
paths = (
{
closed = 1;
nodes = (
"484 668 LINE",
"399 587 LINE SMOOTH",
"350 540 OFFCURVE",
"335 514 OFFCURVE",
"319 446 CURVE SMOOTH",
"306 386 OFFCURVE",
"334 351 OFFCURVE",
"393 351 CURVE SMOOTH",
"452 351 OFFCURVE",
"492 384 OFFCURVE",
"505 444 CURVE SMOOTH",
"518 504 OFFCURVE",
"516 517 OFFCURVE",
"467 534 CURVE",
"526 625 LINE"
);
},
{
closed = 1;
nodes = (
"257 668 LINE",
"172 587 LINE SMOOTH",
"123 540 OFFCURVE",
"108 514 OFFCURVE",
"92 446 CURVE SMOOTH",
"79 386 OFFCURVE",
"107 351 OFFCURVE",
"166 351 CURVE SMOOTH",
"225 351 OFFCURVE",
"265 384 OFFCURVE",
"278 444 CURVE SMOOTH",
"291 504 OFFCURVE",
"289 517 OFFCURVE",
"240 534 CURVE",
"299 625 LINE"
);
}
);
width = 528;
},
{
associatedMasterId = "335260E3-B850-4550-8CEC-14CE68ACF16F";
layerId = "C904C5FD-088D-4660-AED1-28B1A7BC3F9F";
name = "new Layer";
paths = (
{
closed = 1;
nodes = (
"241 571 LINE",
"180 571 LINE",
"180 509 LINE",
"241 509 LINE"
);
},
{
closed = 1;
nodes = (
"252 657 LINE",
"231 674 LINE",
"180 571 LINE",
"213 571 LINE"
);
},
{
closed = 1;
nodes = (
"133 571 LINE",
"72 571 LINE",
"72 509 LINE",
"133 509 LINE"
);
},
{
closed = 1;
nodes = (
"144 657 LINE",
"123 674 LINE",
"72 571 LINE",
"105 571 LINE"
);
}
);
width = 331;
}
);
leftKerningGroup = quotedbl;
note = quotedblleft;
rightKerningGroup = quotedbl;
unicode = 201C;
},
{
glyphname = quotedblright;
lastChange = "2020-04-15 03:30:09 +0000";
layers = (
{
layerId = "335260E3-B850-4550-8CEC-14CE68ACF16F";
paths = (
{
closed = 1;
nodes = (
"178 500 LINE",
"201 546 LINE SMOOTH",
"222 588 OFFCURVE",
"232 609 OFFCURVE",
"233 636 CURVE",
"233 659 OFFCURVE",
"218 675 OFFCURVE",
"196 675 CURVE SMOOTH",
"174 675 OFFCURVE",
"160 662 OFFCURVE",
"160 639 CURVE SMOOTH",
"160 616 OFFCURVE",
"173 603 OFFCURVE",
"196 603 CURVE",
"157 517 LINE"
);
},
{
closed = 1;
nodes = (
"71 500 LINE",
"94 546 LINE SMOOTH",
"115 588 OFFCURVE",
"125 609 OFFCURVE",
"126 636 CURVE",
"126 659 OFFCURVE",
"111 675 OFFCURVE",
"89 675 CURVE SMOOTH",
"67 675 OFFCURVE",
"53 662 OFFCURVE",
"53 639 CURVE SMOOTH",
"53 616 OFFCURVE",
"66 603 OFFCURVE",
"89 603 CURVE",
"50 517 LINE"
);
}
);
width = 293;
},
{
layerId = "D5A55CBB-56DB-4AD9-B643-4353D3BE6F68";
paths = (
{
closed = 1;
nodes = (
"351 361 LINE",
"418 442 LINE SMOOTH",
"457 489 OFFCURVE",
"467 515 OFFCURVE",
"468 583 CURVE SMOOTH",
"469 643 OFFCURVE",
"433 678 OFFCURVE",
"374 678 CURVE SMOOTH",
"315 678 OFFCURVE",
"282 645 OFFCURVE",
"282 585 CURVE SMOOTH",
"282 525 OFFCURVE",
"287 512 OFFCURVE",
"339 495 CURVE",
"300 404 LINE"
);
},
{
closed = 1;
nodes = (
"130 361 LINE",
"197 442 LINE SMOOTH",
"236 489 OFFCURVE",
"246 515 OFFCURVE",
"247 583 CURVE SMOOTH",
"248 643 OFFCURVE",
"212 678 OFFCURVE",
"153 678 CURVE SMOOTH",
"94 678 OFFCURVE",
"61 645 OFFCURVE",
"61 585 CURVE SMOOTH",
"61 525 OFFCURVE",
"66 512 OFFCURVE",
"118 495 CURVE",
"79 404 LINE"
);
}
);
width = 528;
},
{
associatedMasterId = "335260E3-B850-4550-8CEC-14CE68ACF16F";
layerId = "A3F0DF3F-6E5C-40C3-B5F9-213A49682D58";
name = "Light Italic";
paths = (
{
closed = 1;
nodes = (
"262 500 LINE",
"295 546 LINE SMOOTH",
"325 588 OFFCURVE",
"339 609 OFFCURVE",
"346 636 CURVE",
"351 659 OFFCURVE",
"339 675 OFFCURVE",
"317 675 CURVE SMOOTH",
"295 675 OFFCURVE",
"278 662 OFFCURVE",
"273 639 CURVE SMOOTH",
"269 616 OFFCURVE",
"279 603 OFFCURVE",
"302 603 CURVE",
"245 517 LINE"
);
},
{
closed = 1;
nodes = (
"155 500 LINE",
"188 546 LINE SMOOTH",
"218 588 OFFCURVE",
"232 609 OFFCURVE",
"239 636 CURVE",
"244 659 OFFCURVE",
"232 675 OFFCURVE",
"210 675 CURVE SMOOTH",
"188 675 OFFCURVE",
"171 662 OFFCURVE",
"166 639 CURVE SMOOTH",
"162 616 OFFCURVE",
"172 603 OFFCURVE",
"195 603 CURVE",
"138 517 LINE"
);
}
);
width = 331;
},
{
associatedMasterId = "335260E3-B850-4550-8CEC-14CE68ACF16F";
layerId = "C7F6927E-AE81-4ED8-A250-E7EE5BA9BBA4";
name = "Bold Italic";
paths = (
{
closed = 1;
nodes = (
"376 361 LINE",
"461 442 LINE SMOOTH",
"510 489 OFFCURVE",
"525 515 OFFCURVE",
"541 583 CURVE SMOOTH",
"554 643 OFFCURVE",
"526 678 OFFCURVE",
"467 678 CURVE SMOOTH",
"408 678 OFFCURVE",
"368 645 OFFCURVE",
"355 585 CURVE SMOOTH",
"342 525 OFFCURVE",
"344 512 OFFCURVE",
"393 495 CURVE",
"335 404 LINE"
);
},
{
closed = 1;
nodes = (
"155 361 LINE",
"240 442 LINE SMOOTH",
"289 489 OFFCURVE",
"304 515 OFFCURVE",
"320 583 CURVE SMOOTH",
"333 643 OFFCURVE",
"305 678 OFFCURVE",
"246 678 CURVE SMOOTH",
"187 678 OFFCURVE",
"147 645 OFFCURVE",
"134 585 CURVE SMOOTH",
"121 525 OFFCURVE",
"123 512 OFFCURVE",
"172 495 CURVE",
"114 404 LINE"
);
}
);
width = 528;
},
{
associatedMasterId = "335260E3-B850-4550-8CEC-14CE68ACF16F";
layerId = "C904C5FD-088D-4660-AED1-28B1A7BC3F9F";
name = "new Layer";
paths = (
{
closed = 1;
nodes = (
"90 609 LINE",
"151 609 LINE",
"151 671 LINE",
"90 671 LINE"
);
},
{
closed = 1;
nodes = (
"79 523 LINE",
"100 506 LINE",
"151 609 LINE",
"118 609 LINE"
);
},
{
closed = 1;
nodes = (
"198 609 LINE",
"259 609 LINE",
"259 671 LINE",
"198 671 LINE"
);
},
{
closed = 1;
nodes = (
"187 523 LINE",
"208 506 LINE",
"259 609 LINE",
"226 609 LINE"
);
}
);
width = 331;
}
);
leftKerningGroup = quotedbl;
note = quotedblleft;
rightKerningGroup = quotedbl;
unicode = 201D;
},
{
glyphname = quoteleft;
lastChange = "2020-04-15 03:30:09 +0000";
layers = (
{
layerId = "335260E3-B850-4550-8CEC-14CE68ACF16F";
paths = (
{
closed = 1;
nodes = (
"115 667 LINE",
"92 621 LINE SMOOTH",
"71 579 OFFCURVE",
"61 558 OFFCURVE",
"60 531 CURVE",
"60 508 OFFCURVE",
"75 492 OFFCURVE",
"97 492 CURVE SMOOTH",
"119 492 OFFCURVE",
"133 505 OFFCURVE",
"133 528 CURVE SMOOTH",
"133 551 OFFCURVE",
"120 564 OFFCURVE",
"97 564 CURVE",
"136 650 LINE"
);
}
);
width = 196;
},
{
layerId = "D5A55CBB-56DB-4AD9-B643-4353D3BE6F68";
paths = (
{
closed = 1;
nodes = (
"161 668 LINE",
"94 587 LINE SMOOTH",
"55 540 OFFCURVE",
"45 514 OFFCURVE",
"44 446 CURVE SMOOTH",
"43 386 OFFCURVE",
"79 351 OFFCURVE",
"138 351 CURVE SMOOTH",
"197 351 OFFCURVE",
"230 384 OFFCURVE",
"230 444 CURVE SMOOTH",
"230 504 OFFCURVE",
"225 517 OFFCURVE",
"173 534 CURVE",
"212 625 LINE"
);
}
);
width = 281;
},
{
associatedMasterId = "335260E3-B850-4550-8CEC-14CE68ACF16F";
layerId = "A3F0DF3F-6E5C-40C3-B5F9-213A49682D58";
name = "Light Italic";
paths = (
{
closed = 1;
nodes = (
"206 667 LINE",
"174 621 LINE SMOOTH",
"144 579 OFFCURVE",
"129 558 OFFCURVE",
"123 531 CURVE",
"118 508 OFFCURVE",
"129 492 OFFCURVE",
"151 492 CURVE SMOOTH",
"173 492 OFFCURVE",
"190 505 OFFCURVE",
"195 528 CURVE SMOOTH",
"200 551 OFFCURVE",
"190 564 OFFCURVE",
"167 564 CURVE",
"224 650 LINE"
);
}
);
width = 208;
},
{
associatedMasterId = "335260E3-B850-4550-8CEC-14CE68ACF16F";
layerId = "C7F6927E-AE81-4ED8-A250-E7EE5BA9BBA4";
name = "Bold Italic";
paths = (
{
closed = 1;
nodes = (
"252 668 LINE",
"167 587 LINE SMOOTH",
"118 540 OFFCURVE",
"103 514 OFFCURVE",
"87 446 CURVE SMOOTH",
"74 386 OFFCURVE",
"102 351 OFFCURVE",
"161 351 CURVE SMOOTH",
"220 351 OFFCURVE",
"260 384 OFFCURVE",
"273 444 CURVE SMOOTH",
"286 504 OFFCURVE",
"284 517 OFFCURVE",
"235 534 CURVE",
"294 625 LINE"
);
}
);
width = 281;
},
{
associatedMasterId = "335260E3-B850-4550-8CEC-14CE68ACF16F";
layerId = "C904C5FD-088D-4660-AED1-28B1A7BC3F9F";
name = "new Layer";
paths = (
{
closed = 1;
nodes = (
"73 675 LINE",
"73 613 LINE",
"134 613 LINE",
"134 675 LINE"
);
},
{
closed = 1;
nodes = (
"73 613 LINE",
"124 510 LINE",
"145 527 LINE",
"106 613 LINE"
);
}
);
width = 208;
}
);
leftKerningGroup = comma;
note = comma;
rightKerningGroup = comma;
unicode = 2018;
},
{
glyphname = quoteright;
lastChange = "2020-04-15 03:30:09 +0000";
layers = (
{
layerId = "335260E3-B850-4550-8CEC-14CE68ACF16F";
paths = (
{
closed = 1;
nodes = (
"81 500 LINE",
"104 546 LINE SMOOTH",
"125 588 OFFCURVE",
"135 609 OFFCURVE",
"136 636 CURVE",
"136 659 OFFCURVE",
"121 675 OFFCURVE",
"99 675 CURVE SMOOTH",
"77 675 OFFCURVE",
"63 662 OFFCURVE",
"63 639 CURVE SMOOTH",
"63 616 OFFCURVE",
"76 603 OFFCURVE",
"99 603 CURVE",
"60 517 LINE"
);
}
);
width = 196;
},
{
layerId = "D5A55CBB-56DB-4AD9-B643-4353D3BE6F68";
paths = (
{
closed = 1;
nodes = (
"120 361 LINE",
"187 442 LINE SMOOTH",
"226 489 OFFCURVE",
"236 515 OFFCURVE",
"237 583 CURVE SMOOTH",
"238 643 OFFCURVE",
"202 678 OFFCURVE",
"143 678 CURVE SMOOTH",
"84 678 OFFCURVE",
"51 645 OFFCURVE",
"51 585 CURVE SMOOTH",
"51 525 OFFCURVE",
"56 512 OFFCURVE",
"108 495 CURVE",
"69 404 LINE"
);
}
);
width = 281;
},
{
associatedMasterId = "335260E3-B850-4550-8CEC-14CE68ACF16F";
layerId = "A3F0DF3F-6E5C-40C3-B5F9-213A49682D58";
name = "Light Italic";
paths = (
{
closed = 1;
nodes = (
"147 500 LINE",
"180 546 LINE SMOOTH",
"210 588 OFFCURVE",
"224 609 OFFCURVE",
"231 636 CURVE",
"236 659 OFFCURVE",
"224 675 OFFCURVE",
"202 675 CURVE SMOOTH",
"180 675 OFFCURVE",
"163 662 OFFCURVE",
"158 639 CURVE SMOOTH",
"154 616 OFFCURVE",
"164 603 OFFCURVE",
"187 603 CURVE",
"130 517 LINE"
);
}
);
width = 208;
},
{
associatedMasterId = "335260E3-B850-4550-8CEC-14CE68ACF16F";
layerId = "C7F6927E-AE81-4ED8-A250-E7EE5BA9BBA4";
name = "Bold Italic";
paths = (
{
closed = 1;
nodes = (
"145 361 LINE",
"230 442 LINE SMOOTH",
"279 489 OFFCURVE",
"294 515 OFFCURVE",
"310 583 CURVE SMOOTH",
"323 643 OFFCURVE",
"295 678 OFFCURVE",
"236 678 CURVE SMOOTH",
"177 678 OFFCURVE",
"137 645 OFFCURVE",
"124 585 CURVE SMOOTH",
"111 525 OFFCURVE",
"113 512 OFFCURVE",
"162 495 CURVE",
"104 404 LINE"
);
}
);
width = 281;
},
{
associatedMasterId = "335260E3-B850-4550-8CEC-14CE68ACF16F";
layerId = "C904C5FD-088D-4660-AED1-28B1A7BC3F9F";
name = "new Layer";
paths = (
{
closed = 1;
nodes = (
"74 613 LINE",
"135 613 LINE",
"135 675 LINE",
"74 675 LINE"
);
},
{
closed = 1;
nodes = (
"63 527 LINE",
"84 510 LINE",
"135 613 LINE",
"102 613 LINE"
);
}
);
width = 208;
}
);
leftKerningGroup = comma;
note = comma;
rightKerningGroup = comma;
unicode = 2019;
},
{
glyphname = quotereversed;
lastChange = "2020-04-15 03:30:09 +0000";
layers = (
{
layerId = "335260E3-B850-4550-8CEC-14CE68ACF16F";
paths = (
{
closed = 1;
nodes = (
"97 603 LINE",
"120 603 OFFCURVE",
"133 616 OFFCURVE",
"133 639 CURVE SMOOTH",
"133 662 OFFCURVE",
"119 675 OFFCURVE",
"97 675 CURVE SMOOTH",
"75 675 OFFCURVE",
"60 659 OFFCURVE",
"60 636 CURVE",
"61 609 OFFCURVE",
"71 588 OFFCURVE",
"92 546 CURVE SMOOTH",
"115 500 LINE",
"136 517 LINE"
);
}
);
width = 196;
},
{
layerId = "D5A55CBB-56DB-4AD9-B643-4353D3BE6F68";
paths = (
{
closed = 1;
nodes = (
"173 495 LINE",
"225 512 OFFCURVE",
"230 525 OFFCURVE",
"230 585 CURVE SMOOTH",
"230 645 OFFCURVE",
"197 678 OFFCURVE",
"138 678 CURVE SMOOTH",
"79 678 OFFCURVE",
"43 643 OFFCURVE",
"44 583 CURVE SMOOTH",
"45 515 OFFCURVE",
"55 489 OFFCURVE",
"94 442 CURVE SMOOTH",
"161 361 LINE",
"212 404 LINE"
);
}
);
width = 281;
},
{
associatedMasterId = "335260E3-B850-4550-8CEC-14CE68ACF16F";
layerId = "A3F0DF3F-6E5C-40C3-B5F9-213A49682D58";
name = "Light Italic";
paths = (
{
closed = 1;
nodes = (
"175 603 LINE",
"198 603 OFFCURVE",
"214 616 OFFCURVE",
"218 639 CURVE SMOOTH",
"223 662 OFFCURVE",
"212 675 OFFCURVE",
"190 675 CURVE SMOOTH",
"168 675 OFFCURVE",
"150 659 OFFCURVE",
"145 636 CURVE",
"140 609 OFFCURVE",
"146 588 OFFCURVE",
"158 546 CURVE SMOOTH",
"171 500 LINE",
"196 517 LINE"
);
}
);
width = 208;
},
{
associatedMasterId = "335260E3-B850-4550-8CEC-14CE68ACF16F";
layerId = "C7F6927E-AE81-4ED8-A250-E7EE5BA9BBA4";
name = "Bold Italic";
paths = (
{
closed = 1;
nodes = (
"227 495 LINE",
"282 512 OFFCURVE",
"290 525 OFFCURVE",
"303 585 CURVE SMOOTH",
"316 645 OFFCURVE",
"290 678 OFFCURVE",
"231 678 CURVE SMOOTH",
"172 678 OFFCURVE",
"128 643 OFFCURVE",
"117 583 CURVE SMOOTH",
"103 515 OFFCURVE",
"108 489 OFFCURVE",
"137 442 CURVE SMOOTH",
"186 361 LINE",
"247 404 LINE"
);
}
);
width = 281;
},
{
associatedMasterId = "335260E3-B850-4550-8CEC-14CE68ACF16F";
layerId = "C904C5FD-088D-4660-AED1-28B1A7BC3F9F";
name = "new Layer";
paths = (
{
closed = 1;
nodes = (
"73 675 LINE",
"73 613 LINE",
"134 613 LINE",
"134 675 LINE"
);
},
{
closed = 1;
nodes = (
"73 613 LINE",
"124 510 LINE",
"145 527 LINE",
"106 613 LINE"
);
}
);
width = 208;
}
);
leftKerningGroup = comma;
note = comma;
rightKerningGroup = comma;
unicode = 201B;
},
{
glyphname = guillemetleft;
lastChange = "2020-08-30 03:10:12 +0000";
layers = (
{
layerId = "335260E3-B850-4550-8CEC-14CE68ACF16F";
paths = (
{
closed = 1;
nodes = (
"334 63 LINE",
"174 243 LINE",
"334 420 LINE",
"295 420 LINE",
"135 243 LINE",
"295 63 LINE"
);
},
{
closed = 1;
nodes = (
"229 63 LINE",
"69 243 LINE",
"229 420 LINE",
"190 420 LINE",
"30 243 LINE",
"190 63 LINE"
);
}
);
width = 364;
},
{
layerId = "D5A55CBB-56DB-4AD9-B643-4353D3BE6F68";
paths = (
{
closed = 1;
nodes = (
"585 63 LINE",
"425 243 LINE",
"585 420 LINE",
"425 420 LINE",
"265 243 LINE",
"425 63 LINE"
);
},
{
closed = 1;
nodes = (
"350 63 LINE",
"190 243 LINE",
"350 420 LINE",
"190 420 LINE",
"30 243 LINE",
"190 63 LINE"
);
}
);
width = 615;
},
{
associatedMasterId = "335260E3-B850-4550-8CEC-14CE68ACF16F";
layerId = "A3F0DF3F-6E5C-40C3-B5F9-213A49682D58";
name = "Light Italic";
paths = (
{
closed = 1;
nodes = (
"296 63 LINE",
"174 243 LINE",
"372 420 LINE",
"333 420 LINE",
"135 243 LINE",
"257 63 LINE"
);
},
{
closed = 1;
nodes = (
"191 63 LINE",
"69 243 LINE",
"267 420 LINE",
"228 420 LINE",
"30 243 LINE",
"152 63 LINE"
);
}
);
width = 364;
},
{
associatedMasterId = "335260E3-B850-4550-8CEC-14CE68ACF16F";
layerId = "C7F6927E-AE81-4ED8-A250-E7EE5BA9BBA4";
name = "Bold Italic";
paths = (
{
closed = 1;
nodes = (
"547 63 LINE",
"425 243 LINE",
"623 420 LINE",
"463 420 LINE",
"265 243 LINE",
"387 63 LINE"
);
},
{
closed = 1;
nodes = (
"312 63 LINE",
"190 243 LINE",
"388 420 LINE",
"228 420 LINE",
"30 243 LINE",
"152 63 LINE"
);
}
);
width = 615;
},
{
associatedMasterId = "335260E3-B850-4550-8CEC-14CE68ACF16F";
layerId = "C904C5FD-088D-4660-AED1-28B1A7BC3F9F";
name = "new Layer";
paths = (
{
closed = 1;
nodes = (
"334 63 LINE",
"174 243 LINE",
"334 420 LINE",
"295 420 LINE",
"135 243 LINE",
"295 63 LINE"
);
},
{
closed = 1;
nodes = (
"229 63 LINE",
"69 243 LINE",
"229 420 LINE",
"190 420 LINE",
"30 243 LINE",
"190 63 LINE"
);
}
);
width = 364;
}
);
note = guillemotleft;
unicode = 00AB;
},
{
glyphname = guillemetright;
lastChange = "2020-08-30 03:10:23 +0000";
layers = (
{
layerId = "335260E3-B850-4550-8CEC-14CE68ACF16F";
paths = (
{
closed = 1;
nodes = (
"229 243 LINE",
"69 420 LINE",
"30 420 LINE",
"190 243 LINE",
"30 63 LINE",
"69 63 LINE"
);
},
{
closed = 1;
nodes = (
"334 243 LINE",
"174 420 LINE",
"135 420 LINE",
"295 243 LINE",
"135 63 LINE",
"174 63 LINE"
);
}
);
width = 364;
},
{
layerId = "D5A55CBB-56DB-4AD9-B643-4353D3BE6F68";
paths = (
{
closed = 1;
nodes = (
"350 243 LINE",
"190 420 LINE",
"30 420 LINE",
"190 243 LINE",
"30 63 LINE",
"190 63 LINE"
);
},
{
closed = 1;
nodes = (
"585 243 LINE",
"425 420 LINE",
"265 420 LINE",
"425 243 LINE",
"265 63 LINE",
"425 63 LINE"
);
}
);
width = 615;
},
{
associatedMasterId = "335260E3-B850-4550-8CEC-14CE68ACF16F";
layerId = "A3F0DF3F-6E5C-40C3-B5F9-213A49682D58";
name = "Light Italic";
paths = (
{
closed = 1;
nodes = (
"229 243 LINE",
"107 420 LINE",
"68 420 LINE",
"190 243 LINE",
"-8 63 LINE",
"31 63 LINE"
);
},
{
closed = 1;
nodes = (
"334 243 LINE",
"212 420 LINE",
"173 420 LINE",
"295 243 LINE",
"97 63 LINE",
"136 63 LINE"
);
}
);
width = 364;
},
{
associatedMasterId = "335260E3-B850-4550-8CEC-14CE68ACF16F";
layerId = "C7F6927E-AE81-4ED8-A250-E7EE5BA9BBA4";
name = "Bold Italic";
paths = (
{
closed = 1;
nodes = (
"350 243 LINE",
"228 420 LINE",
"68 420 LINE",
"190 243 LINE",
"-8 63 LINE",
"152 63 LINE"
);
},
{
closed = 1;
nodes = (
"585 243 LINE",
"463 420 LINE",
"303 420 LINE",
"425 243 LINE",
"227 63 LINE",
"387 63 LINE"
);
}
);
width = 615;
},
{
associatedMasterId = "335260E3-B850-4550-8CEC-14CE68ACF16F";
layerId = "C904C5FD-088D-4660-AED1-28B1A7BC3F9F";
name = "new Layer";
paths = (
{
closed = 1;
nodes = (
"229 243 LINE",
"69 420 LINE",
"30 420 LINE",
"190 243 LINE",
"30 63 LINE",
"69 63 LINE"
);
},
{
closed = 1;
nodes = (
"334 243 LINE",
"174 420 LINE",
"135 420 LINE",
"295 243 LINE",
"135 63 LINE",
"174 63 LINE"
);
}
);
width = 364;
}
);
note = guillemotright;
unicode = 00BB;
},
{
glyphname = guilsinglleft;
lastChange = "2020-04-15 03:30:09 +0000";
layers = (
{
layerId = "335260E3-B850-4550-8CEC-14CE68ACF16F";
paths = (
{
closed = 1;
nodes = (
"229 63 LINE",
"69 243 LINE",
"229 420 LINE",
"190 420 LINE",
"30 243 LINE",
"190 63 LINE"
);
}
);
width = 259;
},
{
layerId = "D5A55CBB-56DB-4AD9-B643-4353D3BE6F68";
paths = (
{
closed = 1;
nodes = (
"350 63 LINE",
"190 243 LINE",
"350 420 LINE",
"190 420 LINE",
"30 243 LINE",
"190 63 LINE"
);
}
);
width = 380;
},
{
associatedMasterId = "335260E3-B850-4550-8CEC-14CE68ACF16F";
layerId = "A3F0DF3F-6E5C-40C3-B5F9-213A49682D58";
name = "Light Italic";
paths = (
{
closed = 1;
nodes = (
"191 63 LINE",
"69 243 LINE",
"267 420 LINE",
"228 420 LINE",
"30 243 LINE",
"152 63 LINE"
);
}
);
width = 259;
},
{
associatedMasterId = "335260E3-B850-4550-8CEC-14CE68ACF16F";
layerId = "C7F6927E-AE81-4ED8-A250-E7EE5BA9BBA4";
name = "Bold Italic";
paths = (
{
closed = 1;
nodes = (
"312 63 LINE",
"190 243 LINE",
"388 420 LINE",
"228 420 LINE",
"30 243 LINE",
"152 63 LINE"
);
}
);
width = 380;
},
{
associatedMasterId = "335260E3-B850-4550-8CEC-14CE68ACF16F";
layerId = "C904C5FD-088D-4660-AED1-28B1A7BC3F9F";
name = "new Layer";
paths = (
{
closed = 1;
nodes = (
"229 63 LINE",
"69 243 LINE",
"229 420 LINE",
"190 420 LINE",
"30 243 LINE",
"190 63 LINE"
);
}
);
width = 259;
}
);
note = guilsinglleft;
unicode = 2039;
},
{
glyphname = guilsinglright;
lastChange = "2020-04-15 03:30:09 +0000";
layers = (
{
layerId = "335260E3-B850-4550-8CEC-14CE68ACF16F";
paths = (
{
closed = 1;
nodes = (
"229 243 LINE",
"69 420 LINE",
"30 420 LINE",
"190 243 LINE",
"30 63 LINE",
"69 63 LINE"
);
}
);
width = 259;
},
{
layerId = "D5A55CBB-56DB-4AD9-B643-4353D3BE6F68";
paths = (
{
closed = 1;
nodes = (
"350 243 LINE",
"190 420 LINE",
"30 420 LINE",
"190 243 LINE",
"30 63 LINE",
"190 63 LINE"
);
}
);
width = 380;
},
{
associatedMasterId = "335260E3-B850-4550-8CEC-14CE68ACF16F";
layerId = "A3F0DF3F-6E5C-40C3-B5F9-213A49682D58";
name = "Light Italic";
paths = (
{
closed = 1;
nodes = (
"229 243 LINE",
"107 420 LINE",
"68 420 LINE",
"190 243 LINE",
"-8 63 LINE",
"31 63 LINE"
);
}
);
width = 259;
},
{
associatedMasterId = "335260E3-B850-4550-8CEC-14CE68ACF16F";
layerId = "C7F6927E-AE81-4ED8-A250-E7EE5BA9BBA4";
name = "Bold Italic";
paths = (
{
closed = 1;
nodes = (
"350 243 LINE",
"228 420 LINE",
"68 420 LINE",
"190 243 LINE",
"-8 63 LINE",
"152 63 LINE"
);
}
);
width = 380;
},
{
associatedMasterId = "335260E3-B850-4550-8CEC-14CE68ACF16F";
layerId = "C904C5FD-088D-4660-AED1-28B1A7BC3F9F";
name = "new Layer";
paths = (
{
closed = 1;
nodes = (
"229 243 LINE",
"69 420 LINE",
"30 420 LINE",
"190 243 LINE",
"30 63 LINE",
"69 63 LINE"
);
}
);
width = 259;
}
);
note = guilsinglright;
unicode = 203A;
},
{
glyphname = quotedbl;
lastChange = "2020-04-15 03:30:09 +0000";
layers = (
{
layerId = "335260E3-B850-4550-8CEC-14CE68ACF16F";
paths = (
{
closed = 1;
nodes = (
"70 612 LINE",
"119 612 LINE",
"119 674 LINE",
"70 674 LINE"
);
},
{
closed = 1;
nodes = (
"84 455 LINE",
"105 455 LINE",
"119 612 LINE",
"70 612 LINE"
);
},
{
closed = 1;
nodes = (
"171 612 LINE",
"220 612 LINE",
"220 674 LINE",
"171 674 LINE"
);
},
{
closed = 1;
nodes = (
"185 455 LINE",
"206 455 LINE",
"220 612 LINE",
"171 612 LINE"
);
}
);
width = 290;
},
{
layerId = "D5A55CBB-56DB-4AD9-B643-4353D3BE6F68";
paths = (
{
closed = 1;
nodes = (
"60 536 LINE",
"209 536 LINE",
"209 674 LINE",
"60 674 LINE"
);
},
{
closed = 1;
nodes = (
"103 333 LINE",
"166 333 LINE",
"209 536 LINE",
"60 536 LINE"
);
},
{
closed = 1;
nodes = (
"251 536 LINE",
"400 536 LINE",
"400 674 LINE",
"251 674 LINE"
);
},
{
closed = 1;
nodes = (
"294 333 LINE",
"357 333 LINE",
"400 536 LINE",
"251 536 LINE"
);
}
);
width = 460;
},
{
associatedMasterId = "335260E3-B850-4550-8CEC-14CE68ACF16F";
layerId = "A3F0DF3F-6E5C-40C3-B5F9-213A49682D58";
name = "Light Italic";
paths = (
{
closed = 1;
nodes = (
"149 612 LINE",
"198 612 LINE",
"211 674 LINE",
"162 674 LINE"
);
},
{
closed = 1;
nodes = (
"129 455 LINE",
"150 455 LINE",
"198 612 LINE",
"149 612 LINE"
);
},
{
closed = 1;
nodes = (
"250 612 LINE",
"299 612 LINE",
"312 674 LINE",
"263 674 LINE"
);
},
{
closed = 1;
nodes = (
"230 455 LINE",
"251 455 LINE",
"299 612 LINE",
"250 612 LINE"
);
}
);
width = 290;
},
{
associatedMasterId = "335260E3-B850-4550-8CEC-14CE68ACF16F";
layerId = "C7F6927E-AE81-4ED8-A250-E7EE5BA9BBA4";
name = "Bold Italic";
paths = (
{
closed = 1;
nodes = (
"123 536 LINE",
"272 536 LINE",
"301 674 LINE",
"152 674 LINE"
);
},
{
closed = 1;
nodes = (
"122 333 LINE",
"185 333 LINE",
"272 536 LINE",
"123 536 LINE"
);
},
{
closed = 1;
nodes = (
"314 536 LINE",
"463 536 LINE",
"492 674 LINE",
"343 674 LINE"
);
},
{
closed = 1;
nodes = (
"313 333 LINE",
"376 333 LINE",
"463 536 LINE",
"314 536 LINE"
);
}
);
width = 460;
},
{
associatedMasterId = "335260E3-B850-4550-8CEC-14CE68ACF16F";
layerId = "C904C5FD-088D-4660-AED1-28B1A7BC3F9F";
name = "new Layer";
paths = (
{
closed = 1;
nodes = (
"70 612 LINE",
"119 612 LINE",
"119 674 LINE",
"70 674 LINE"
);
},
{
closed = 1;
nodes = (
"84 455 LINE",
"105 455 LINE",
"119 612 LINE",
"70 612 LINE"
);
},
{
closed = 1;
nodes = (
"171 612 LINE",
"220 612 LINE",
"220 674 LINE",
"171 674 LINE"
);
},
{
closed = 1;
nodes = (
"185 455 LINE",
"206 455 LINE",
"220 612 LINE",
"171 612 LINE"
);
}
);
width = 290;
}
);
leftKerningGroup = quotedbl;
note = quotedbl;
rightKerningGroup = quotedbl;
unicode = 0022;
},
{
glyphname = quotesingle;
lastChange = "2020-04-15 03:37:25 +0000";
layers = (
{
layerId = "335260E3-B850-4550-8CEC-14CE68ACF16F";
paths = (
{
closed = 1;
nodes = (
"60 638 LINE",
"109 638 LINE",
"109 700 LINE",
"60 700 LINE"
);
},
{
closed = 1;
nodes = (
"74 481 LINE",
"95 481 LINE",
"109 638 LINE",
"60 638 LINE"
);
}
);
width = 129;
},
{
layerId = "D5A55CBB-56DB-4AD9-B643-4353D3BE6F68";
paths = (
{
closed = 1;
nodes = (
"51 562 LINE",
"200 562 LINE",
"200 700 LINE",
"51 700 LINE"
);
},
{
closed = 1;
nodes = (
"94 359 LINE",
"157 359 LINE",
"200 562 LINE",
"51 562 LINE"
);
}
);
width = 220;
},
{
associatedMasterId = "335260E3-B850-4550-8CEC-14CE68ACF16F";
layerId = "A3F0DF3F-6E5C-40C3-B5F9-213A49682D58";
name = "Light Italic";
paths = (
{
closed = 1;
nodes = (
"141 612 LINE",
"190 612 LINE",
"203 674 LINE",
"154 674 LINE"
);
},
{
closed = 1;
nodes = (
"121 455 LINE",
"142 455 LINE",
"190 612 LINE",
"141 612 LINE"
);
}
);
width = 176;
},
{
associatedMasterId = "335260E3-B850-4550-8CEC-14CE68ACF16F";
layerId = "C7F6927E-AE81-4ED8-A250-E7EE5BA9BBA4";
name = "Bold Italic";
paths = (
{
closed = 1;
nodes = (
"114 536 LINE",
"263 536 LINE",
"292 674 LINE",
"143 674 LINE"
);
},
{
closed = 1;
nodes = (
"113 333 LINE",
"176 333 LINE",
"263 536 LINE",
"114 536 LINE"
);
}
);
width = 252;
},
{
associatedMasterId = "335260E3-B850-4550-8CEC-14CE68ACF16F";
layerId = "C904C5FD-088D-4660-AED1-28B1A7BC3F9F";
name = "new Layer";
paths = (
{
closed = 1;
nodes = (
"62 612 LINE",
"111 612 LINE",
"111 674 LINE",
"62 674 LINE"
);
},
{
closed = 1;
nodes = (
"76 455 LINE",
"97 455 LINE",
"111 612 LINE",
"62 612 LINE"
);
}
);
width = 176;
}
);
note = quotesingle;
unicode = 0027;
},
